<svg width="37" height="23" viewBox="0 0 37 23" fill="none" xmlns="http://www.w3.org/2000/svg">
<path d="M33.4702 1H3.60604C1.95669 1 0.619629 2.19973 0.619629 3.67968V19.7577C0.619629 21.2377 1.95669 22.4374 3.60604 22.4374H33.4702C35.1195 22.4374 36.4566 21.2377 36.4566 19.7577V3.67968C36.4566 2.19973 35.1195 1 33.4702 1Z" fill="#3086C8" stroke="#3086C8" stroke-width="0.759158"/>
<path d="M8.71864 9.03906L5.8457 14.3984H9.27261L9.69445 13.5534H10.6695L11.0913 14.3984H14.8609V13.7535L15.2036 14.3984H17.1538L17.4965 13.7312V14.3984H25.3522L26.3012 13.5756L27.1971 14.3984H31.2303L28.3573 11.7299L31.2303 9.03906H27.2762L26.3534 9.86186L25.4836 9.03906H16.9432L16.2048 10.4178L15.4672 9.03906H12.0403V9.66175L11.6715 9.03906C11.6446 9.03906 8.71864 9.03906 8.71864 9.03906ZM9.37789 9.81738H11.0383L12.9362 13.4422V9.81738H14.7818L16.2578 12.4192L17.6025 9.81738H19.4212V13.6646H18.314V10.6624L16.7058 13.6423H15.7046L14.0703 10.6402V13.6423H11.7767L11.3549 12.7751H9.00907L8.58723 13.6423H7.37475L9.37789 9.81738ZM20.4493 9.81738H24.9565L26.3273 11.0849L27.7511 9.81738H29.1211L27.0127 11.7521L29.1211 13.6646H27.6719L26.3012 12.397L24.8774 13.6646H20.4493V9.81738ZM10.1954 10.4623L9.4309 11.9967H10.9592L10.1954 10.4623ZM21.5565 10.5958V11.3073H24.0076V12.0857H21.5565V12.8417H24.3242L25.6158 11.7076L24.3764 10.5958H21.5565Z" fill="white"/>
</svg>
