<svg width="247" height="23" viewBox="0 0 247 23" fill="none" xmlns="http://www.w3.org/2000/svg">
<path d="M33.8506 1H3.98641C2.33706 1 1 2.19973 1 3.67968V19.7577C1 21.2377 2.33706 22.4374 3.98641 22.4374H33.8506C35.4999 22.4374 36.837 21.2377 36.837 19.7577V3.67968C36.837 2.19973 35.4999 1 33.8506 1Z" fill="white" stroke="#E0E0E0" stroke-width="0.759158"/>
<path fill-rule="evenodd" clip-rule="evenodd" d="M23.6594 12.8374C23.664 11.8159 22.7251 11.3747 21.9965 11.0323C21.5352 10.8156 21.1583 10.6385 21.1583 10.3787C21.1583 10.1577 21.3972 9.9232 21.9049 9.86291C22.5091 9.80925 23.1182 9.90424 23.6669 10.1376L23.9804 8.79774C23.4456 8.6178 22.8793 8.52475 22.3081 8.52307C20.5461 8.52307 19.3216 9.36717 19.3216 10.573C19.3216 11.464 20.2101 11.9598 20.882 12.2545C21.554 12.5493 21.8153 12.757 21.8078 13.0249C21.8078 13.4403 21.2553 13.6279 20.7402 13.6346C20.1048 13.6419 19.4777 13.5035 18.9185 13.2326L18.5974 14.5724C19.2302 14.7941 19.9042 14.9055 20.5834 14.9007C22.4574 14.9007 23.6893 14.07 23.6967 12.7838L23.6594 12.8374ZM18.8139 8.63026L17.3207 14.827H15.5289L17.0221 8.63026H18.8139ZM26.3248 12.6498L27.2655 10.3252L27.8105 12.6498H26.3248ZM29.9757 14.8471H28.3182L28.1017 13.9226H25.8544L25.4886 14.8471H23.6071L26.2875 9.1059C26.411 8.83278 26.7055 8.65304 27.0341 8.65036H28.5273L29.9757 14.8471ZM13.4011 14.8069L16.2979 8.61016H14.3567L12.4977 12.824L11.7511 9.23989C11.685 8.87572 11.3336 8.60869 10.9223 8.61016H7.88366L7.83887 8.79104C8.44832 8.89803 9.04038 9.07361 9.60085 9.31358C9.83962 9.41427 10.0013 9.6206 10.0264 9.85621L11.4524 14.8069H13.4011Z" fill="#142688"/>
<path d="M162.267 3.67968V19.7577C162.267 21.2377 160.929 22.4374 159.28 22.4374H129.416C129.07 22.4398 128.725 22.3853 128.401 22.2766C127.218 21.893 126.43 20.886 126.43 19.7577V3.67968C126.43 2.19973 127.767 1 129.416 1H159.28C160.929 1 162.267 2.19973 162.267 3.67968Z" fill="white" stroke="#E0E0E0" stroke-width="0.759158"/>
<path d="M162.267 11.7188V19.7341C162.267 21.2271 160.911 22.4374 159.238 22.4374H128.952C128.601 22.4397 128.252 22.3848 127.923 22.2752C130.467 21.9508 132.92 21.5453 135.328 21.0857C135.964 20.9776 136.584 20.8425 137.205 20.7208C147.215 18.6798 155.876 15.6791 160.753 12.7325C161.298 12.3946 161.813 12.0567 162.267 11.7188Z" fill="#EE7623"/>
<path fill-rule="evenodd" clip-rule="evenodd" d="M129.416 8.12785H130.775V8.10106C131.815 8.03353 132.785 8.57556 133.177 9.44291C133.568 10.3103 133.292 11.3053 132.492 11.9062C132.004 12.2491 131.394 12.4206 130.775 12.3885H129.416V8.12785ZM130.596 11.7186C131.063 11.7554 131.527 11.6199 131.88 11.3435C132.216 11.0691 132.406 10.6793 132.402 10.2716C132.409 9.86335 132.218 9.47252 131.88 9.19973C131.521 8.93491 131.059 8.8095 130.596 8.85137H130.357V11.7186H130.596Z" fill="#231F20"/>
<path d="M134.717 8.12115H133.784V12.422H134.717V8.12115Z" fill="#231F20"/>
<path d="M137.009 9.76921C136.449 9.58833 136.262 9.46104 136.262 9.22657C136.262 8.9921 136.553 8.75093 136.957 8.75093C137.251 8.76198 137.524 8.8896 137.703 9.09929L138.188 8.52986C137.805 8.21566 137.304 8.04329 136.785 8.04751C136.403 8.02547 136.026 8.14472 135.745 8.37752C135.463 8.61031 135.299 8.93643 135.292 9.28016C135.292 9.87639 135.59 10.1779 136.464 10.4592C136.688 10.5237 136.906 10.6067 137.113 10.7071C137.289 10.7983 137.398 10.9669 137.397 11.1492C137.396 11.3213 137.314 11.4849 137.172 11.6007C137.03 11.7165 136.842 11.7738 136.65 11.7589C136.215 11.7631 135.817 11.5375 135.635 11.1827L135.03 11.7053C135.383 12.2414 136.04 12.5566 136.733 12.5226C137.163 12.549 137.587 12.4116 137.899 12.144C138.212 11.8764 138.385 11.5032 138.375 11.1157C138.375 10.4324 138.069 10.1176 137.009 9.76921Z" fill="#231F20"/>
<path d="M138.681 10.2717C138.675 10.8732 138.94 11.4514 139.417 11.8742C139.894 12.2971 140.542 12.5286 141.212 12.5159C141.619 12.518 142.022 12.4331 142.384 12.268V11.2832C142.102 11.5791 141.691 11.7502 141.257 11.7522C140.818 11.762 140.395 11.6071 140.089 11.3248C139.782 11.0425 139.621 10.6583 139.644 10.265C139.63 9.8819 139.788 9.50989 140.083 9.23268C140.378 8.95547 140.785 8.7963 141.212 8.79114C141.662 8.79274 142.089 8.9686 142.384 9.27348V8.2887C142.033 8.11365 141.637 8.02147 141.235 8.02073C140.563 8.01356 139.915 8.24716 139.436 8.66968C138.957 9.0922 138.685 9.6688 138.681 10.2717Z" fill="#231F20"/>
<path d="M149.798 11.0085L148.514 8.12115H147.499L149.529 12.5292H150.03L152.105 8.12115H151.09L149.798 11.0085Z" fill="#231F20"/>
<path d="M152.523 12.422H155.181V11.6918H153.457V10.5329H155.114V9.80265H153.457V8.85137H155.181V8.12115H152.523V12.422Z" fill="#231F20"/>
<path fill-rule="evenodd" clip-rule="evenodd" d="M158.877 9.38738C158.928 9.99051 158.453 10.5273 157.787 10.62L159.28 12.3886H158.145L156.846 10.687H156.742V12.3886H155.801V8.12793H157.175C158.265 8.12793 158.877 8.58347 158.877 9.38738ZM156.742 10.0975H157.04C157.593 10.0975 157.921 9.92331 157.921 9.46777C157.921 9.01222 157.608 8.79785 157.04 8.79785H156.742V10.0975Z" fill="#231F20"/>
<path d="M147.775 10.2717C147.775 11.5333 146.635 12.5561 145.229 12.5561C143.823 12.5561 142.683 11.5333 142.683 10.2717C142.683 9.01001 143.823 7.98724 145.229 7.98724C146.633 7.99093 147.771 9.01155 147.775 10.2717Z" fill="#EE7623"/>
<path fill-rule="evenodd" clip-rule="evenodd" d="M159.37 8.20829C159.367 8.25425 159.33 8.2929 159.28 8.30208L159.415 8.47626H159.295L159.161 8.31548V8.47626H159.056V8.08771H159.205C159.31 8.08771 159.37 8.1279 159.37 8.20829ZM159.265 8.20829C159.265 8.1681 159.235 8.1681 159.191 8.1681V8.24849H159.205C159.245 8.24849 159.259 8.24849 159.264 8.24239C159.268 8.2371 159.265 8.22712 159.265 8.20829Z" fill="#231F20"/>
<path fill-rule="evenodd" clip-rule="evenodd" d="M158.877 8.2753C158.877 8.09542 159.035 7.9475 159.235 7.94034C159.337 7.93665 159.435 7.97035 159.509 8.03359C159.583 8.09676 159.624 8.18405 159.624 8.2753C159.624 8.46026 159.456 8.61026 159.25 8.61026C159.044 8.61026 158.877 8.46026 158.877 8.2753ZM159.235 8.55666C159.311 8.55881 159.382 8.529 159.429 8.47627C159.485 8.42121 159.518 8.34979 159.519 8.2753C159.519 8.13468 159.392 8.02073 159.235 8.02073C159.079 8.02073 158.952 8.13468 158.952 8.2753C158.946 8.34684 158.973 8.41752 159.026 8.47071C159.08 8.52397 159.155 8.55506 159.235 8.55666Z" fill="#231F20"/>
<path d="M117.47 1H87.606C85.9567 1 84.6196 2.19973 84.6196 3.67968V19.7577C84.6196 21.2377 85.9567 22.4374 87.606 22.4374H117.47C119.12 22.4374 120.457 21.2377 120.457 19.7577V3.67968C120.457 2.19973 119.12 1 117.47 1Z" fill="#3086C8" stroke="#3086C8" stroke-width="0.759158"/>
<path d="M92.7186 9.03906L89.8457 14.3984H93.2726L93.6944 13.5534H94.6695L95.0913 14.3984H98.8609V13.7535L99.2036 14.3984H101.154L101.496 13.7312V14.3984H109.352L110.301 13.5756L111.197 14.3984H115.23L112.357 11.7299L115.23 9.03906H111.276L110.353 9.86186L109.484 9.03906H100.943L100.205 10.4178L99.4672 9.03906H96.0403V9.66175L95.6715 9.03906C95.6446 9.03906 92.7186 9.03906 92.7186 9.03906ZM93.3779 9.81738H95.0383L96.9362 13.4422V9.81738H98.7818L100.258 12.4192L101.602 9.81738H103.421V13.6646H102.314V10.6624L100.706 13.6423H99.7046L98.0703 10.6402V13.6423H95.7767L95.3549 12.7751H93.0091L92.5872 13.6423H91.3747L93.3779 9.81738ZM104.449 9.81738H108.957L110.327 11.0849L111.751 9.81738H113.121L111.013 11.7521L113.121 13.6646H111.672L110.301 12.397L108.877 13.6646H104.449V9.81738ZM94.1954 10.4623L93.4309 11.9967H94.9592L94.1954 10.4623ZM105.556 10.5958V11.3073H108.008V12.0857H105.556V12.8417H108.324L109.616 11.7076L108.376 10.5958H105.556Z" fill="white"/>
<path d="M201.09 1H171.226C169.576 1 168.239 2.19973 168.239 3.67968V19.7577C168.239 21.2377 169.576 22.4374 171.226 22.4374H201.09C202.739 22.4374 204.076 21.2377 204.076 19.7577V3.67968C204.076 2.19973 202.739 1 201.09 1Z" fill="#006FCF"/>
<path d="M170.964 8.0609L171.367 8.9452H170.016L170.427 8.0609L170.696 7.47137L170.964 8.0609Z" fill="white"/>
<path fill-rule="evenodd" clip-rule="evenodd" d="M199.365 6.96217V5.8501H202.045V11.3166H199.522L198.775 10.2582V11.3166H195.117L194.751 10.4993H193.915L193.572 11.3166H191.429C190.783 11.3312 190.148 11.1573 189.622 10.8209V11.3166H186.031L185.165 10.3386V11.3166H171.472L171.129 10.4993H170.292L169.942 11.3166H168.239V10.4993H169.374L169.732 9.70884H171.696L172.054 10.4725H173.204L171.397 6.6942H170.068L168.239 10.4993V8.369L169.434 5.8233H171.868L172.57 7.23013V5.8233H175.556L176.004 7.02916L176.452 5.8501H189.622V6.39943C190.154 6.02685 190.814 5.83256 191.489 5.8501H195.475L196.222 7.25693V5.8501H198.566L199.365 6.96217ZM177.639 10.4725H178.625V6.6942H176.975L176.138 8.87814L176.004 9.29349L175.87 8.87814L175.048 6.6942H173.398V10.4725H174.376V7.99384V7.41771L174.585 7.99384L175.541 10.4725H176.452L177.445 7.99384L177.639 7.41771V7.99384V10.4725ZM182.798 7.4981H180.431V8.16802H182.738V8.97193H180.431V9.64184H182.798V10.4457H179.438V6.6942H182.798V7.4981ZM184.971 9.13271L186.225 10.4725H187.524L186.12 9.07911C186.789 9.00683 187.287 8.49059 187.27 7.88666C187.275 7.54238 187.114 7.21305 186.827 6.98413C186.541 6.75524 186.158 6.64942 185.777 6.6942H183.47V10.4725H184.508V9.13271H184.971ZM188.756 10.4725H187.733V6.6942H188.756V10.4725ZM191.309 10.4725H191.369L191.78 9.66864H191.459C191.149 9.68291 190.848 9.57298 190.637 9.36852C190.427 9.16406 190.328 8.88618 190.369 8.61017V8.55658C190.333 8.28271 190.434 8.00865 190.643 7.80734C190.854 7.60603 191.152 7.49783 191.459 7.5115H192.571V6.6942H191.384C190.826 6.65859 190.279 6.84482 189.888 7.20347C189.497 7.56215 189.302 8.05695 189.353 8.55658V8.61017C189.29 9.10021 189.473 9.58999 189.85 9.94887C190.226 10.3078 190.761 10.4994 191.309 10.4725ZM195.684 10.4725L195.326 9.70884H193.333L192.974 10.4993H191.884L193.691 6.6942H195.035L196.834 10.4725H195.684ZM199.858 10.4725H201.052L201.09 6.6674H200.045V8.67716V9.13271L199.761 8.70396L198.268 6.6942H197.028V10.4993H198.029V8.39579V7.95365L198.298 8.369L199.858 10.4725ZM195.042 8.94513L194.639 8.06083L194.37 7.47131L194.102 8.06083L193.713 8.94513H195.042ZM184.508 7.4981H185.687C185.82 7.48484 185.952 7.52242 186.052 7.6016C186.151 7.68072 186.209 7.79407 186.21 7.91345C186.214 8.03431 186.158 8.1504 186.057 8.23053C185.956 8.31071 185.82 8.34669 185.687 8.3288H184.508V7.4981Z" fill="white"/>
<path fill-rule="evenodd" clip-rule="evenodd" d="M204.076 13.8356H201.889C201.514 13.7966 201.138 13.9057 200.861 14.1346C200.582 14.3635 200.429 14.6896 200.44 15.0281C200.418 15.3409 200.552 15.6464 200.805 15.8615C201.06 16.0766 201.408 16.1787 201.754 16.1401H202.717C202.868 16.1129 203.024 16.1701 203.109 16.2851C203.195 16.4001 203.195 16.5501 203.109 16.6651C203.024 16.7801 202.868 16.8373 202.717 16.8101H200.56V17.614H202.703C203.295 17.6632 203.852 17.3505 204.061 16.8503V18.1231C203.654 18.3493 203.182 18.4656 202.703 18.4581H191.041L190.175 17.48V18.4581H187.614V17.078C187.251 17.1786 186.873 17.2284 186.494 17.2254H186.076V18.4581H182.305L181.678 17.6408L181.036 18.4581H174.869V12.9915H181.051L181.678 13.7954L182.32 12.9915H204.076V13.8356ZM203.673 14.6395H201.836C201.686 14.6123 201.53 14.6695 201.445 14.7845C201.359 14.8994 201.359 15.0495 201.445 15.1645C201.53 15.2795 201.686 15.3367 201.836 15.3094H202.815C203.331 15.2618 203.824 15.5152 204.039 15.9392V13.8624L203.673 14.6395ZM179.222 14.6395H176.855V15.3094H179.177V16.0999H176.855V16.7699H179.222V17.5738H175.84V13.8356H179.222V14.6395ZM181.678 16.4081L182.694 17.614L183.978 17.6408L182.275 15.7382L183.948 13.8356H182.708L181.678 15.0281L180.655 13.849H179.386L181.081 15.7382L179.438 17.614H180.625L181.678 16.4081ZM186.427 16.3679H185.157V17.614H184.157V13.8356H186.479C186.87 13.7982 187.261 13.9159 187.547 14.1578C187.835 14.3998 187.989 14.7421 187.972 15.0951C187.985 15.4528 187.825 15.7981 187.533 16.0421C187.241 16.286 186.845 16.4049 186.449 16.3679H186.427ZM189.943 16.2741L191.197 17.614H192.496L191.085 16.2205C191.56 16.1703 191.969 15.8966 192.158 15.5024C192.347 15.1084 192.287 14.6538 192.001 14.31C191.716 13.9662 191.247 13.7854 190.772 13.8356H188.487V17.614H189.48V16.2741H189.943ZM196.11 14.6395H193.766V15.3094H196.073V16.0999H193.766V16.7699H196.132V17.5738H192.735V13.8356H196.132L196.11 14.6395ZM196.67 17.614H198.85C199.221 17.6408 199.587 17.5246 199.856 17.2943C200.126 17.0642 200.273 16.7418 200.261 16.4081C200.28 16.0985 200.144 15.7975 199.889 15.5874C199.635 15.3774 199.29 15.2804 198.947 15.3228H197.969C197.818 15.3501 197.663 15.2929 197.578 15.1779C197.492 15.0629 197.492 14.9128 197.578 14.7979C197.663 14.6829 197.818 14.6257 197.969 14.6529H199.783L200.186 13.849H197.999C197.626 13.8103 197.254 13.9177 196.977 14.1436C196.699 14.3695 196.544 14.6919 196.551 15.0281C196.528 15.3409 196.662 15.6464 196.916 15.8615C197.17 16.0766 197.518 16.1787 197.865 16.1401H198.85C199.001 16.1129 199.156 16.1701 199.241 16.2851C199.327 16.4001 199.327 16.5501 199.241 16.6651C199.156 16.7801 199.001 16.8373 198.85 16.8101H196.67V17.614ZM190.682 14.6395H189.503V15.4702H190.682C190.815 15.4881 190.951 15.4521 191.052 15.3719C191.153 15.2918 191.209 15.1757 191.205 15.0549C191.206 14.9348 191.149 14.8201 191.049 14.7405C190.949 14.6608 190.815 14.624 190.682 14.6395ZM185.18 14.6395H186.389C186.674 14.6395 186.904 14.8465 186.904 15.1018C186.904 15.3571 186.674 15.564 186.389 15.564H185.18V14.6395Z" fill="white"/>
<path d="M75.6606 1H45.7965C44.1471 1 42.8101 2.19973 42.8101 3.67968V19.7577C42.8101 21.2377 44.1471 22.4374 45.7965 22.4374H75.6606C77.31 22.4374 78.647 21.2377 78.647 19.7577V3.67968C78.647 2.19973 77.31 1 75.6606 1Z" fill="white" stroke="#E0E0E0" stroke-width="0.759158"/>
<path d="M52.5152 19.6779V18.6137C52.5152 18.2058 52.2194 17.9398 51.7124 17.9398C51.4588 17.9398 51.1842 18.0107 50.994 18.2413C50.8461 18.0462 50.6349 17.9398 50.318 17.9398C50.1067 17.9398 49.8954 17.993 49.7263 18.188V17.9752H49.2827V19.6779H49.7263V18.7379C49.7263 18.4364 49.9165 18.2945 50.2123 18.2945C50.5081 18.2945 50.656 18.4541 50.656 18.7379V19.6779H51.0997V18.7379C51.0997 18.4364 51.3109 18.2945 51.5856 18.2945C51.8814 18.2945 52.0292 18.4541 52.0292 18.7379V19.6779H52.5152ZM59.0858 17.9752H58.3675V17.4608H57.9238V17.9752H57.5224V18.3122H57.9238V19.0926C57.9238 19.4828 58.114 19.7134 58.6211 19.7134C58.8112 19.7134 59.0225 19.6602 59.1704 19.5892L59.0436 19.27C58.9168 19.3409 58.7689 19.3587 58.6633 19.3587C58.4521 19.3587 58.3675 19.2523 58.3675 19.0749V18.3122H59.0858V17.9752ZM62.8466 17.9398C62.593 17.9398 62.424 18.0462 62.3183 18.188V17.9752H61.8747V19.6779H62.3183V18.7202C62.3183 18.4364 62.4662 18.2767 62.7409 18.2767C62.8254 18.2767 62.9311 18.2945 63.0156 18.3122L63.1423 17.9575C63.0579 17.9398 62.9311 17.9398 62.8466 17.9398ZM57.1633 18.1171C56.952 17.993 56.6562 17.9398 56.3393 17.9398C55.8322 17.9398 55.4942 18.1526 55.4942 18.4896C55.4942 18.7734 55.7477 18.933 56.1914 18.9862L56.4026 19.0039C56.635 19.0394 56.7618 19.0926 56.7618 19.1813C56.7618 19.3055 56.5928 19.3942 56.2971 19.3942C56.0013 19.3942 55.7688 19.3055 55.6209 19.2168L55.4096 19.5005C55.6421 19.6424 55.959 19.7134 56.2759 19.7134C56.8675 19.7134 57.2055 19.4828 57.2055 19.1636C57.2055 18.862 56.9309 18.7024 56.5083 18.6492L56.2971 18.6315C56.1069 18.6137 55.959 18.5783 55.959 18.4718C55.959 18.3477 56.1069 18.2767 56.3393 18.2767C56.5928 18.2767 56.8463 18.3654 56.9731 18.4186L57.1633 18.1171ZM68.9524 17.9398C68.6988 17.9398 68.5299 18.0462 68.4242 18.188V17.9752H67.9805V19.6779H68.4242V18.7202C68.4242 18.4364 68.5721 18.2767 68.8467 18.2767C68.9312 18.2767 69.0369 18.2945 69.1214 18.3122L69.2482 17.9575C69.1637 17.9398 69.0369 17.9398 68.9524 17.9398ZM63.2902 18.8265C63.2902 19.3409 63.7128 19.7134 64.3677 19.7134C64.6635 19.7134 64.8748 19.6602 65.0861 19.5183L64.8748 19.2168C64.7058 19.3232 64.5367 19.3764 64.3466 19.3764C63.9874 19.3764 63.7339 19.1636 63.7339 18.8265C63.7339 18.5073 63.9874 18.2945 64.3466 18.2767C64.5367 18.2767 64.7058 18.3299 64.8748 18.4364L65.0861 18.1349C64.8748 17.993 64.6635 17.9398 64.3677 17.9398C63.7128 17.9398 63.2902 18.3122 63.2902 18.8265ZM67.389 18.8265V17.9752H66.9453V18.188C66.7974 18.0285 66.5861 17.9398 66.3115 17.9398C65.741 17.9398 65.2974 18.3122 65.2974 18.8265C65.2974 19.3409 65.741 19.7134 66.3115 19.7134C66.6072 19.7134 66.8185 19.6247 66.9453 19.4651V19.6779H67.389V18.8265ZM65.7621 18.8265C65.7621 18.5251 65.9945 18.2767 66.3749 18.2767C66.734 18.2767 66.9875 18.5073 66.9875 18.8265C66.9875 19.1281 66.734 19.3764 66.3749 19.3764C65.9945 19.3587 65.7621 19.1281 65.7621 18.8265ZM60.4591 17.9398C59.8675 17.9398 59.445 18.2945 59.445 18.8265C59.445 19.3587 59.8675 19.7134 60.4803 19.7134C60.7761 19.7134 61.0718 19.6424 61.3042 19.4828L61.0929 19.2168C60.9239 19.3232 60.7127 19.3942 60.5014 19.3942C60.2267 19.3942 59.9521 19.2877 59.8887 18.9862H61.3887V18.8443C61.4099 18.2945 61.0296 17.9398 60.4591 17.9398ZM60.4591 18.259C60.7338 18.259 60.9239 18.4009 60.9662 18.667H59.9098C59.9521 18.4364 60.1422 18.259 60.4591 18.259ZM71.4666 18.8265V17.3013H71.0228V18.188C70.875 18.0285 70.6637 17.9398 70.3891 17.9398C69.8186 17.9398 69.3749 18.3122 69.3749 18.8265C69.3749 19.3409 69.8186 19.7134 70.3891 19.7134C70.6849 19.7134 70.8961 19.6247 71.0228 19.4651V19.6779H71.4666V18.8265ZM69.8397 18.8265C69.8397 18.5251 70.0721 18.2767 70.4524 18.2767C70.8116 18.2767 71.0651 18.5073 71.0651 18.8265C71.0651 19.1281 70.8116 19.3764 70.4524 19.3764C70.0721 19.3587 69.8397 19.1281 69.8397 18.8265ZM55.0083 18.8265V17.9752H54.5646V18.188C54.4167 18.0285 54.2054 17.9398 53.9308 17.9398C53.3603 17.9398 52.9167 18.3122 52.9167 18.8265C52.9167 19.3409 53.3603 19.7134 53.9308 19.7134C54.2265 19.7134 54.4378 19.6247 54.5646 19.4651V19.6779H55.0083V18.8265ZM53.3603 18.8265C53.3603 18.5251 53.5927 18.2767 53.973 18.2767C54.3321 18.2767 54.5857 18.5073 54.5857 18.8265C54.5857 19.1281 54.3321 19.3764 53.973 19.3764C53.5927 19.3587 53.3603 19.1281 53.3603 18.8265Z" fill="black"/>
<path d="M63.6703 5.04529H57.0151V15.084H63.6703V5.04529Z" fill="#FF5F00"/>
<path d="M57.4379 10.0648C57.4379 8.02507 58.5788 6.21598 60.3323 5.04539C59.0435 4.19404 57.4168 3.67969 55.642 3.67969C51.4377 3.67969 48.0361 6.53524 48.0361 10.0648C48.0361 13.5943 51.4377 16.4498 55.642 16.4498C57.4168 16.4498 59.0435 15.9355 60.3323 15.0841C58.5788 13.9313 57.4379 12.1045 57.4379 10.0648Z" fill="#EB001B"/>
<path d="M72.6497 10.0648C72.6497 13.5943 69.2482 16.4499 65.0438 16.4499C63.2691 16.4499 61.6423 15.9355 60.3535 15.0842C62.1282 13.9136 63.248 12.1045 63.248 10.0648C63.248 8.02512 62.1071 6.21599 60.3535 5.04539C61.6423 4.19405 63.2691 3.67969 65.0438 3.67969C69.2482 3.67969 72.6497 6.55298 72.6497 10.0648Z" fill="#F79E1B"/>
<path d="M242.899 1H213.035C211.386 1 210.049 2.19973 210.049 3.67968V19.7577C210.049 21.2377 211.386 22.4374 213.035 22.4374H242.899C244.549 22.4374 245.886 21.2377 245.886 19.7577V3.67968C245.886 2.19973 244.549 1 242.899 1Z" fill="white" stroke="#E0E0E0" stroke-width="0.759158"/>
<path d="M231.197 14.9029H224.737V4.43323H231.197V14.9029Z" fill="#6C6BBD"/>
<path d="M225.148 9.6683C225.148 7.54446 226.25 5.6526 227.968 4.43342C226.712 3.54189 225.127 3.00977 223.404 3.00977C219.327 3.00977 216.022 5.99083 216.022 9.6683C216.022 13.3457 219.327 16.3268 223.404 16.3268C225.127 16.3268 226.712 15.7947 227.968 14.9031C226.25 13.6839 225.148 11.7921 225.148 9.6683Z" fill="#D32011"/>
<path d="M239.913 9.6683C239.913 13.3457 236.608 16.3268 232.531 16.3268C230.808 16.3268 229.223 15.7947 227.967 14.9031C229.684 13.6839 230.787 11.7921 230.787 9.6683C230.787 7.54446 229.684 5.6526 227.967 4.43342C229.223 3.54189 230.808 3.00977 232.531 3.00977C236.608 3.00977 239.913 5.99083 239.913 9.6683Z" fill="#0099DF"/>
<path d="M233.383 17.8612C233.469 17.8612 233.593 17.8761 233.687 17.9095L233.556 18.2718C233.465 18.2384 233.375 18.2274 233.289 18.2274C233.01 18.2274 232.87 18.3899 232.87 18.682V19.6735H232.444V17.9057H232.867V18.1203C232.977 17.9649 233.138 17.8612 233.383 17.8612ZM231.807 18.257H231.11V19.0558C231.11 19.2332 231.179 19.3517 231.393 19.3517C231.504 19.3517 231.643 19.3183 231.77 19.2519L231.893 19.5808C231.758 19.6659 231.544 19.7179 231.36 19.7179C230.855 19.7179 230.679 19.4737 230.679 19.0631V18.257H230.281V17.9057H230.679V17.3693H231.11V17.9057H231.807V18.257ZM226.348 18.6342C226.393 18.379 226.565 18.205 226.869 18.205C227.144 18.205 227.32 18.3603 227.366 18.6342H226.348ZM227.808 18.7896C227.804 18.2384 227.427 17.8612 226.877 17.8612C226.303 17.8612 225.901 18.2384 225.901 18.7896C225.901 19.3513 226.32 19.7175 226.906 19.7175C227.201 19.7175 227.472 19.6511 227.71 19.4699L227.501 19.1849C227.336 19.3035 227.127 19.37 226.93 19.37C226.656 19.37 226.405 19.2552 226.344 18.9373H227.8C227.804 18.889 227.808 18.8412 227.808 18.7896ZM229.682 18.3569C229.564 18.2901 229.322 18.205 229.072 18.205C228.838 18.205 228.698 18.2829 228.698 18.4124C228.698 18.5305 228.846 18.5639 229.031 18.586L229.231 18.6118C229.658 18.6677 229.916 18.8302 229.916 19.1409C229.916 19.4775 229.588 19.7179 229.022 19.7179C228.702 19.7179 228.407 19.6438 228.173 19.4885L228.374 19.1888C228.518 19.2887 228.731 19.3738 229.027 19.3738C229.318 19.3738 229.473 19.2963 229.473 19.1591C229.473 19.0597 229.363 19.0038 229.129 18.9746L228.928 18.9487C228.489 18.8929 228.251 18.7155 228.251 18.4272C228.251 18.0759 228.571 17.8612 229.067 17.8612C229.379 17.8612 229.662 17.9243 229.867 18.0462L229.682 18.3569ZM234.942 18.2266C234.855 18.2266 234.773 18.2406 234.698 18.268C234.623 18.296 234.558 18.3349 234.502 18.3849C234.447 18.4348 234.405 18.4949 234.372 18.5648C234.341 18.6347 234.326 18.7117 234.326 18.7955C234.326 18.8797 234.341 18.9564 234.372 19.0262C234.405 19.096 234.447 19.1562 234.502 19.2061C234.558 19.2561 234.623 19.295 234.698 19.323C234.773 19.3509 234.855 19.3645 234.942 19.3645C235.03 19.3645 235.112 19.3509 235.187 19.323C235.262 19.295 235.328 19.2561 235.383 19.2061C235.439 19.1562 235.482 19.096 235.514 19.0262C235.545 18.9564 235.561 18.8797 235.561 18.7955C235.561 18.7117 235.545 18.6347 235.514 18.5648C235.482 18.4949 235.439 18.4348 235.383 18.3849C235.328 18.3349 235.262 18.296 235.187 18.268C235.112 18.2406 235.03 18.2266 234.942 18.2266ZM234.942 17.8612C235.094 17.8612 235.235 17.885 235.365 17.9328C235.495 17.9802 235.607 18.0458 235.701 18.1292C235.795 18.2126 235.869 18.3112 235.923 18.4246C235.976 18.5385 236.003 18.6621 236.003 18.7955C236.003 18.9288 235.976 19.0525 235.923 19.1663C235.869 19.2798 235.795 19.3789 235.701 19.4622C235.607 19.5456 235.495 19.6108 235.365 19.6587C235.235 19.7061 235.094 19.7298 234.942 19.7298C234.79 19.7298 234.649 19.7061 234.52 19.6587C234.39 19.6108 234.279 19.5456 234.185 19.4622C234.091 19.3789 234.018 19.2798 233.964 19.1663C233.91 19.0525 233.883 18.9288 233.883 18.7955C233.883 18.6621 233.91 18.5385 233.964 18.4246C234.018 18.3112 234.091 18.2126 234.185 18.1292C234.279 18.0458 234.39 17.9802 234.52 17.9328C234.649 17.885 234.79 17.8612 234.942 17.8612ZM223.857 18.7896C223.857 18.4788 224.082 18.2236 224.451 18.2236C224.803 18.2236 225.041 18.4679 225.041 18.7896C225.041 19.1113 224.803 19.3552 224.451 19.3552C224.082 19.3552 223.857 19.1003 223.857 18.7896ZM225.443 18.7896V17.9057H225.018V18.1203C224.882 17.9611 224.677 17.8612 224.398 17.8612C223.848 17.8612 223.418 18.2494 223.418 18.7896C223.418 19.3293 223.848 19.7179 224.398 19.7179C224.677 19.7179 224.882 19.618 225.018 19.4589V19.6735H225.443V18.7896ZM223.041 19.6735V18.5639C223.041 18.1461 222.745 17.8651 222.269 17.8612C222.019 17.8574 221.761 17.9277 221.58 18.1758C221.445 17.9798 221.231 17.8612 220.932 17.8612C220.723 17.8612 220.518 17.9167 220.358 18.1237V17.9057H219.932V19.6735H220.362V18.6935C220.362 18.3866 220.551 18.2236 220.842 18.2236C221.125 18.2236 221.269 18.3899 221.269 18.6897V19.6735H221.7V18.6935C221.7 18.3866 221.897 18.2236 222.179 18.2236C222.471 18.2236 222.61 18.3899 222.61 18.6897V19.6735H223.041Z" fill="#110F0D"/>
</svg>
