<svg width="16" height="17" viewBox="0 0 16 17" fill="none" xmlns="http://www.w3.org/2000/svg">
<g clip-path="url(#clip0_1139_1653)">
<path fill-rule="evenodd" clip-rule="evenodd" d="M5 7.67975C5 6.37806 5.01491 5.09626 5.42163 4.1303C5.61149 3.67938 5.87235 3.33922 6.23411 3.10307C6.59856 2.86516 7.14689 2.67975 7.99999 2.67975C8.8531 2.67975 9.40142 2.86516 9.76587 3.10307C10.1276 3.33922 10.3885 3.67938 10.5784 4.13031C10.9851 5.09626 11 6.37807 11 7.67975H5ZM13 7.67975L13 7.59366V7.59365C13.0004 6.40013 13.0009 4.72983 12.4216 3.35419C12.1115 2.61761 11.6224 1.92653 10.8591 1.42831C10.0986 0.931837 9.14689 0.679749 7.99999 0.679749C6.85309 0.679749 5.90142 0.931837 5.14087 1.42831C4.37763 1.92653 3.88849 2.61761 3.57836 3.35419C2.99915 4.72983 2.99963 6.40012 2.99998 7.59363L3 7.67975C2.44772 7.67975 2 8.12746 2 8.67975V15.6797C2 16.232 2.44772 16.6797 3 16.6797H13C13.5523 16.6797 14 16.232 14 15.6797V8.67975C14 8.12746 13.5523 7.67975 13 7.67975ZM9.5 12.1797C9.5 13.0082 8.82843 13.6797 8 13.6797C7.17157 13.6797 6.5 13.0082 6.5 12.1797C6.5 11.3513 7.17157 10.6797 8 10.6797C8.82843 10.6797 9.5 11.3513 9.5 12.1797Z" fill="#BDBDBD"/>
</g>
<defs>
<clipPath id="clip0_1139_1653">
<rect width="16" height="16.037" fill="white" transform="translate(0 0.679749)"/>
</clipPath>
</defs>
</svg>
