<svg width="88" height="49" viewBox="0 0 88 49" fill="none" xmlns="http://www.w3.org/2000/svg">
<path d="M68.0364 38.7852C56.7661 38.7852 45.4951 38.7852 34.2387 38.7993C34.0668 38.7993 33.8949 38.7852 33.7222 38.7852C33.9519 38.3462 34.3967 38.077 34.6542 37.6663C34.8693 37.3405 35.1561 37.2696 35.5292 37.2696C45.6955 37.2839 55.8479 37.2696 66.015 37.2696C66.5168 37.2696 67.0326 37.2839 67.5345 37.2696C68.2229 37.2414 68.8828 37.1422 69.4703 36.7597C69.4849 36.7597 69.4988 36.7597 69.5135 36.7456C69.6283 36.7456 69.7 36.7031 69.7571 36.604C69.8866 36.5615 70.0153 36.4907 70.1156 36.3773C70.2019 36.3773 70.259 36.3348 70.3021 36.2498C70.3168 36.2498 70.3307 36.2357 70.3453 36.2216C71.4493 35.3859 72.066 34.2952 72.1662 32.9214C72.2094 32.6523 72.2094 32.3973 72.1662 32.1282C72.2094 31.9299 72.1809 31.7457 72.0799 31.5758C72.066 31.5191 72.0514 31.4625 72.0514 31.3917C72.066 31.25 72.0514 31.1226 71.9512 31.0092C71.9365 30.9667 71.9226 30.9242 71.908 30.8676C71.9226 30.7401 71.8794 30.6409 71.7931 30.556C71.5641 29.862 71.1478 29.2812 70.5743 28.828L70.5604 28.8138C70.474 28.6722 70.3738 28.5589 70.2019 28.5164C70.2019 28.5022 70.1873 28.4881 70.1734 28.5022C69.3701 27.794 68.3948 27.5108 67.3479 27.5108C58.3141 27.4966 49.2803 27.5108 40.2612 27.5108C39.4008 27.5108 38.5258 27.5108 37.6655 27.5108C37.4797 26.3776 37.2214 25.2587 36.7766 24.1964C36.1599 22.7517 35.3712 21.4061 34.2533 20.273C34.2387 20.0039 34.1238 19.7489 34.2533 19.4799C35.271 19.4799 36.3033 19.4656 37.3217 19.4656C47.3307 19.4656 57.3397 19.4374 67.334 19.4799C71.0044 19.494 74.7327 21.7602 76.3393 25.5987C78.0454 29.692 76.1813 34.2386 73.7721 36.3632C72.9117 37.128 71.9226 37.6946 70.8611 38.1337C70.2875 38.3037 69.7285 38.4736 69.155 38.6294C69.0833 38.6436 69.0116 38.6436 68.9399 38.6577C68.6246 38.7002 68.3231 38.6861 68.0364 38.7852ZM52.7364 23.9981C52.765 24.0122 52.8081 24.0265 52.8367 24.0406C52.765 24.6921 52.6794 25.3437 52.6077 25.9952C52.5931 26.0943 52.536 26.2077 52.6933 26.2785C53.1666 26.4768 53.7972 26.1652 53.8689 25.6553C54.027 24.5505 54.1557 23.4316 54.2991 22.3126C54.3138 22.1851 54.3138 22.086 54.1418 22.086C53.6831 22.0718 53.2383 22.0576 52.9083 22.4825C52.5499 22.95 52.1343 23.3607 51.7327 23.7998C51.4312 24.1256 51.4312 24.1397 51.1738 23.7573C50.887 23.3324 50.6287 22.8933 50.3419 22.4543C50.1268 22.1285 49.5101 21.9444 49.1516 22.086C49.0653 22.1285 49.0514 22.1851 49.0367 22.256C48.8795 23.5166 48.7214 24.7771 48.5634 26.0236C48.5495 26.1368 48.5495 26.236 48.7068 26.2643C49.3813 26.4201 49.8254 26.1227 49.8971 25.4428C49.9403 25.032 49.9973 24.6213 50.0551 24.2106C50.069 24.1397 50.0405 24.0265 50.1985 23.9981C50.399 24.3664 50.6002 24.7346 50.8006 25.1029C51.1445 25.7403 51.274 25.7544 51.718 25.202C52.0626 24.8055 52.3926 24.4089 52.7364 23.9981ZM68.3948 26.3635C68.6099 26.3493 68.8111 26.3493 69.0262 26.321C70.087 26.1935 70.7038 25.6836 70.9042 24.7346C70.9759 24.3522 71.0337 23.9698 71.0476 23.5732C71.0908 22.7942 70.646 22.256 69.8719 22.0718C69.1696 21.9019 68.4665 21.916 67.7781 22.1001C67.176 22.2701 66.7173 22.61 66.5022 23.2191C66.3017 23.814 66.2154 24.4372 66.2586 25.0604C66.2871 25.4428 66.4737 25.7686 66.8322 25.9952C67.3194 26.2927 67.8498 26.3776 68.3948 26.3635ZM45.1366 26.3635C45.3232 26.3493 45.5097 26.3635 45.6955 26.3352C46.4988 26.2218 47.1873 25.9386 47.5026 25.1312C47.7323 24.5505 47.7894 23.9131 47.7462 23.2899C47.703 22.6809 47.2875 22.2418 46.6707 22.086C45.9538 21.9019 45.2229 21.9019 44.506 22.086C43.8175 22.2701 43.3442 22.6809 43.1576 23.3607C43.0288 23.8565 42.9572 24.3664 42.9572 24.8763C42.9572 25.3862 43.1861 25.7544 43.631 26.0094C44.1043 26.3068 44.6062 26.3776 45.1366 26.3635ZM57.1816 26.3635C57.4969 26.3635 57.7984 26.3635 58.099 26.2927C59.0743 26.0802 59.6047 25.4995 59.7195 24.508C59.7481 24.2531 59.7912 23.9981 59.8198 23.7432C59.9207 22.9075 59.4906 22.2984 58.6587 22.086C57.9418 21.9019 57.2101 21.9302 56.4932 22.1285C55.8764 22.2984 55.4324 22.695 55.2458 23.3182C55.0878 23.8423 55.0307 24.3947 55.0307 24.9471C55.0307 25.4287 55.2458 25.7828 55.6614 26.0377C56.1494 26.3068 56.6512 26.3635 57.1816 26.3635ZM62.7023 22.086C62.1719 22.086 61.7987 22.1001 61.4264 22.086C61.1535 22.0718 61.1103 22.1993 61.1681 22.4259C61.2398 22.6809 61.3971 22.8225 61.67 22.8225C62.1287 22.8225 62.5874 22.8083 63.0461 22.8367C63.7924 22.8933 64.1509 23.1483 64.0075 23.9556C63.9643 24.1539 63.9358 24.3664 63.9065 24.5646C63.8209 25.1312 63.6058 25.3437 63.0461 25.4712C62.7593 25.5278 62.4872 25.5278 62.2004 25.5278C61.9853 25.5278 61.9283 25.4287 61.9568 25.2304C62.0138 24.8763 62.0285 24.5221 62.0855 24.1822C62.2289 23.5023 61.9853 23.2049 61.182 23.2616C60.9962 23.2758 60.9384 23.3607 60.9099 23.5307C60.8235 24.2531 60.7379 24.9896 60.6377 25.7119C60.5945 26.0518 60.7518 26.2502 61.0679 26.2643C61.9707 26.2927 62.8742 26.3776 63.7631 26.1935C64.4515 26.0518 64.8964 25.6411 65.0683 24.9471C65.1685 24.508 65.2117 24.0547 65.2402 23.6015C65.2687 22.8933 64.9249 22.4684 64.2511 22.2418C63.706 22.0435 63.1178 22.1001 62.7023 22.086ZM41.3367 22.086V22.1001C40.9782 22.1001 40.6197 22.0718 40.2612 22.1001C39.5728 22.171 38.9707 22.4118 38.6122 23.0633C38.3539 23.5591 38.3401 24.0972 38.2822 24.6213C38.1967 25.4853 38.6122 26.0094 39.4725 26.1935C40.161 26.3352 40.8494 26.2643 41.5371 26.2643C41.7668 26.2643 41.9249 26.1368 42.039 25.9386C42.2255 25.5987 42.197 25.5278 41.7954 25.5137C41.2218 25.4995 40.6629 25.5562 40.0893 25.4853C39.6159 25.4145 39.4155 25.1737 39.4579 24.7063C39.4726 24.4089 39.5157 24.1256 39.5728 23.8423C39.7162 23.1341 40.0315 22.865 40.7631 22.8367C41.1362 22.8225 41.5086 22.8225 41.8671 22.8225C42.197 22.8225 42.3836 22.6525 42.527 22.3693C42.6125 22.171 42.5987 22.0718 42.3551 22.0718C42.0251 22.086 41.6805 22.086 41.3367 22.086Z" fill="#5FC503"/>
<path d="M15.7842 21.732C15.9846 21.5195 16.2429 21.3637 16.3716 21.0946C16.4148 21.0804 16.458 21.0804 16.4434 21.0238C16.4726 21.0096 16.5012 21.0096 16.515 20.9954C16.845 20.7405 17.1603 20.4855 17.4903 20.2306C17.9351 19.9473 18.3653 19.664 18.8093 19.3807C19.3829 19.14 19.9426 18.8992 20.5162 18.6584C20.7313 18.6584 20.9317 18.5592 21.1183 18.4884C21.4336 18.4176 21.7635 18.3468 22.0789 18.2618C22.3086 18.1627 22.5668 18.2759 22.7958 18.2052C23.3409 18.1627 23.8859 18.106 24.431 18.0635C24.5597 18.1627 24.7177 18.1202 24.8465 18.1343C25.4771 18.2052 26.0939 18.2759 26.7253 18.3468C27.241 18.4884 27.7429 18.6301 28.2594 18.7717C28.4745 18.8992 28.7035 18.9842 28.9479 19.055C29.3487 19.2675 29.7365 19.4657 30.1374 19.6782C30.4242 19.9331 30.7688 20.0889 31.0841 20.3155C31.3138 20.4997 31.5428 20.6697 31.7725 20.8538C32.6329 21.647 33.393 22.5251 34.0383 23.5024C34.2958 23.984 34.5402 24.4797 34.7977 24.9613C34.7977 25.0463 34.827 25.1171 34.884 25.1596C34.884 25.1738 34.884 25.1879 34.8987 25.2021C35.0991 25.8537 35.2857 26.5052 35.4861 27.1426C35.5293 27.4541 35.5863 27.7799 35.6295 28.0915C35.658 28.3607 35.6727 28.6298 35.7012 28.8988C35.6727 29.5646 35.6442 30.2161 35.6156 30.8818C35.5293 31.0518 35.5293 31.2218 35.5293 31.4059C35.3574 31.4483 35.4144 31.5758 35.4291 31.6892C35.3859 31.7883 35.2996 31.8591 35.3574 31.9866C35.3288 32.0857 35.2995 32.1849 35.2857 32.284C34.9989 31.9582 34.7838 32.2699 34.5402 32.369C34.884 30.9527 35.0845 29.5221 34.8694 28.0632C34.5109 25.6129 33.4647 23.5024 31.6291 21.7745C29.6502 19.9048 27.2842 18.9558 24.5744 18.8283C23.2406 18.7717 21.9354 18.9842 20.6881 19.4374C17.7485 20.4997 15.6262 22.4543 14.3788 25.2871C13.5755 27.1142 13.3465 29.0263 13.6618 31.0093C13.7482 31.5617 13.9201 32.0999 13.9918 32.6523C13.8623 32.4824 13.705 32.3549 13.4753 32.4681C13.3319 32.539 13.318 32.3549 13.2031 32.3549C13.1885 32.3124 13.1885 32.2699 13.1746 32.2274C13.2748 32.1424 13.217 32.0999 13.1314 32.0716C13.0736 31.8875 13.0312 31.6892 12.9734 31.5051C12.9163 31.1651 12.8732 30.8252 12.8161 30.4853C12.8161 30.2303 12.83 29.9895 12.7583 29.7345C12.7868 28.9838 12.83 28.2332 12.9163 27.4825C13.0451 26.9726 13.1746 26.4627 13.3033 25.9528C13.4036 25.6837 13.5038 25.4145 13.6048 25.1454C13.8199 24.7064 14.0488 24.2673 14.2639 23.8282C14.4505 23.5449 14.637 23.2475 14.8236 22.9642C14.967 22.7659 15.1243 22.5818 15.2677 22.3835C15.4396 22.1285 15.6123 21.9302 15.7842 21.732Z" fill="#21291E"/>
<path d="M32.9627 39.012C32.4462 39.621 31.7292 39.9751 31.0269 40.3292C30.9837 39.8334 30.525 39.5785 30.3523 39.1678C30.3238 39.1111 30.195 39.0545 30.1233 39.1111C29.9083 39.2386 29.6353 39.3094 29.4781 39.5219C29.2052 39.5644 28.9615 39.6493 28.7326 39.8193C28.3309 39.9609 27.9439 40.1026 27.5423 40.2442C27.227 40.2726 26.9402 40.4001 26.6534 40.485C26.409 40.4283 26.1654 40.5275 25.9364 40.57C25.5201 40.655 25.0761 40.5417 24.6744 40.7258C23.9289 40.6691 23.1826 40.6125 22.4372 40.5558C21.8204 40.4142 21.1752 40.3433 20.5877 40.1167C20.2863 40.0176 19.9995 39.9043 19.6988 39.8052C19.4405 39.6493 19.1823 39.4935 18.8808 39.4369C18.6519 39.0969 18.2071 39.0969 17.9203 38.8561C17.7337 38.6012 17.4616 38.4737 17.1748 38.3462C17.1748 38.2188 17.0884 38.1621 16.9882 38.1055C16.9165 38.063 16.8163 38.0063 16.8448 37.9213C16.8733 37.7938 17.0029 37.8506 17.1031 37.8363C17.2611 37.8081 17.4184 37.893 17.5618 37.7656C17.605 37.7656 17.662 37.7656 17.7052 37.7656C17.8054 37.8222 17.8918 37.8788 17.992 37.9355C20.7743 39.8477 23.7994 40.4 27.0836 39.5785C28.0727 39.3235 28.9762 38.8845 29.8797 38.4171C29.9514 38.4171 30.0085 38.4029 30.0231 38.3321C30.0516 38.3037 30.0802 38.2896 30.1087 38.2613C30.2667 38.1055 30.4533 37.9922 30.6537 37.893C30.7108 37.8788 30.754 37.8647 30.7825 37.8081C30.8257 37.7797 30.8688 37.7372 30.912 37.7089C31.0554 37.8222 31.242 37.8363 31.4139 37.8506C31.7007 37.8788 31.9296 37.9638 32.1447 38.233C32.3313 38.5304 32.4747 38.9978 32.9627 39.012Z" fill="#E7EAE5"/>
<path d="M14.8372 19.7915C14.6938 19.9756 14.5936 20.2022 14.3638 20.3014C14.2783 20.2164 14.3068 20.1314 14.3068 20.0464C14.2922 18.5734 14.3068 17.1003 14.3068 15.6273C14.3068 12.3271 16.8308 8.26208 20.344 6.9165C20.344 6.97316 20.344 7.02982 20.344 7.10063C19.9423 7.32726 19.4836 7.49723 19.1251 7.76634C18.1352 8.54535 17.1747 9.38102 16.4723 10.4858C16.1424 11.0099 15.8271 11.5339 15.5973 12.1146C15.2103 12.837 15.0669 13.6302 14.8804 14.4092C14.7516 15.259 14.7085 16.1089 14.7516 16.9728C14.7655 17.6386 14.7655 18.3043 14.794 18.9699C14.794 19.2391 14.7516 19.5082 14.8372 19.7915Z" fill="#696969"/>
<path d="M34.2239 19.4799C34.0951 19.7489 34.21 20.0039 34.2239 20.273C34.2239 20.3722 34.21 20.4713 34.21 20.5846C33.9086 20.5279 33.7937 20.3013 33.6796 20.0605C33.7513 19.3949 33.7081 18.7291 33.7081 18.0634C33.722 17.596 33.7081 17.1145 33.7513 16.6471C33.8083 16.0663 33.7366 15.4856 33.6503 14.9049C33.5216 13.9417 33.335 13.0069 32.9048 12.1288C32.3173 10.8682 31.6142 9.69258 30.5673 8.77193C30.1233 8.3895 29.6646 8.02124 29.2051 7.65298C29.2344 7.62465 29.2629 7.59632 29.2914 7.55383C31.0838 8.53114 32.3598 9.97586 33.1916 11.803C33.823 13.1769 34.1815 14.6216 34.1236 16.1513C34.0951 17.1286 34.1236 18.1059 34.1236 19.0691C34.1383 19.2107 34.0951 19.3665 34.2239 19.4799Z" fill="#696969"/>
<path d="M12.9303 27.44C12.8447 28.1907 12.7869 28.9413 12.773 29.692C12.0699 29.7204 11.3815 29.7487 10.6792 29.777C10.6075 29.0688 10.7077 28.3607 10.7362 27.6666C10.8372 27.6383 10.9228 27.6099 10.794 27.5108C10.8226 27.4116 10.8372 27.3125 10.8657 27.2134C11.2674 27.2134 11.6683 27.2275 12.0699 27.3266C12.3428 27.3975 12.6296 27.4541 12.9303 27.44Z" fill="#9C9C9C"/>
<path d="M14.8375 19.7915C14.7519 19.5224 14.809 19.2391 14.7943 18.9558C14.7805 18.2901 14.7658 17.6244 14.752 16.9587C15.0241 16.9162 15.2538 16.8312 15.2392 16.4913C15.2106 15.7406 15.3109 14.9899 15.4689 14.2534C15.4543 14.0126 15.6547 13.8285 15.6262 13.5877C15.684 13.5593 15.6979 13.5027 15.6979 13.4461C15.8844 12.8087 16.1998 12.228 16.4434 11.6189C16.6161 11.4631 16.6877 11.2223 16.8165 11.024C16.8882 10.9957 16.9745 10.9532 16.9599 11.0948C16.8735 11.2506 16.8018 11.4206 16.7163 11.5764C16.3146 12.4404 15.9993 13.3327 15.8413 14.2676C15.583 15.8398 15.7125 17.4261 15.7125 18.9983C15.6123 19.3524 15.196 19.4232 15.0241 19.7065C14.9524 19.749 14.8953 19.7631 14.8375 19.7915Z" fill="#9C9C9C"/>
<path d="M13.1743 32.1991C13.1882 32.2416 13.1882 32.2841 13.2029 32.3266C13.246 32.794 13.5035 33.2048 13.6184 33.6579C13.4318 33.7571 13.2167 33.8279 13.0016 33.8988C12.5291 34.0687 12.1274 34.3803 11.597 34.3945C11.2671 33.8563 11.1375 33.2472 11.0088 32.6381C11.1954 32.6381 11.3673 32.6099 11.5538 32.5815C12.0696 32.4682 12.5576 32.2132 13.1026 32.1991H13.1311H13.1743Z" fill="#D9D9D9"/>
<path d="M12.9303 27.44C12.6296 27.4683 12.3428 27.3975 12.056 27.3267C11.6544 27.2275 11.2527 27.2275 10.8511 27.2134C10.8942 26.6893 11.0091 26.1794 11.181 25.6837C11.3822 25.6553 11.3676 25.2729 11.6544 25.4145C11.9558 25.5704 12.2996 25.5562 12.615 25.712C12.8162 25.8112 13.0451 25.9386 13.3034 25.8962C13.1885 26.4202 13.0598 26.9301 12.9303 27.44Z" fill="#B1B1B1"/>
<path d="M15.0093 19.7349C15.182 19.4374 15.5975 19.3807 15.6977 19.0267C15.9275 19.0408 16.0423 18.8426 16.1996 18.7434C16.3291 18.7292 16.4432 18.7292 16.5727 18.7151C17.1031 19.0833 17.4331 19.5791 17.4763 20.2306C17.1463 20.4855 16.831 20.7405 16.501 20.9954C16.4864 20.9104 16.501 20.8113 16.3862 20.7972C16.3576 20.7972 16.3291 20.8255 16.2998 20.8397C16.343 20.8963 16.3862 20.9529 16.4147 21.0096C16.4293 21.0663 16.3862 21.0804 16.343 21.0804C15.7555 20.7972 15.4395 20.2023 15.0093 19.7349Z" fill="#F1F1F1"/>
<path d="M14.2783 23.7857C14.0632 24.2248 13.8335 24.6639 13.6184 25.103C13.4319 25.1313 13.3031 24.9897 13.1451 24.933C12.6578 24.7631 12.1706 24.5506 11.6826 24.3665C11.826 23.7999 12.1128 23.3042 12.4428 22.8368C12.6864 22.8509 12.9015 22.9501 13.1165 23.0917C13.475 23.3325 13.8767 23.5449 14.2783 23.7857Z" fill="#C9C9C9"/>
<path d="M22.4372 40.5558C23.1827 40.6124 23.9289 40.6691 24.6744 40.7258C24.6027 41.179 24.7176 41.6181 24.7315 42.0713C23.8711 42.1138 22.9969 42.1138 22.1504 41.9721C22.2506 41.5047 22.1789 41.0091 22.4372 40.5558Z" fill="#888888"/>
<path d="M32.9625 39.0118C32.4606 38.9976 32.3311 38.5302 32.1021 38.2469C31.887 37.9778 31.6573 37.8928 31.3705 37.8645C31.184 37.8504 31.012 37.8362 30.8687 37.7229C31.0267 37.5954 31.184 37.4679 31.3559 37.3263C31.9294 37.3688 32.4745 37.3546 32.8908 36.873C33.22 37.2838 33.6502 37.5954 34.0087 37.9778C34.0233 38.1337 33.9231 38.2328 33.8229 38.3461C33.7219 38.4594 33.5646 38.5302 33.55 38.7143C33.2917 38.686 33.1915 38.9551 32.9625 39.0118Z" fill="#E3E3E3"/>
<path d="M22.4368 40.5557C22.1785 40.9948 22.2502 41.5047 22.15 41.9862C21.433 41.9437 20.7446 41.788 20.0708 41.5755C20.2574 41.0939 20.3576 40.584 20.5873 40.1166C21.1748 40.3433 21.8201 40.414 22.4368 40.5557Z" fill="#9C9C9C"/>
<path d="M14.2065 38.3604C13.9482 38.2188 13.8049 37.9496 13.4895 37.8221C13.1449 37.6805 13.1881 37.0431 13.5034 36.8165C13.6468 36.7173 13.7763 36.6041 13.9051 36.4907C14.1348 36.2783 14.1348 36.2783 14.9805 36.08C15.0237 36.08 15.0522 36.0942 15.0954 36.0942C15.1671 36.4341 15.4824 36.5899 15.6836 36.8307C15.6836 36.8732 15.6975 36.9298 15.6975 36.9723C15.0954 37.1565 14.7801 37.7371 14.2782 38.0629C14.1633 38.1054 14.2065 38.247 14.2065 38.3604Z" fill="#F1F1F1"/>
<path d="M24.7311 42.0855C24.7311 41.6323 24.6024 41.1932 24.6741 40.7399C25.0757 40.5558 25.5198 40.655 25.9361 40.5841C26.165 40.5416 26.4087 40.4566 26.653 40.4991C26.6669 40.57 26.6816 40.6408 26.6954 40.7116C26.7101 41.094 26.9969 41.4482 26.8103 41.8589C26.1219 42.0006 25.4342 42.0855 24.7311 42.0855Z" fill="#9C9C9C"/>
<path d="M17.5481 37.7655C17.4186 37.8929 17.2467 37.8221 17.0887 37.8363C17.0031 37.8505 16.8736 37.7938 16.8312 37.9213C16.8019 38.0063 16.9029 38.0629 16.9746 38.1054C17.0748 38.162 17.1603 38.2187 17.1603 38.3462C17.0462 38.3462 16.9167 38.3179 16.845 38.417C16.5151 38.8278 16.2144 39.2527 15.8844 39.6776C15.4974 39.621 15.2962 39.281 14.9955 39.0827C14.9809 38.9269 15.0526 38.8136 15.1675 38.7428C15.5113 38.502 15.7264 38.1479 16.0132 37.8505C16.1712 37.6805 16.1859 37.5247 16.1142 37.3264C16.6014 37.3547 17.0886 37.3547 17.5049 37.6805H17.5335C17.562 37.7088 17.5481 37.7371 17.5481 37.7655Z" fill="#E3E3E3"/>
<path d="M17.9064 38.8702C18.207 39.1111 18.6372 39.1111 18.8669 39.451C18.8808 39.5785 18.8091 39.6634 18.7374 39.7767C18.5085 40.145 18.2649 40.4991 18.1932 40.9382C17.7198 40.839 17.3035 40.6265 16.9312 40.3433C17.0028 39.6776 17.5186 39.3093 17.9064 38.8702Z" fill="#C9C9C9"/>
<path d="M16.1281 37.3265C16.1998 37.5248 16.1859 37.6664 16.0278 37.8506C15.741 38.148 15.5259 38.5021 15.1821 38.7429C15.0672 38.8279 14.9955 38.9412 15.0094 39.0828C14.7519 38.8279 14.4073 38.6579 14.1922 38.3463C14.1922 38.233 14.1637 38.1055 14.2639 38.0347C14.7805 37.7231 15.0811 37.1423 15.684 36.9441C15.8413 37.0857 15.9847 37.2132 16.1281 37.3265Z" fill="#E7EAE5"/>
<path d="M12.815 30.4426C12.8728 30.7826 12.9152 31.1225 12.973 31.4624C12.586 31.4483 12.2129 31.5191 11.8397 31.5899C11.5106 31.6466 11.2091 31.7882 10.8653 31.7599C10.6926 31.3633 10.7219 30.9242 10.6787 30.5135C10.8075 30.5985 10.8653 30.7826 11.0942 30.7401C11.6678 30.6268 12.2414 30.5418 12.815 30.4426Z" fill="#BCBCBC"/>
<path d="M11.6687 24.3523C12.1559 24.5506 12.6431 24.7489 13.1311 24.9188C13.2884 24.9755 13.4179 25.1313 13.6045 25.0888C13.5035 25.358 13.4033 25.627 13.3031 25.8961C13.0448 25.9386 12.8158 25.8111 12.6146 25.712C12.2993 25.5562 11.9555 25.5704 11.654 25.4146C11.3672 25.2588 11.3672 25.6554 11.1807 25.6837C11.2955 25.2305 11.4243 24.7631 11.6687 24.3523Z" fill="#BCBCBC"/>
<path d="M17.9067 38.8703C17.519 39.3094 17.0032 39.6918 16.9454 40.3433C16.5445 40.2158 16.1999 39.9892 15.9131 39.6918C16.2284 39.2669 16.5445 38.842 16.8737 38.4312C16.9454 38.3321 17.0749 38.3746 17.1898 38.3604C17.4473 38.4737 17.7202 38.6153 17.9067 38.8703Z" fill="#D9D9D9"/>
<path d="M14.3067 35.0461C13.9197 35.2869 13.518 35.5135 13.1449 35.7826C12.5143 36.2358 12.1126 36.0659 11.9839 35.2727C12.1843 35.2444 12.3562 35.1311 12.5143 35.0461C12.9591 34.777 13.4749 34.6353 13.8619 34.2671C14.0053 34.5362 14.2204 34.7486 14.3067 35.0461Z" fill="#F1F1F1"/>
<path d="M15.7842 21.732C15.6122 21.9302 15.4396 22.1285 15.2677 22.3269C14.8375 22.2844 14.5075 22.0294 14.2068 21.7461C13.9771 21.5337 13.7188 21.3778 13.3896 21.4203C13.4899 21.1654 13.6903 20.9813 13.8622 20.7829C14.0488 20.5847 14.2207 20.4855 14.5368 20.7263C14.8953 21.0096 15.1528 21.3778 15.5405 21.6186C15.6261 21.6753 15.6978 21.732 15.7842 21.732Z" fill="#F1F1F1"/>
<path d="M27.5562 40.2584C27.9578 40.1167 28.3448 39.9751 28.7465 39.8335C28.7465 40.0035 28.8043 40.1451 28.876 40.2867C29.0333 40.5841 29.1767 40.8674 29.1196 41.2215C28.7465 41.3915 28.3595 41.5473 27.9293 41.6039C27.8722 41.1224 27.5708 40.7258 27.5562 40.2584Z" fill="#BCBCBC"/>
<path d="M14.2785 23.7858C13.8914 23.5592 13.4898 23.3468 13.1167 23.0918C12.9016 22.9502 12.7011 22.851 12.4429 22.8369C12.5577 22.5253 12.7443 22.2704 12.9594 22.0295C13.2315 22.1995 13.533 22.3411 13.8051 22.497C14.1204 22.6811 14.4219 22.9502 14.8374 22.9219C14.6369 23.2052 14.4504 23.4884 14.2785 23.7858Z" fill="#D9D9D9"/>
<path d="M12.8159 30.4427C12.2423 30.5419 11.6688 30.6268 11.0952 30.7402C10.8655 30.7827 10.8223 30.5985 10.6789 30.5135C10.6357 30.2728 10.6357 30.0178 10.665 29.777C11.3673 29.7486 12.0558 29.7204 12.7581 29.692C12.8298 29.947 12.8159 30.1878 12.8159 30.4427Z" fill="#B1B1B1"/>
<path d="M10.8657 31.7601C11.2095 31.7884 11.5256 31.6468 11.8409 31.5901C12.2133 31.5193 12.5864 31.4484 12.9734 31.4627C13.0313 31.6468 13.0736 31.8451 13.1315 32.0292C13.1315 32.0858 13.1168 32.1283 13.1168 32.185C12.5718 32.1991 12.0845 32.4682 11.568 32.5674C11.3822 32.6099 11.2095 32.6241 11.0237 32.6241C10.9227 32.355 10.851 32.0717 10.8657 31.7601Z" fill="#C9C9C9"/>
<path d="M13.862 34.2671C13.475 34.6353 12.9592 34.7911 12.5144 35.046C12.3425 35.1452 12.1844 35.2585 11.984 35.2726C11.7974 35.0036 11.6687 34.7203 11.6108 34.3945C12.1274 34.3803 12.5429 34.0687 13.0163 33.8988C13.2167 33.8279 13.4318 33.7572 13.633 33.658C13.7047 33.7996 13.7903 33.9554 13.862 34.0971C13.862 34.1537 13.862 34.2104 13.862 34.2671Z" fill="#E7EAE5"/>
<path d="M14.8231 22.9075C14.4068 22.9358 14.1061 22.6668 13.79 22.4826C13.5033 22.3126 13.2165 22.1851 12.9443 22.0152C13.0446 21.7744 13.1879 21.5761 13.3892 21.4345C13.7184 21.3778 13.9627 21.5478 14.2064 21.7602C14.5217 22.0294 14.837 22.2843 15.2672 22.341C15.1238 22.5251 14.9804 22.7234 14.8231 22.9075Z" fill="#E7EAE5"/>
<path d="M18.207 40.924C18.2934 40.4849 18.5223 40.1309 18.7521 39.7626C18.8238 39.6634 18.8808 39.5642 18.8808 39.4368C19.1823 39.4793 19.4405 39.6351 19.6988 39.8051C19.6556 40.0317 19.4976 40.2158 19.4259 40.4283C19.3256 40.7257 19.1105 40.9948 19.1822 41.3205C18.8384 41.2356 18.4938 41.1506 18.207 40.924Z" fill="#BCBCBC"/>
<path d="M29.1048 41.2074C29.1626 40.8674 29.0046 40.57 28.8612 40.2726C28.7895 40.131 28.7324 39.9893 28.7324 39.8193C28.9475 39.6493 29.205 39.5643 29.4779 39.5219C29.8796 39.8476 30.1664 40.2301 30.2088 40.7542C29.8503 40.9099 29.5064 41.1366 29.1048 41.2074Z" fill="#C9C9C9"/>
<path d="M19.1823 41.3348C19.1106 40.9948 19.3257 40.7257 19.4259 40.4424C19.4976 40.23 19.6557 40.0458 19.6989 39.8192C19.9995 39.9183 20.2863 40.0317 20.5878 40.1308C20.358 40.5982 20.2578 41.1081 20.0712 41.5897C19.7413 41.5614 19.4691 41.448 19.1823 41.3348Z" fill="#B1B1B1"/>
<path d="M27.5561 40.2583C27.5707 40.7257 27.8722 41.1223 27.9292 41.5897C27.5707 41.7172 27.1976 41.8305 26.8106 41.8588C27.0118 41.4622 26.725 41.0939 26.6957 40.7116C26.6957 40.6407 26.6672 40.5699 26.6533 40.4991C26.954 40.4141 27.2408 40.2724 27.5561 40.2583Z" fill="#B1B1B1"/>
<path d="M30.2089 40.7682C30.1518 40.2441 29.8797 39.8475 29.478 39.536C29.6353 39.3093 29.9082 39.2526 30.1233 39.1252C30.2089 39.0827 30.3237 39.1252 30.3523 39.1818C30.5388 39.5926 30.9836 39.8617 31.0268 40.3433C30.7824 40.5133 30.5388 40.6974 30.2089 40.7682Z" fill="#D9D9D9"/>
<path d="M13.862 34.267C13.862 34.2104 13.8481 34.1537 13.8481 34.1112C14.0918 34.3379 14.4071 34.3379 14.7085 34.3379C14.9375 34.6211 15.124 34.9328 15.2535 35.2727C14.9953 35.3718 14.737 35.1027 14.4788 35.301C14.3639 35.2585 14.3639 35.131 14.2922 35.0602C14.2205 34.7486 14.0054 34.5361 13.862 34.267Z" fill="#888888"/>
<path d="M14.4937 35.2869C14.7519 35.1027 15.0094 35.3576 15.2677 35.2585C15.583 35.4993 15.7696 35.8392 15.9847 36.1508C15.6979 36.0375 15.3972 35.995 15.0958 36.0942C15.0526 36.0942 15.0241 36.08 14.9809 36.08C14.8375 35.7968 14.5939 35.5843 14.4937 35.2869Z" fill="#9C9C9C"/>
<path d="M23.6992 6.15164C24.0145 5.99583 24.3445 6.06666 24.6745 6.08082C25.6782 6.15164 26.6534 6.39242 27.5994 6.71819C27.6425 6.73235 27.6711 6.77484 27.6996 6.80317C27.6996 6.84567 27.6996 6.874 27.6996 6.91649C26.409 6.43491 25.0761 6.19413 23.6992 6.25078C23.6992 6.23662 23.6992 6.19413 23.6992 6.15164Z" fill="#9C9C9C"/>
<path d="M23.6993 6.15161C23.6993 6.19411 23.6993 6.2366 23.6993 6.27909C23.3408 6.32158 22.9676 6.36407 22.6092 6.40656C22.0071 6.47739 21.462 6.7465 20.8884 6.85981C20.846 6.78899 20.7743 6.78899 20.7026 6.76067C21.3479 6.42073 22.0649 6.32158 22.7818 6.19411C22.9823 6.16578 23.1974 6.15161 23.3978 6.13745C23.4557 6.20827 23.4988 6.19411 23.5412 6.12329C23.599 6.13745 23.6422 6.13745 23.6993 6.15161Z" fill="#888888"/>
<path d="M27.6992 6.9307C27.6992 6.8882 27.6992 6.85987 27.6992 6.81738C28.1872 6.94486 28.6313 7.14315 29.0476 7.42643C29.0191 7.46893 28.9759 7.49725 28.9474 7.53974C28.5311 7.32728 28.1155 7.12899 27.6992 6.9307Z" fill="#888888"/>
<path d="M28.9473 7.52555C28.9758 7.48305 29.019 7.45472 29.0475 7.41223C29.1192 7.45472 29.2048 7.49721 29.2765 7.53971C29.2479 7.56804 29.2194 7.59637 29.1909 7.62469C29.1192 7.61053 29.0328 7.56804 28.9473 7.52555Z" fill="#696969"/>
<path d="M20.3579 7.08647C20.3579 7.02981 20.3579 6.97316 20.3579 6.90234C20.3864 6.84569 20.4443 6.83152 20.5013 6.84569C20.5013 6.90234 20.5013 6.95899 20.516 7.02981C20.4728 7.08647 20.4157 7.08647 20.3579 7.08647Z" fill="#888888"/>
<path d="M23.5413 6.12343C23.4989 6.19424 23.4558 6.20841 23.3979 6.13759C23.4411 6.08094 23.4989 6.08094 23.5413 6.12343Z" fill="#9C9C9C"/>
<path d="M20.5012 7.02985C20.5012 6.97319 20.5012 6.91654 20.4873 6.84571C20.5297 6.83155 20.559 6.81739 20.6014 6.80322C20.6307 6.83155 20.6592 6.87404 20.6877 6.90237C20.6307 6.94487 20.5729 6.98736 20.5012 7.02985Z" fill="#696969"/>
<path d="M10.7792 27.5109C10.9087 27.61 10.8224 27.6383 10.7222 27.6666C10.7222 27.61 10.7222 27.5534 10.7792 27.5109Z" fill="#B1B1B1"/>
<path d="M20.7026 6.76074C20.7743 6.78907 20.846 6.78907 20.8884 6.85989C20.8313 6.87406 20.7743 6.88822 20.7164 6.90238C20.6879 6.87406 20.6594 6.83156 20.6309 6.80323C20.6447 6.78907 20.6733 6.7749 20.7026 6.76074Z" fill="#696969"/>
<path d="M52.7363 23.9982C52.4063 24.3948 52.0763 24.8056 51.7472 25.2021C51.3023 25.7545 51.1736 25.7404 50.829 25.103C50.6285 24.7347 50.4273 24.3523 50.2268 23.9982C50.0688 24.0266 50.0981 24.1398 50.0835 24.2107C50.0264 24.6215 49.9686 25.0322 49.9254 25.4429C49.8537 26.1228 49.4097 26.4203 48.7359 26.2644C48.5778 26.2219 48.5778 26.137 48.5925 26.0237C48.7497 24.7631 48.9078 23.5025 49.0651 22.2561C49.0797 22.1852 49.0797 22.1286 49.1799 22.0861C49.5245 21.9445 50.1552 22.1286 50.3702 22.4544C50.657 22.8793 50.9153 23.3184 51.2021 23.7574C51.4604 24.1398 51.4603 24.1398 51.761 23.7999C52.148 23.3609 52.5643 22.9359 52.9367 22.4827C53.2667 22.0578 53.7115 22.072 54.1702 22.0861C54.3282 22.0861 54.3421 22.1852 54.3282 22.3127C54.1848 23.4317 54.0553 24.5365 53.8981 25.6554C53.8264 26.1653 53.195 26.4769 52.7216 26.2786C52.5643 26.2078 52.6214 26.0945 52.636 25.9953C52.7077 25.3438 52.7933 24.6922 52.865 24.0407C52.7933 24.0266 52.7648 24.0124 52.7363 23.9982Z" fill="#F6FCEC"/>
<path d="M68.3952 26.3637C67.8362 26.3778 67.3197 26.2928 66.8325 25.9954C66.474 25.7829 66.2874 25.4571 66.2589 25.0606C66.2157 24.4373 66.3021 23.8142 66.5025 23.2193C66.7176 22.6102 67.1763 22.2702 67.7784 22.1003C68.4668 21.9162 69.1699 21.902 69.8722 22.072C70.6463 22.2561 71.0911 22.7944 71.0479 23.5733C71.034 23.9558 70.9762 24.3523 70.9045 24.7348C70.718 25.6696 70.102 26.1795 69.0265 26.3212C68.8253 26.3494 68.6102 26.3494 68.3952 26.3637ZM68.4668 25.6129C69.0982 25.6129 69.4706 25.3721 69.6286 24.8622C69.7574 24.4232 69.8005 23.9558 69.8152 23.4884C69.8291 23.2334 69.7289 23.0068 69.4991 22.8651C68.9402 22.4686 67.9218 22.7801 67.6782 23.4175C67.5348 23.7999 67.5209 24.2107 67.4777 24.6073C67.4346 25.358 67.6928 25.6271 68.4668 25.6129Z" fill="#F6FCEC"/>
<path d="M45.1364 26.3636C44.606 26.3777 44.1042 26.3069 43.6308 26.0378C43.186 25.7829 42.957 25.4004 42.957 24.9047C42.957 24.3948 43.0287 23.8849 43.1575 23.3892C43.344 22.7093 43.8174 22.2844 44.5058 22.1144C45.2228 21.9303 45.9536 21.9161 46.6706 22.1144C47.2873 22.2702 47.7029 22.7093 47.746 23.3183C47.7892 23.9416 47.7175 24.5647 47.5024 25.1596C47.201 25.967 46.4987 26.2503 45.6954 26.3636C45.5096 26.3636 45.323 26.3636 45.1364 26.3636ZM45.1796 25.6129C45.8102 25.6129 46.1972 25.3721 46.3406 24.848C46.4555 24.409 46.5133 23.9699 46.5272 23.5167C46.5418 23.2758 46.4701 23.0493 46.2689 22.8934C45.6815 22.426 44.5629 22.7659 44.3763 23.4883C44.2761 23.8424 44.2475 24.2107 44.2044 24.5647C44.118 25.3579 44.3763 25.627 45.1796 25.6129Z" fill="#F6FCEC"/>
<path d="M57.1814 26.3636C56.651 26.3777 56.1492 26.3068 55.6905 26.0378C55.2742 25.7828 55.0591 25.4287 55.0591 24.9471C55.0591 24.3947 55.1169 23.8423 55.2742 23.3183C55.4607 22.6951 55.9056 22.2985 56.5215 22.1285C57.2385 21.9302 57.9555 21.9019 58.6871 22.086C59.5189 22.2985 59.9491 22.9075 59.8489 23.7432C59.8196 23.9982 59.7772 24.2531 59.7479 24.5081C59.6338 25.4995 59.1026 26.0802 58.1282 26.2927C57.7982 26.3493 57.4968 26.3636 57.1814 26.3636ZM57.2678 25.627C57.8984 25.627 58.2716 25.3862 58.4288 24.8621C58.5722 24.4089 58.6007 23.9273 58.6007 23.4599C58.6007 23.2333 58.529 23.035 58.3286 22.8934C57.7265 22.4685 56.6511 22.8084 56.4645 23.5166C56.3781 23.8423 56.3496 24.1823 56.2926 24.5222C56.1777 25.3013 56.4645 25.627 57.2678 25.627Z" fill="#F6FCEC"/>
<path d="M62.7022 22.086C63.1177 22.1002 63.706 22.0435 64.2649 22.2419C64.9395 22.4684 65.2833 22.8934 65.2548 23.6016C65.2401 24.0548 65.1969 24.508 65.0828 24.9471C64.9101 25.6412 64.4661 26.0519 63.7777 26.1936C62.8888 26.3777 61.9852 26.2927 61.0817 26.2643C60.7517 26.2502 60.6084 26.0519 60.6515 25.712C60.7518 24.9896 60.8381 24.2531 60.9244 23.5307C60.9383 23.3608 60.9961 23.2758 61.1966 23.2617C61.9999 23.2049 62.2289 23.5024 62.1001 24.1823C62.0284 24.5222 62.0138 24.8905 61.9706 25.2304C61.9421 25.4287 61.9999 25.5278 62.215 25.5278C62.5018 25.5278 62.7886 25.5278 63.0607 25.4712C63.6196 25.3437 63.8208 25.1313 63.9211 24.5647C63.9496 24.3664 63.9781 24.154 64.0213 23.9557C64.1647 23.1483 63.8062 22.8934 63.0607 22.8367C62.602 22.8084 62.1433 22.8225 61.6838 22.8225C61.4117 22.8225 61.2536 22.6809 61.1819 22.426C61.1249 22.1994 61.1681 22.0719 61.4402 22.086C61.7987 22.1002 62.1718 22.086 62.7022 22.086Z" fill="#F6FCEC"/>
<path d="M41.3366 22.0861C41.6804 22.0861 42.025 22.0861 42.3689 22.0861C42.6125 22.0861 42.6418 22.1852 42.5408 22.3835C42.412 22.6668 42.2116 22.8368 41.8816 22.8368C41.5085 22.8368 41.1362 22.8368 40.7777 22.8509C40.0607 22.8793 39.7307 23.1484 39.5874 23.8566C39.5295 24.1398 39.501 24.4372 39.4725 24.7205C39.4439 25.188 39.6305 25.4288 40.1031 25.4995C40.6628 25.5845 41.2364 25.5279 41.81 25.5279C42.197 25.5279 42.2401 25.5987 42.0536 25.9528C41.9387 26.1511 41.7814 26.2786 41.5517 26.2786C40.8633 26.2786 40.1748 26.3494 39.4871 26.2078C38.6268 26.0236 38.2105 25.4995 38.2968 24.6356C38.3539 24.1115 38.3539 23.5591 38.6268 23.0775C38.9853 22.426 39.5874 22.1852 40.2758 22.1144C40.6343 22.0719 40.9928 22.1144 41.3512 22.1144C41.3366 22.1002 41.3366 22.0861 41.3366 22.0861Z" fill="#F6FCEC"/>
<path d="M37.6229 27.525C37.5219 27.525 37.4217 27.4825 37.4363 27.3834C37.4502 27.0717 37.3214 26.8026 37.2644 26.5052C37.1495 25.9387 37.0778 25.3438 36.8196 24.8055C36.7764 24.7064 36.7047 24.6497 36.5898 24.6497C36.5328 24.5222 36.4464 24.3947 36.404 24.2531C36.1172 23.5024 35.7441 22.8084 35.2708 22.1569C35.142 21.9019 34.9986 21.6611 34.8121 21.4203C34.6116 21.1512 34.3102 20.9246 34.21 20.5705C34.21 20.4714 34.2238 20.3722 34.2238 20.2589C35.3286 21.4062 36.1311 22.7376 36.7479 24.1823C37.178 25.2729 37.4363 26.3918 37.6229 27.525Z" fill="#EAF8D4"/>
<path d="M15.9847 36.1507C15.7696 35.8249 15.583 35.4992 15.2677 35.2584C15.139 34.9185 14.9377 34.6069 14.7227 34.3236C14.479 33.7571 14.2354 33.2047 13.9918 32.6381C13.9201 32.0857 13.7482 31.5475 13.6618 30.9951C13.3604 29.0121 13.5901 27.1 14.3788 25.2729C15.6123 22.4259 17.7339 20.4713 20.6881 19.4232C21.9355 18.97 23.2407 18.7575 24.5744 18.8141C27.2842 18.9416 29.6502 19.8906 31.6292 21.7602C33.4647 23.4882 34.5109 25.5987 34.8694 28.049C35.0845 29.5079 34.884 30.9384 34.5402 32.3548C34.5109 32.454 34.4824 32.5531 34.4392 32.6664C34.3104 33.0205 34.1385 33.3604 34.0807 33.7429C33.7939 34.097 33.5935 34.4936 33.4216 34.9185C33.235 35.1168 33.0631 35.315 32.9628 35.57C32.6899 35.9099 32.4032 36.2499 32.131 36.5757C31.8442 36.8023 31.5713 37.0289 31.3562 37.3264C31.199 37.4538 31.0409 37.5813 30.869 37.7229C30.8258 37.7513 30.7827 37.7938 30.7403 37.8221C30.6824 37.8221 30.6393 37.8504 30.6107 37.907C30.4103 37.992 30.2237 38.1054 30.0657 38.2753C30.0372 38.3037 30.0086 38.3178 29.9801 38.3462C29.9084 38.3462 29.8653 38.3744 29.8367 38.4312C28.9478 38.8986 28.0443 39.3376 27.0406 39.5926C23.7564 40.414 20.7313 39.8759 17.949 37.9495C17.8634 37.8929 17.7632 37.8363 17.6622 37.7796C17.6483 37.7229 17.6051 37.6946 17.5481 37.6946C17.2035 37.383 16.845 37.0714 16.5012 36.7598C16.4434 36.5898 16.3 36.5048 16.1712 36.4057C16.1566 36.3348 16.128 36.2782 16.0425 36.2641C16.0278 36.2074 16.0132 36.1791 15.9847 36.1507ZM20.143 20.273C20.0575 20.2872 19.9711 20.2872 19.8848 20.3155C18.8093 20.7688 17.8349 21.392 17.003 22.2276C16.6731 22.5676 16.3863 22.9358 16.0849 23.2899C15.6408 23.814 15.1243 24.3664 14.9239 24.9896C14.6941 25.6837 14.2208 26.2785 14.2208 27.0859C14.2208 27.5674 14.0203 28.0915 13.9633 28.6014C13.7906 29.8761 14.035 31.1084 14.3503 32.3406C14.4652 32.7939 14.7658 33.1622 14.8953 33.6154C15.0094 34.012 15.196 34.3802 15.4542 34.7344C15.6408 34.9893 15.913 35.1734 16.0425 35.4425C16.2576 35.9099 16.6446 36.2357 16.9599 36.6182C17.2181 36.9156 17.5766 37.1281 17.8773 37.3971C18.1934 37.6804 18.5372 37.9779 18.9242 38.1479C19.598 38.4312 20.2579 38.7711 20.9602 39.026C21.9355 39.3801 22.9392 39.4792 23.943 39.5217C25.1765 39.5784 26.3806 39.4085 27.5563 38.9693C28.2448 38.7144 28.9186 38.4312 29.55 38.077C30.4242 37.5955 31.1273 36.9015 31.8296 36.2074C32.6468 35.4142 33.1918 34.4369 33.6652 33.4171C33.7939 33.1197 34.0668 32.8789 34.0807 32.539C34.0954 32.0574 34.2534 31.6041 34.3821 31.1509C34.554 30.5702 34.5687 29.9753 34.5826 29.4087C34.5972 28.8138 34.554 28.2048 34.3821 27.6099C34.2958 27.2841 34.3251 26.9017 34.1524 26.6326C33.8517 26.1652 33.6937 25.6412 33.4647 25.1454C33.2635 24.7205 33.1486 24.2672 32.8333 23.8565C32.3746 23.2616 31.9298 22.6668 31.3994 22.1285C31.1411 21.8735 30.7688 21.7461 30.5391 21.5195C30.0372 21.0237 29.4351 20.7263 28.8615 20.358C28.7181 20.2589 28.5747 20.2022 28.4313 20.3438C28.2879 20.273 28.1299 20.2022 27.9865 20.1173C27.9295 19.9898 27.9441 19.749 27.6858 19.9189C27.0976 19.8056 26.5526 19.5506 25.9505 19.4374C24.8465 19.2249 23.7425 19.1966 22.6239 19.4232C21.9501 19.5649 21.3048 19.7773 20.6449 19.9898C20.3867 19.8056 20.3296 20.0039 20.2726 20.188C20.2579 20.2447 20.2009 20.273 20.143 20.273Z" fill="#44A903"/>
<path d="M16.2141 18.7434C16.0422 18.8426 15.9412 19.0408 15.7122 19.0267C15.7261 17.4545 15.5973 15.8681 15.841 14.296C15.999 13.3469 16.3143 12.4546 16.716 11.6048C16.7877 11.4348 16.8732 11.279 16.9596 11.1232C17.0313 11.0524 17.103 10.9816 17.1747 10.8966C17.2032 11.0807 17.1461 11.2365 17.0744 11.3923C16.6011 12.313 16.386 13.3044 16.1994 14.3101C16.1856 14.3951 16.1424 14.4801 16.2426 14.5367C16.3575 14.5934 16.4292 14.4942 16.4723 14.4092C16.5726 14.211 16.6581 14.0127 16.7298 13.8002C17.0459 12.9504 17.5331 12.1855 18.0635 11.4348C18.422 10.9532 18.8669 10.5425 19.2539 10.0893C19.297 10.0751 19.3541 10.0751 19.3973 10.0468C20.0572 9.45188 20.8312 9.05529 21.663 8.74368C22.9536 8.26211 24.258 8.1488 25.6063 8.38958C27.0688 8.64453 28.3879 9.23942 29.4918 10.2451C29.535 10.3442 29.6067 10.415 29.7216 10.4575C29.7648 10.4858 29.8218 10.5142 29.865 10.5283C29.865 10.6275 29.9081 10.6841 29.9798 10.755C30.797 11.4773 31.2704 12.4121 31.7144 13.3753C31.9156 13.8002 32.1307 14.2251 32.2163 14.6784C32.288 15.0891 32.4175 15.4715 32.5177 15.8539C32.5609 16.0098 32.618 16.0947 32.7899 16.0806C32.8477 17.1287 32.8192 18.1768 32.8045 19.2391C32.5748 19.2533 32.4892 19.0975 32.3743 18.9417C32.3026 18.4318 32.231 17.9219 32.1593 17.412C32.1161 16.9304 31.9442 16.463 31.8154 15.9956C31.8008 15.9248 31.7861 15.7973 31.672 15.8114C31.5286 15.8257 31.571 15.9531 31.571 16.0523C31.571 16.4488 31.571 16.8596 31.571 17.2562C31.571 17.5111 31.571 17.7661 31.571 18.0069C31.571 18.1202 31.6427 18.276 31.4855 18.3327C31.3274 18.3893 31.2989 18.2052 31.2126 18.1343C31.1987 17.1145 31.2419 16.0806 31.1702 15.0608C31.0406 13.3753 30.3383 11.9589 29.148 10.7833C29.0909 10.7125 29.0331 10.6558 28.9761 10.585C28.9329 10.5283 28.9044 10.4575 28.8612 10.4009C27.6994 9.38105 26.3518 8.75785 24.8177 8.63037C23.1401 8.48873 21.5913 8.94198 20.2291 9.93345C19.7704 10.2592 19.3256 10.6133 19.0241 11.0949C18.1784 12.0014 17.6912 13.092 17.4183 14.2817C17.1747 15.3158 17.2749 16.3638 17.261 17.3978C17.2464 18.0777 17.261 18.0777 17.8485 17.7944C17.8916 17.7803 17.9487 17.7661 17.9919 17.7519C18.2786 18.276 18.422 18.8708 18.809 19.3525C18.365 19.6357 17.9348 19.919 17.49 20.2023C17.4468 19.5507 17.1176 19.055 16.5865 18.6867C16.5865 18.6442 16.5864 18.5593 16.6157 18.5451C17.0027 18.3327 16.9881 17.9644 16.9742 17.5961C16.9596 17.4261 16.9742 17.2562 16.9742 17.0862C16.9742 16.8596 16.9596 16.6188 16.9881 16.3922C17.0166 16.1656 17.0744 15.9389 17.0598 15.7123C17.0459 15.6132 17.0166 15.5424 16.9164 15.5282C16.8308 15.514 16.8015 15.5848 16.8015 15.6415C16.7298 16.1514 16.4723 16.633 16.4723 17.157C16.3575 17.7094 16.2858 18.2193 16.2141 18.7434Z" fill="#E3E3E3"/>
<path d="M34.21 20.5848C34.3102 20.9388 34.597 21.1654 34.8121 21.4346C34.984 21.6753 35.142 21.9161 35.2708 22.1711C35.2854 22.5535 35.1135 22.7235 34.7118 22.7801C34.4967 22.8085 34.2099 23.0493 34.2955 23.2192C34.4967 23.6158 34.1814 23.4458 34.0519 23.5025C33.4067 22.5252 32.6465 21.647 31.7861 20.8538C31.9442 20.2448 32.3027 19.7774 32.9048 19.5225C33.163 19.7066 33.4352 19.8907 33.6934 20.0749C33.7937 20.3014 33.9085 20.5423 34.21 20.5848Z" fill="#E3E3E3"/>
<path d="M26.7391 18.3468C26.1085 18.2759 25.4918 18.2052 24.8612 18.1343C24.7178 18.1202 24.5597 18.1627 24.4449 18.0635C24.3161 17.7094 24.4595 17.3553 24.4449 17.0012C24.431 16.7746 24.3015 16.5338 24.4449 16.3072C25.047 16.2363 25.6352 16.3922 26.2234 16.4488C26.2373 16.4913 26.2658 16.5196 26.2951 16.463C26.4238 16.4347 26.5387 16.4488 26.6536 16.4913C26.6821 16.5763 26.7253 16.6188 26.8108 16.5338C26.9111 16.5196 27.012 16.548 27.1123 16.5905C27.0837 16.7038 27.0545 16.8171 27.0406 16.9446C26.9404 17.412 26.7677 17.8652 26.7391 18.3468Z" fill="#888888"/>
<path d="M34.0518 23.5024C34.1666 23.4458 34.4819 23.6157 34.2954 23.2192C34.2098 23.035 34.4966 22.7943 34.7117 22.78C35.1133 22.7376 35.2852 22.5534 35.2706 22.171C35.744 22.8084 36.1171 23.5166 36.4039 24.2673C36.4609 24.4089 36.5326 24.5222 36.5897 24.6639C36.619 24.763 36.6328 24.8621 36.6614 24.9613C36.4756 24.9755 36.3175 24.9188 36.1888 24.8055C36.0454 24.678 35.9305 24.6214 35.9305 24.8905C35.9305 25.1171 35.8157 25.1879 35.6006 25.1879C35.3708 25.1879 35.1272 25.1596 34.8982 25.2163C34.8836 25.2021 34.8836 25.1879 34.8836 25.1738C34.9699 25.0605 34.9268 24.9896 34.7972 24.9755C34.5536 24.4656 34.2954 23.984 34.0518 23.5024Z" fill="#D9D9D9"/>
<path d="M18.7952 19.3806C18.4082 18.8991 18.2648 18.3042 17.978 17.7801C18.0066 17.7234 18.0351 17.6809 18.0636 17.6243C18.1931 17.6385 18.2933 17.596 18.4082 17.5393C18.9818 17.3269 19.5261 17.0294 20.1289 16.8878C19.9709 17.1144 20.0279 17.3269 20.0996 17.5677C20.2006 17.9359 20.3579 18.29 20.5013 18.6441C19.9423 18.8991 19.3688 19.1399 18.7952 19.3806Z" fill="#D9D9D9"/>
<path d="M34.9121 25.2021C35.1418 25.1454 35.3854 25.1738 35.6152 25.1738C35.8303 25.1738 35.9444 25.103 35.9444 24.8764C35.9444 24.6072 36.0592 24.6639 36.2026 24.7914C36.3321 24.9189 36.5041 24.9613 36.676 24.9471C36.8911 25.5987 37.1061 26.2361 37.1925 26.916C36.6328 26.9867 36.0878 27.1709 35.5142 27.1426C35.2991 26.5052 35.0987 25.8537 34.9121 25.2021Z" fill="#C9C9C9"/>
<path d="M26.7388 18.3467C26.7673 17.8652 26.94 17.4119 27.0256 16.9445C27.0541 16.8312 27.0834 16.7179 27.0973 16.5905C27.6138 16.6471 28.0872 16.817 28.5744 16.9729C28.589 17.0579 28.6176 17.1428 28.7178 17.0436C28.7748 17.0579 28.818 17.0861 28.8758 17.1004C28.7748 17.6952 28.4595 18.2051 28.2591 18.7575C27.7572 18.6301 27.2553 18.4884 26.7388 18.3467Z" fill="#9C9C9C"/>
<path d="M24.4442 16.3213C24.3008 16.548 24.4442 16.7887 24.4442 17.0154C24.4588 17.3694 24.3008 17.7235 24.4442 18.0777C23.8991 18.1202 23.3549 18.1768 22.8098 18.2193C22.8098 18.0918 22.7952 17.9502 22.7667 17.8227C22.6803 17.3553 22.5947 16.8879 22.5947 16.4205C22.7235 16.4063 22.8383 16.4063 22.9671 16.3921C23.0388 16.4913 23.082 16.4488 23.1251 16.3638C23.5553 16.3355 24.0001 16.3213 24.4442 16.3213Z" fill="#9C9C9C"/>
<path d="M37.4082 28.8281C37.6086 29.2388 37.422 29.6355 37.3789 30.032C37.3789 30.0745 37.2933 30.1454 37.2501 30.1311C36.9063 30.1029 36.5616 30.3295 36.2032 30.117C36.0883 30.0462 35.931 30.0462 35.8162 30.1311C35.7591 30.1736 35.7591 30.2728 35.8015 30.3295C35.8878 30.4569 36.0459 30.5136 36.1461 30.4853C36.4614 30.3861 36.7197 30.6269 37.035 30.5703C37.2648 30.5278 37.3503 30.8535 37.3218 31.1085C36.7482 31.0377 36.1747 30.9668 35.6011 30.8819C35.6296 30.2161 35.6581 29.5646 35.6874 28.8989C36.2749 28.9131 36.8484 28.9131 37.4082 28.8281Z" fill="#F1F1F1"/>
<path d="M32.1447 17.412C32.2164 17.9219 32.2881 18.4318 32.3598 18.9417C32.073 18.8283 31.9443 18.9558 31.7577 19.1825C31.4856 19.5366 31.3137 19.919 31.0839 20.3014C30.7686 20.089 30.424 19.9331 30.1372 19.664C30.2952 19.4091 30.424 19.14 30.5967 18.8851C30.7686 18.6442 30.969 18.4176 31.0269 18.106C31.0839 18.1202 31.1271 18.1202 31.1841 18.1343C31.2705 18.2052 31.299 18.3893 31.4571 18.3327C31.6004 18.276 31.5426 18.1202 31.5426 18.0069C31.5573 17.7519 31.5426 17.497 31.5426 17.2562C31.7438 17.1712 31.9728 17.0154 32.073 17.3836C32.0877 17.3978 32.1162 17.3978 32.1447 17.412Z" fill="#C9C9C9"/>
<path d="M31.0406 18.1202C30.9836 18.4318 30.7824 18.6584 30.6104 18.8992C30.4385 19.14 30.2951 19.4091 30.1517 19.6782C29.7501 19.4657 29.3631 19.2675 28.9614 19.055C29.3777 18.6018 29.5782 18.0352 29.7786 17.4686C30.0084 17.5111 30.1949 17.6811 30.4385 17.6953C30.5673 17.936 30.8834 17.9078 31.0406 18.1202Z" fill="#BCBCBC"/>
<path d="M35.6154 30.8818C36.1889 30.9527 36.7625 31.0235 37.3361 31.1085C37.2497 31.4484 37.2782 31.8025 37.121 32.1283C36.5759 32.1141 36.0594 31.8025 35.4858 31.9016C35.4858 31.8309 35.4858 31.76 35.4858 31.6892C35.5722 31.6042 35.5575 31.5051 35.529 31.406C35.529 31.236 35.5437 31.0518 35.6154 30.8818Z" fill="#E7EAE5"/>
<path d="M22.5806 16.4062C22.5806 16.8879 22.6669 17.3411 22.7525 17.8085C22.7818 17.9359 22.7957 18.0776 22.7957 18.2051C22.5521 18.2617 22.3085 18.1484 22.0787 18.2617C21.9639 18.1059 21.792 17.9927 21.7634 17.7518C21.7064 17.3553 21.62 16.9729 21.5483 16.5904C21.8783 16.4771 22.2221 16.4062 22.5806 16.4062Z" fill="#B1B1B1"/>
<path d="M29.7786 17.4686C29.5781 18.0352 29.3777 18.6017 28.9614 19.055C28.7178 18.9841 28.488 18.8992 28.2729 18.7717C28.4742 18.2193 28.7895 17.7094 28.8897 17.1145C29.2196 17.157 29.5064 17.2986 29.7786 17.4686Z" fill="#B1B1B1"/>
<path d="M31.0981 20.3015C31.3132 19.9332 31.4852 19.5366 31.772 19.1825C31.9585 18.9559 32.1019 18.8284 32.374 18.9417C32.4743 19.0833 32.5745 19.2533 32.8042 19.2392C32.8328 19.3383 32.8759 19.4233 32.9045 19.5225C32.3024 19.7774 31.9585 20.2448 31.7858 20.8539C31.5568 20.6698 31.3271 20.4856 31.0981 20.3015Z" fill="#D9D9D9"/>
<path d="M37.408 28.8281C36.8483 28.9131 36.2747 28.9131 35.7011 28.8989C35.6726 28.6298 35.6579 28.3607 35.6294 28.0915C36.1745 27.9924 36.7195 27.8933 37.2499 27.7941C37.3787 28.1482 37.3363 28.5023 37.408 28.8281Z" fill="#E3E3E3"/>
<path d="M21.5481 16.5905C21.6198 16.9729 21.72 17.3695 21.7632 17.7519C21.7917 17.9785 21.9636 18.0918 22.0785 18.2618C21.7632 18.3326 21.4332 18.4034 21.1179 18.4884C21.0315 17.9077 20.7594 17.3836 20.6445 16.8171C20.9313 16.7037 21.2181 16.5621 21.5481 16.5905Z" fill="#BCBCBC"/>
<path d="M37.2644 27.8082C36.7193 27.9074 36.1743 28.0065 35.6439 28.1057C35.6007 27.794 35.5437 27.4683 35.5005 27.1566C36.0741 27.185 36.6191 27.0009 37.178 26.9301C37.2929 27.2134 37.2644 27.5108 37.2644 27.8082Z" fill="#D9D9D9"/>
<path d="M13.9916 32.6382C14.2352 33.2047 14.4788 33.7571 14.7224 34.3236C14.4218 34.3236 14.1064 34.3236 13.862 34.097C13.7903 33.9554 13.7048 33.7996 13.6331 33.658C13.5036 33.2047 13.26 32.8082 13.2168 32.3265C13.3317 32.3265 13.3463 32.5107 13.4897 32.4399C13.7048 32.3408 13.8621 32.4682 13.9916 32.6382Z" fill="#696969"/>
<path d="M35.4859 31.9016C36.0595 31.8025 36.5613 32.0999 37.1211 32.1282C37.1211 32.4399 37.1211 32.7514 36.906 33.0064C36.3894 32.8648 35.859 32.709 35.3425 32.5673C35.3425 32.5106 35.3286 32.454 35.3286 32.3974C35.314 32.3549 35.3571 32.3124 35.2993 32.284C35.3286 32.1849 35.3572 32.0857 35.371 31.9866C35.4142 31.9866 35.4574 31.9582 35.4859 31.9016Z" fill="#E3E3E3"/>
<path d="M20.6444 16.803C20.7447 17.3695 21.0315 17.8935 21.1178 18.4743C20.9174 18.5451 20.7308 18.6443 20.5157 18.6443C20.3723 18.2902 20.2143 17.9503 20.114 17.5678C20.057 17.327 19.9992 17.1004 20.1426 16.888C20.3145 16.8737 20.4725 16.8455 20.6444 16.803Z" fill="#C9C9C9"/>
<path d="M35.2855 32.2699C35.3425 32.2982 35.2994 32.3407 35.314 32.3832C35.1706 32.5107 35.1275 32.6665 35.156 32.8506C35.1421 32.9214 35.1136 32.9923 35.0989 33.063C34.9841 33.318 34.8692 33.5588 34.7551 33.8138C34.54 33.7288 34.3103 33.7854 34.0806 33.7429C34.1384 33.3605 34.3249 33.0206 34.439 32.6665C34.4683 32.5674 34.5107 32.4682 34.54 32.3549C34.7836 32.2557 34.9987 31.9583 35.2855 32.2699Z" fill="#696969"/>
<path d="M35.4859 31.9016C35.4574 31.9583 35.4142 31.9725 35.3571 31.9725C35.2855 31.8592 35.3857 31.7742 35.4288 31.675H35.4574H35.4859C35.4859 31.76 35.4859 31.8308 35.4859 31.9016Z" fill="#D9D9D9"/>
<path d="M16.4427 21.0238C16.4003 20.9671 16.3571 20.9104 16.3286 20.8538C16.3571 20.8397 16.3857 20.7972 16.4142 20.8113C16.529 20.8255 16.5144 20.9246 16.529 21.0096C16.4859 21.0096 16.4574 21.0096 16.4427 21.0238Z" fill="#FEFEFE"/>
<path d="M35.4861 31.6892H35.4576H35.429C35.4144 31.5758 35.3574 31.4484 35.5292 31.4059C35.5578 31.5051 35.5863 31.6042 35.4861 31.6892Z" fill="#E3E3E3"/>
<path d="M34.812 24.9613C34.9554 24.9754 34.9839 25.0463 34.8983 25.1595C34.8405 25.1029 34.7973 25.0463 34.812 24.9613Z" fill="#C9C9C9"/>
<path d="M13.103 32.1992C13.103 32.1425 13.1169 32.1 13.1169 32.0433C13.2171 32.0717 13.2749 32.1142 13.1601 32.1992H13.1315H13.103Z" fill="#696969"/>
<path d="M29.8364 38.4169C29.8649 38.3603 29.922 38.3319 29.9798 38.3319C29.9651 38.4169 29.9081 38.431 29.8364 38.4169Z" fill="#E3E3E3"/>
<path d="M30.6108 37.9212C30.6255 37.8645 30.6686 37.8362 30.7403 37.8362C30.711 37.8929 30.6686 37.907 30.6108 37.9212Z" fill="#E3E3E3"/>
<path d="M17.5617 37.6805C17.6196 37.6805 17.662 37.7089 17.6766 37.7655C17.6334 37.7655 17.5764 37.7655 17.5332 37.7655C17.5479 37.7372 17.5617 37.7089 17.5617 37.6805Z" fill="#C9C9C9"/>
<path d="M29.98 38.3462C30.0085 38.3179 30.037 38.3037 30.0656 38.2754C30.037 38.3037 30.0085 38.3179 29.98 38.3462Z" fill="#E3E3E3"/>
<path d="M20.7025 6.91649C20.7595 6.90233 20.8166 6.88817 20.8744 6.874C21.4618 6.74652 22.0069 6.49157 22.5951 6.42076C22.9536 6.37827 23.326 6.33578 23.6844 6.29328C25.076 6.22246 26.395 6.46325 27.6856 6.95898C28.1011 7.15728 28.5174 7.35558 28.9329 7.55387C29.0193 7.59636 29.1048 7.63885 29.1912 7.66718C29.6499 8.03544 30.1086 8.4037 30.5534 8.78612C31.6142 9.72094 32.3173 10.8965 32.8909 12.143C32.6897 12.3838 32.4892 12.143 32.288 12.143C31.9588 11.4773 31.5857 10.8116 31.0985 10.245C30.9258 10.0184 30.8256 9.73511 30.5103 9.66429C30.5103 9.60763 30.4956 9.55097 30.4386 9.52265C30.4239 9.33851 30.3098 9.29602 30.1518 9.31019C30.0801 9.2677 29.9937 9.21104 29.922 9.16855C29.7362 8.89944 29.4633 8.72947 29.1912 8.57366C29.1765 8.43203 29.091 8.36121 28.9761 8.29039C28.3879 7.86548 27.7573 7.52554 27.0974 7.24226C26.1514 6.83151 25.133 6.67571 24.1146 6.68987C23.0253 6.70403 21.9498 6.95898 20.96 7.42639C20.6593 7.56803 20.3008 7.65302 20.1289 7.99295C20.0996 7.99295 20.0857 7.99295 20.0572 7.99295C19.7843 8.06376 19.5553 8.20541 19.3973 8.43203C19.3256 8.46036 19.2685 8.50285 19.2392 8.57366C19.0534 8.58783 18.9671 8.72947 18.8669 8.87111C18.7235 8.99858 18.5654 9.11189 18.4221 9.23937C18.2648 9.08356 18.207 9.2677 18.1353 9.33851C17.8346 9.66429 17.5332 10.0042 17.2464 10.3583C17.0745 10.5849 16.8308 10.7691 16.773 11.0665C16.6582 11.2648 16.5865 11.4914 16.4007 11.6614C16.1563 11.7747 15.9127 11.9022 15.7554 12.1288C15.6976 12.228 15.6405 12.2563 15.5688 12.143C15.7978 11.5622 16.1139 11.0382 16.4431 10.5141C17.1747 9.38101 18.1353 8.54534 19.139 7.75216C19.4975 7.46888 19.9423 7.29892 20.3579 7.08646C20.4157 7.08646 20.4727 7.08646 20.5013 7.0298C20.5729 6.98731 20.6308 6.94482 20.7025 6.91649Z" fill="#C9C9C9"/>
<path d="M15.5973 12.1147C15.669 12.2139 15.7261 12.1856 15.7839 12.1006C15.9412 11.8598 16.1856 11.7465 16.4292 11.6332C16.1856 12.2422 15.8695 12.823 15.6837 13.4603C15.612 13.4745 15.5256 13.432 15.4971 13.517C15.4686 13.6019 15.5542 13.5878 15.612 13.6019C15.6544 13.8428 15.4393 14.0269 15.4539 14.2677C15.2389 14.2252 15.0669 14.381 14.8657 14.4093C15.0669 13.6303 15.2103 12.8371 15.5973 12.1147Z" fill="#BCBCBC"/>
<path d="M14.8803 14.4093C15.0807 14.381 15.2534 14.2252 15.4685 14.2677C15.3251 15.0042 15.2103 15.7549 15.2388 16.5056C15.2534 16.8455 15.0237 16.9305 14.7516 16.973C14.7084 16.1089 14.7515 15.2591 14.8803 14.4093Z" fill="#B1B1B1"/>
<path d="M31.1124 10.2308C31.6004 10.8115 31.9728 11.4631 32.3027 12.1288C32.3313 12.1996 32.3459 12.2704 32.3744 12.3271C32.8193 13.2902 33.1199 14.2817 33.2063 15.344C33.2918 16.1088 33.2919 16.8737 33.2633 17.6385C33.2495 17.9927 33.3928 18.1059 33.722 18.0634C33.722 18.7292 33.7652 19.3949 33.6935 20.0606C33.4353 19.8764 33.1631 19.6923 32.9048 19.5082C32.8763 19.409 32.8331 19.3241 32.8046 19.2249C32.8193 18.1768 32.8478 17.1286 32.79 16.0663C32.8331 15.4007 32.7329 14.7491 32.6042 14.0976C32.6042 14.0126 32.6181 13.9276 32.5464 13.871C32.5178 13.7293 32.4893 13.5877 32.4608 13.4319C32.4747 13.2619 32.4176 13.1203 32.3313 12.9928C32.1023 12.1855 31.7438 11.4348 31.2844 10.7124C31.2844 10.5708 31.2419 10.4575 31.0839 10.415C31.0122 10.3866 30.9976 10.3441 30.9976 10.2733C31.0122 10.2733 31.0554 10.2592 31.1124 10.2308Z" fill="#9C9C9C"/>
<path d="M33.1916 15.3583C33.1199 14.296 32.8193 13.3044 32.3598 12.3414C32.3313 12.2705 32.3174 12.1997 32.2881 12.143C32.4893 12.1289 32.6898 12.3838 32.891 12.143C33.3211 13.0212 33.4931 13.9702 33.6365 14.9191C33.5069 15.075 33.5933 15.4574 33.1916 15.3583Z" fill="#BCBCBC"/>
<path d="M33.1914 15.3581C33.5931 15.4573 33.5067 15.0749 33.6501 14.9191C33.7511 15.4998 33.8082 16.0806 33.7511 16.6471C33.7079 17.1286 33.7218 17.596 33.7079 18.0634C33.378 18.1059 33.2492 17.9927 33.2492 17.6385C33.2777 16.8879 33.2778 16.123 33.1914 15.3581Z" fill="#B1B1B1"/>
<path d="M16.8018 11.0383C16.8596 10.7408 17.1032 10.5567 17.2751 10.3301C17.5619 9.97599 17.8487 9.65022 18.164 9.31029C18.2218 9.23947 18.2935 9.05534 18.4508 9.21114C18.4508 9.23947 18.4508 9.25364 18.4508 9.28197C18.164 9.46609 17.9635 9.73521 17.777 10.0185C17.6051 10.1176 17.5187 10.2734 17.4763 10.4576C17.3753 10.5001 17.3329 10.5709 17.3329 10.6842C17.2319 10.7267 17.1895 10.7975 17.1895 10.8966C17.1178 10.9675 17.0461 11.0383 16.9744 11.1233C16.9598 10.9675 16.8735 11.01 16.8018 11.0383Z" fill="#B1B1B1"/>
<path d="M15.6259 13.6018C15.5688 13.5877 15.4825 13.6018 15.511 13.5169C15.5403 13.4319 15.6259 13.4602 15.6975 13.4602C15.6837 13.5169 15.6837 13.5736 15.6259 13.6018Z" fill="#B1B1B1"/>
<path d="M16.9449 17.1145C16.9449 17.2845 16.9449 17.4544 16.9449 17.6244C16.9596 17.9927 16.9881 18.3609 16.5865 18.5734C16.5579 18.5876 16.5726 18.6583 16.5579 18.715C16.4292 18.7292 16.3143 18.7292 16.1855 18.7433C16.2572 18.2334 16.3289 17.7094 16.4145 17.1995C16.6011 17.1429 16.7591 17.0012 16.9449 17.1145Z" fill="#C9C9C9"/>
<path d="M35.9309 35.4285C35.759 35.9242 35.4005 36.3067 35.1276 36.7457C35.042 36.8873 34.9125 37.0007 34.8693 37.1706C34.6404 37.2697 34.5826 37.5106 34.4106 37.6664C34.2819 37.7939 34.1955 37.9638 33.9951 37.9921C33.6366 37.6097 33.2064 37.2981 32.8765 36.8873C32.9196 36.7598 32.9767 36.6466 33.0199 36.5191C33.3066 36.2642 33.5935 36.0375 33.6937 35.6409C33.8802 35.4426 34.0807 35.2585 34.1385 34.9752C34.2958 34.9044 34.2672 34.6778 34.4106 34.5928C34.7552 34.6778 35.0844 34.7061 35.4005 34.9611C35.6009 35.1169 35.7158 35.3293 35.9309 35.4285Z" fill="#D9D9D9"/>
<path d="M33.0343 36.519C32.9911 36.6464 32.9333 36.7597 32.8909 36.8872C32.4746 37.3546 31.9157 37.3688 31.356 37.3405C31.571 37.043 31.844 36.8164 32.1308 36.5897C32.4314 36.6181 32.7043 36.179 33.0343 36.519Z" fill="#C9C9C9"/>
<path d="M15.9846 36.1509C16.0131 36.1792 16.0277 36.2075 16.0563 36.2358C16.0563 36.3208 16.0994 36.3633 16.1858 36.3775C16.3145 36.4767 16.4579 36.5758 16.515 36.7316C16.2575 36.8732 15.9707 36.7741 15.6978 36.8166C15.4827 36.5899 15.182 36.4342 15.1104 36.08C15.3971 35.995 15.6978 36.0375 15.9846 36.1509Z" fill="#BCBCBC"/>
<path d="M15.6841 36.8166C15.9562 36.7882 16.243 36.8732 16.5013 36.7316C16.8451 37.0431 17.2036 37.3547 17.5482 37.6664C17.5335 37.6664 17.5189 37.6805 17.5189 37.6664C17.1034 37.3406 16.6161 37.3406 16.1281 37.3122C15.9848 37.1848 15.8414 37.0715 15.6841 36.944C15.6841 36.9157 15.6841 36.8732 15.6841 36.8166Z" fill="#C9C9C9"/>
<path d="M59.2754 32.284C59.2754 31.3634 59.2893 30.4285 59.2754 29.5079C59.2754 29.253 59.3471 29.168 59.6046 29.1822C60.2645 29.1963 60.9383 29.168 61.6121 29.1963C62.817 29.253 63.534 30.202 63.2904 31.3776C63.2187 31.7458 63.0321 32.0291 62.7307 32.2557C62.6019 32.3549 62.5156 32.4257 62.7168 32.539C63.2187 32.8223 63.3474 33.2897 63.376 33.8137C63.3906 34.2953 63.3328 34.7911 63.5772 35.2443C63.6489 35.3859 63.5479 35.4143 63.4338 35.4143C63.1177 35.4143 62.817 35.4284 62.5017 35.4143C62.2288 35.4001 62.2003 35.1735 62.1856 34.9894C62.1432 34.6494 62.1432 34.3095 62.1432 33.9696C62.1286 33.0772 61.498 32.6523 60.623 32.9498C60.4511 33.0064 60.4942 33.1339 60.4942 33.2472C60.4942 33.8704 60.4796 34.4936 60.4942 35.1168C60.4942 35.3576 60.4225 35.4284 60.1781 35.4284C59.2754 35.4426 59.2754 35.4426 59.2754 34.5645C59.2754 33.7996 59.2754 33.0348 59.2754 32.284ZM60.4942 31.0659C60.4942 32.0574 60.5228 32.0857 61.4263 31.9582C61.4833 31.9441 61.5404 31.93 61.5982 31.9158C61.942 31.8025 62.1001 31.5192 62.0854 31.0376C62.0715 30.5985 61.885 30.2586 61.5697 30.1878C61.2251 30.117 60.8381 30.0603 60.5513 30.202C60.3362 30.3153 60.5081 30.6977 60.4649 30.9527C60.4796 30.9809 60.4942 31.0234 60.4942 31.0659Z" fill="#696969"/>
<path d="M57.1531 31.5193C57.1531 30.8394 57.1669 30.1595 57.1531 29.4655C57.1531 29.2247 57.2248 29.1539 57.4684 29.1539C58.4004 29.1397 58.4004 29.1397 58.4004 30.0462C58.4004 31.1369 58.4004 32.2416 58.4004 33.3323C58.4004 34.1538 58.1422 34.862 57.3396 35.2302C56.5078 35.6126 55.6613 35.5843 54.8726 35.0602C54.3422 34.7062 54.1133 34.1538 54.1133 33.5447C54.0986 32.1708 54.1133 30.7828 54.0986 29.4088C54.0986 29.1964 54.1703 29.1397 54.3708 29.1256C55.3321 29.0831 55.3321 29.0831 55.3321 30.0321C55.3321 31.0944 55.3321 32.1567 55.3321 33.2189C55.3321 33.403 55.3321 33.5872 55.3745 33.7572C55.4755 34.2671 55.8047 34.5078 56.3359 34.4653C56.8231 34.4371 57.1099 34.1538 57.1384 33.6297C57.1669 33.0631 57.1531 32.4824 57.1531 31.9158C57.1531 31.8026 57.1531 31.6609 57.1531 31.5193Z" fill="#696969"/>
<path d="M43.688 30.9951C43.6024 30.9951 43.5161 30.9809 43.4305 30.9951C43.2008 31.0234 43.0859 30.9526 43.0427 30.6977C42.9572 30.2161 42.6126 30.0036 42.1253 30.0603C41.7383 30.1028 41.4947 30.386 41.48 30.7827C41.4654 31.0943 41.6381 31.2784 41.8817 31.4342C42.2402 31.675 42.6704 31.7883 43.0574 31.9724C43.7027 32.2699 44.2192 32.6948 44.2909 33.4454C44.4196 34.5786 43.8461 35.2868 42.6989 35.4568C41.4084 35.6409 40.2758 34.9326 40.1178 33.8421C40.0746 33.5446 40.1463 33.4029 40.4763 33.4454C40.548 33.4596 40.6197 33.4596 40.6914 33.4454C41.093 33.3888 41.3513 33.4596 41.3937 33.9412C41.4369 34.3236 41.7954 34.5219 42.2541 34.5219C42.5987 34.5219 42.8855 34.4086 43.0142 34.0545C43.1437 33.6721 43.0142 33.2755 42.7135 33.0347C42.5409 32.9073 42.3551 32.8223 42.1539 32.7514C41.8532 32.624 41.5371 32.4965 41.2503 32.3406C40.4331 31.9016 40.1325 31.3208 40.2612 30.5135C40.3761 29.7629 40.935 29.253 41.7954 29.083C42.8569 28.8847 43.8607 29.3662 44.176 30.2444C44.4196 30.9384 44.3765 30.9951 43.688 30.9951Z" fill="#696969"/>
<path d="M45.0798 32.2699C45.0798 31.3351 45.0798 30.3861 45.0798 29.4512C45.0798 29.2388 45.1368 29.1538 45.3665 29.1538C46.4127 29.168 47.4596 29.168 48.5212 29.1538C48.7363 29.1538 48.8219 29.2105 48.8219 29.4371C48.8365 30.1453 48.8504 30.1453 48.1334 30.1453C47.6177 30.1453 47.1011 30.1453 46.5707 30.1453C46.3842 30.1453 46.3125 30.202 46.3125 30.4003C46.3271 30.7402 46.3271 31.0801 46.3125 31.4201C46.2986 31.6325 46.3988 31.6892 46.5993 31.6892C47.1011 31.675 47.6177 31.7033 48.1195 31.675C48.3778 31.6608 48.4634 31.7458 48.4634 32.0007C48.4349 32.7515 48.5636 32.624 47.8181 32.6381C47.4165 32.6381 47.0294 32.6523 46.6278 32.6381C46.4127 32.6381 46.3125 32.6806 46.3125 32.9214C46.3271 33.318 46.3271 33.7288 46.3125 34.1253C46.2986 34.3661 46.4127 34.4086 46.6278 34.4086C47.2592 34.3945 47.8898 34.4086 48.5212 34.3945C48.7648 34.3945 48.8365 34.4653 48.8365 34.7061C48.808 35.5134 48.9221 35.3718 48.1481 35.3859C47.2445 35.4001 46.341 35.3718 45.4382 35.4001C45.1653 35.4001 45.0798 35.3151 45.0798 35.046C45.0798 34.1253 45.0651 33.2047 45.0798 32.2699Z" fill="#696969"/>
<path d="M64.3083 32.2841C64.3083 31.3634 64.3083 30.4286 64.3083 29.508C64.3083 29.2672 64.3515 29.1538 64.6236 29.1681C65.642 29.1822 66.6458 29.1822 67.6642 29.1681C67.9648 29.1681 68.0365 29.2672 68.0365 29.5505C68.0227 30.1595 68.0365 30.1595 67.4059 30.1595C66.904 30.1595 66.3875 30.1736 65.8856 30.1595C65.642 30.1454 65.5271 30.2161 65.5418 30.4853C65.5557 30.7969 65.5557 31.1227 65.5418 31.4343C65.5418 31.6326 65.6135 31.7176 65.8286 31.7176C66.3305 31.7033 66.8462 31.7317 67.3481 31.7033C67.6063 31.6892 67.6927 31.7742 67.6927 32.0291C67.6642 32.794 67.7929 32.6524 67.0474 32.6665C66.6458 32.6806 66.2587 32.6806 65.8571 32.6665C65.5988 32.6524 65.5418 32.7656 65.5418 32.9923C65.5557 33.3747 65.5557 33.7429 65.5418 34.1254C65.5271 34.3662 65.6135 34.4512 65.8571 34.437C66.4738 34.4228 67.0906 34.437 67.7066 34.4228C67.9648 34.4228 68.0365 34.5078 68.0365 34.7627C68.0227 35.4143 68.0365 35.4143 67.3627 35.4143C66.4592 35.4143 65.5557 35.4001 64.6529 35.4143C64.38 35.4143 64.2944 35.3435 64.2944 35.0602C64.323 34.1396 64.3083 33.2048 64.3083 32.2841Z" fill="#696969"/>
<path d="M50.5419 32.2841C50.5419 32.709 50.528 33.1339 50.5419 33.5588C50.5565 33.8987 50.6567 34.2103 50.9867 34.3945C51.5741 34.7344 52.1477 34.4228 52.2055 33.7146C52.2194 33.4455 52.3058 33.3322 52.5779 33.3747C52.6928 33.3888 52.793 33.3747 52.9079 33.3747C53.4676 33.3747 53.4676 33.3747 53.3959 33.9271C53.2378 35.0319 52.3628 35.6268 51.1586 35.4709C50.04 35.3293 49.3516 34.607 49.3092 33.4597C49.2799 32.6665 49.266 31.8733 49.3092 31.0802C49.4379 29.1113 51.1733 28.7714 52.406 29.2672C53.0227 29.5221 53.4814 30.3294 53.4244 31.0093C53.4097 31.1651 53.3527 31.2218 53.1947 31.2218C53.0944 31.2218 52.9942 31.2218 52.894 31.2218C52.3204 31.2218 52.3204 31.2218 52.1909 30.6835C52.1053 30.287 51.9041 30.1029 51.5171 30.0745C51.0723 30.0461 50.8148 30.1878 50.6568 30.556C50.5704 30.7544 50.5419 30.981 50.528 31.1934C50.528 31.5476 50.528 31.9158 50.5419 32.2841C50.528 32.2841 50.5419 32.2841 50.5419 32.2841Z" fill="#696969"/>
<path d="M35.9304 35.4285C35.7153 35.3294 35.5858 35.1169 35.4139 34.9752C35.1133 34.7345 34.7686 34.692 34.4248 34.607C34.525 34.3379 34.6399 34.0829 34.7401 33.8138C34.855 33.5589 34.9699 33.3181 35.084 33.0631C35.5141 33.488 36.1024 33.6297 36.6613 33.7997C36.5325 34.3946 36.2172 34.9045 35.9304 35.4285Z" fill="#C9C9C9"/>
<path d="M36.6765 33.8139C36.1175 33.6439 35.544 33.5022 35.0991 33.0773C35.1138 33.0065 35.1423 32.9357 35.1562 32.8648C35.3142 32.8223 35.214 32.6241 35.3288 32.5674C35.8446 32.7091 36.375 32.8648 36.8916 33.0065C36.9347 33.304 36.7767 33.5589 36.6765 33.8139Z" fill="#D9D9D9"/>
<path d="M68.4667 25.6128C67.6927 25.6128 67.4198 25.3579 67.4915 24.593C67.5347 24.1965 67.5493 23.7857 67.6927 23.4033C67.9363 22.7659 68.9401 22.4543 69.5136 22.8509C69.7287 23.0067 69.8289 23.2192 69.8289 23.4741C69.8151 23.9415 69.7719 24.3947 69.6424 24.848C69.4705 25.3862 69.112 25.6128 68.4667 25.6128Z" fill="#5FC503"/>
<path d="M45.1796 25.6128C44.3763 25.6128 44.118 25.3437 44.2043 24.5648C44.2475 24.1965 44.2907 23.8282 44.3763 23.4883C44.5775 22.7659 45.6814 22.426 46.2689 22.8934C46.4701 23.0492 46.5418 23.2758 46.5271 23.5166C46.5133 23.9699 46.4555 24.4231 46.3406 24.848C46.1972 25.3862 45.8102 25.6128 45.1796 25.6128Z" fill="#5FC503"/>
<path d="M57.2679 25.627C56.4499 25.627 56.1778 25.3154 56.2927 24.5081C56.3358 24.1681 56.3782 23.8282 56.4646 23.5024C56.6511 22.7943 57.7266 22.4543 58.3287 22.8793C58.5291 23.0209 58.6008 23.2192 58.6008 23.4458C58.6008 23.9273 58.5584 24.3947 58.4289 24.848C58.2716 25.3863 57.8985 25.6129 57.2679 25.627Z" fill="#5FC503"/>
<path d="M28.0009 20.1172C28.1443 20.188 28.3023 20.2588 28.4457 20.3438C28.933 20.7121 29.4348 21.0803 29.922 21.4345C29.9652 21.5336 30.0516 21.6044 30.1518 21.6469C30.1803 21.7177 30.2235 21.7602 30.2952 21.7886C30.7254 22.3126 31.2272 22.7942 31.5572 23.4032C31.5572 23.5024 31.6004 23.5448 31.7006 23.5448C31.7145 23.6016 31.7006 23.6723 31.7291 23.729C31.9589 24.1539 32.1161 24.6071 32.288 25.0604C32.3597 25.2587 32.389 25.4287 32.1593 25.5278C31.8725 25.1454 31.6574 24.7063 31.3706 24.3097C30.6537 23.3041 29.7648 22.4968 28.7032 21.8877C27.7712 21.3495 26.7674 20.9671 25.6781 20.8112C24.3444 20.6129 23.0253 20.6838 21.7486 21.0662C20.0426 21.5761 18.6372 22.5534 17.5185 23.9273C16.9596 24.6071 16.4724 25.3437 16.2141 26.1935C15.9705 26.0661 15.9127 25.6269 16.0707 25.287C16.3714 24.6214 16.6728 23.9415 16.9596 23.2758C17.3327 22.8083 17.7051 22.3551 18.0782 21.8877C18.1785 21.8452 18.2502 21.7602 18.3072 21.6611C18.4221 21.5195 18.5516 21.4061 18.7089 21.307C19.2107 20.9812 19.6841 20.6271 20.1574 20.273C20.2145 20.273 20.2723 20.2588 20.3008 20.2022C20.4581 20.188 20.5876 20.1314 20.6732 20.0039C21.3331 19.7914 21.9784 19.579 22.6522 19.4374C23.7708 19.1966 24.8609 19.2391 25.9787 19.4515C26.567 19.5648 27.1259 19.8198 27.7141 19.9331C27.7288 20.0747 27.8575 20.103 28.0009 20.1172Z" fill="#8BE900"/>
<path d="M20.1424 20.2731C19.6552 20.613 19.1818 20.9813 18.6946 21.3071C18.5366 21.4062 18.4078 21.5337 18.2929 21.6612C18.121 21.647 18.0493 21.7178 18.0632 21.8878C17.9483 21.8736 17.8628 21.9302 17.7626 21.987C17.189 22.3835 16.7588 22.9218 16.3425 23.4599C15.7119 24.2673 15.2239 25.1455 14.88 26.1228C14.5362 27.1284 14.3211 28.1624 14.2062 29.2105C14.1631 29.593 14.2779 29.9754 14.3211 30.3436C14.4352 31.3493 14.6079 32.3124 15.1098 33.233C15.6116 34.1396 16.0125 35.0885 16.7727 35.8534C17.3031 36.3916 17.8481 36.9015 18.4502 37.3547C19.1101 37.8505 19.8418 38.1763 20.5873 38.5162C20.8455 38.6295 21.0891 38.7428 21.3759 38.8136C22.0497 38.9553 22.7381 39.1252 23.4266 39.1536C24.1289 39.1819 24.8459 39.2668 25.5343 39.1252C26.3369 38.9411 27.1402 38.7853 27.9288 38.4879C28.8894 38.1054 29.6927 37.5105 30.4953 36.9157C30.5963 36.9157 30.6387 36.859 30.6387 36.774C30.668 36.774 30.6818 36.774 30.7104 36.774C30.9254 36.7316 31.1405 36.6891 31.1552 36.4058C32.0872 35.5134 32.8474 34.5078 33.2629 33.2755C33.3493 33.0348 33.421 32.794 33.5643 32.5674C33.6931 32.3691 33.808 32.1141 33.808 31.8875C33.8226 31.3634 34.0516 30.896 34.0801 30.3719C34.1518 29.1963 34.1233 28.0349 33.7509 26.9018C33.6075 26.4344 33.421 25.9953 33.249 25.542C33.0193 24.9472 32.6893 24.409 32.3594 23.8849C31.987 23.3183 31.4705 22.8509 31.0403 22.3127C30.8538 22.0861 30.5963 21.8595 30.2517 21.817C30.18 21.7886 30.1368 21.7461 30.1083 21.6753C30.1229 21.5053 30.0512 21.4346 29.8793 21.4628C29.3913 21.0946 28.8894 20.7263 28.4022 20.3723C28.5456 20.2306 28.689 20.2873 28.8324 20.3864C29.4059 20.7688 30.008 21.0663 30.5099 21.5478C30.7396 21.7745 31.112 21.902 31.3703 22.1569C31.9007 22.681 32.3455 23.29 32.8042 23.8849C33.1056 24.2815 33.2197 24.7347 33.4348 25.1738C33.6646 25.6695 33.8226 26.1936 34.1233 26.661C34.2952 26.9301 34.2528 27.3125 34.353 27.6383C34.5249 28.2332 34.5535 28.8422 34.5535 29.4371C34.5396 30.0179 34.5249 30.5985 34.353 31.1793C34.2235 31.6326 34.0801 32.0858 34.0516 32.5674C34.0377 32.9073 33.7795 33.148 33.6361 33.4455C33.1774 34.4653 32.6176 35.4426 31.8005 36.2358C31.0981 36.9157 30.395 37.6239 29.5208 38.1054C28.8894 38.4595 28.2156 38.7428 27.5272 38.9978C26.3515 39.4368 25.1473 39.5926 23.9138 39.5501C22.9101 39.5077 21.9063 39.3943 20.9311 39.0544C20.2288 38.7994 19.5688 38.4595 18.895 38.1763C18.508 38.0063 18.1634 37.7089 17.8481 37.4256C17.5475 37.1565 17.1743 36.944 16.9307 36.6466C16.6154 36.2641 16.2276 35.9384 16.0125 35.4709C15.8838 35.2019 15.6116 35.0177 15.4251 34.7627C15.1668 34.4087 14.9802 34.0404 14.8654 33.6438C14.7366 33.1905 14.4352 32.8223 14.3211 32.3691C14.005 31.1368 13.7614 29.9187 13.9333 28.6298C14.005 28.1199 14.1916 27.5959 14.1916 27.1142C14.2062 26.3069 14.6796 25.712 14.8947 25.018C15.0951 24.3948 15.6116 23.8566 16.0557 23.3183C16.3571 22.9643 16.6439 22.596 16.9739 22.256C17.8049 21.4203 18.7663 20.7972 19.8556 20.3439C19.9705 20.2873 20.0568 20.2873 20.1424 20.2731Z" fill="#53BB01"/>
<path d="M34.7549 33.8138C34.6539 34.0829 34.5398 34.3378 34.4388 34.607C34.2815 34.692 34.3247 34.9044 34.1667 34.9894C34.0379 34.961 33.8945 34.8902 33.765 35.0035C33.6216 35.1027 33.5214 35.0319 33.4351 34.9186C33.6077 34.5078 33.8082 34.0971 34.095 33.7429C34.2954 33.7854 34.5398 33.7288 34.7549 33.8138Z" fill="#888888"/>
<path d="M33.0344 36.5191C32.7044 36.1649 32.4315 36.6041 32.1309 36.5757C32.403 36.2358 32.6898 35.8959 32.9627 35.5701C33.2063 35.6551 33.4646 35.6409 33.7082 35.6551C33.608 36.0375 33.3212 36.2783 33.0344 36.5191Z" fill="#B1B1B1"/>
<path d="M33.7079 35.6551C33.4643 35.6409 33.206 35.6693 32.9624 35.5701C33.0626 35.3151 33.2345 35.1169 33.4211 34.9186C33.5067 35.0319 33.6077 35.1027 33.7511 35.0036C33.8798 34.9044 34.0232 34.9611 34.1519 34.9894C34.0949 35.2726 33.8945 35.4568 33.7079 35.6551Z" fill="#9C9C9C"/>
<path d="M20.6593 19.9898C20.5729 20.1173 20.4295 20.1739 20.2861 20.1881C20.344 20.004 20.401 19.8057 20.6593 19.9898Z" fill="#53BB01"/>
<path d="M28.0007 20.1173C27.8719 20.0889 27.7424 20.0748 27.6992 19.919C27.9436 19.7631 27.9436 19.9898 28.0007 20.1173Z" fill="#53BB01"/>
<path d="M16.1857 36.3775C16.0993 36.3633 16.0562 36.3208 16.0562 36.2358C16.1279 36.2642 16.171 36.3067 16.1857 36.3775Z" fill="#9C9C9C"/>
<path d="M18.4366 9.28184C18.4366 9.25351 18.4366 9.23935 18.4366 9.21102C18.58 9.08355 18.7372 8.97023 18.8806 8.84276C19.0818 8.84276 19.2106 8.75777 19.2538 8.54532C19.2823 8.4745 19.3254 8.41784 19.4118 8.40368C19.6839 8.33286 19.9561 8.26204 20.0709 7.9646C20.0995 7.9646 20.1141 7.9646 20.1426 7.9646C20.5589 7.92211 20.8311 7.6105 21.2042 7.48302C22.5233 7.02978 23.8709 6.77483 25.2763 7.01562C26.223 7.17142 27.1258 7.41221 27.9861 7.87962C28.3878 8.10624 28.7324 8.43201 29.1911 8.54532C29.4632 8.70112 29.7361 8.87109 29.9219 9.1402C29.9219 9.3385 30.0083 9.48013 30.2234 9.4943C30.238 9.67843 30.3382 9.77758 30.5248 9.79174C30.5101 9.96171 30.5101 10.1175 30.7538 10.0892C30.7969 10.16 30.854 10.2308 30.8972 10.3158C30.5818 10.5566 30.238 10.6132 29.8502 10.5424C29.8078 10.5141 29.75 10.4858 29.7068 10.4716C29.7215 10.3158 29.6498 10.2308 29.4779 10.2591C28.3739 9.25351 27.0687 8.67279 25.5916 8.40368C24.244 8.16289 22.9388 8.2762 21.6483 8.75777C20.8164 9.06938 20.0424 9.46597 19.3825 10.0609C19.354 10.0892 19.2969 10.0892 19.2391 10.1033C19.1535 9.99003 19.0672 10.0325 18.9816 10.0892C18.7372 10.2733 18.5083 10.2167 18.2647 10.0892C18.0349 9.97587 17.9486 9.86256 18.2068 9.67843C18.3363 9.57928 18.4651 9.46597 18.4366 9.28184Z" fill="#FBFBFB"/>
<path d="M18.0636 17.6245C18.0351 17.6811 18.0065 17.7236 17.978 17.7802C17.9348 17.7944 17.877 17.7944 17.8346 17.8227C17.2318 18.106 17.2318 18.106 17.2464 17.4261C17.261 16.378 17.1747 15.3299 17.4044 14.3101C17.6766 13.1203 18.1638 12.0297 19.0103 11.1232C19.0673 11.1232 19.139 11.1374 19.1676 11.2082C19.2107 11.279 19.2254 11.2507 19.2393 11.194C19.2539 11.1799 19.2686 11.1516 19.2971 11.1374C19.4258 11.1516 19.4975 11.0807 19.5553 10.9958C19.5839 10.9816 19.5977 10.9674 19.5977 10.9533C19.6409 10.8966 19.6987 10.8541 19.6694 10.7691C19.9138 10.8116 19.9994 10.6133 20.1428 10.4859C20.1713 10.4575 20.2006 10.4292 20.2291 10.4009C20.3008 10.3442 20.2723 10.2592 20.3008 10.1742C20.4296 10.33 20.5876 10.2451 20.6878 10.1601C20.8744 10.0043 21.118 9.93346 21.3331 9.83432C23.1109 9.0553 24.9033 9.02697 26.725 9.69267C27.4705 9.97595 28.1011 10.4292 28.7611 10.8541C28.8759 10.9674 28.9615 11.1091 29.1334 11.1374C29.1627 11.194 29.1334 11.2932 29.2198 11.3074C29.2344 11.3074 29.2629 11.2932 29.2768 11.279C29.2915 11.194 29.2198 11.1516 29.1627 11.1091C29.1334 11.0241 29.091 10.9391 29.0617 10.8399C29.0764 10.8258 29.091 10.8116 29.1195 10.7833C30.3099 11.9731 31.0122 13.3894 31.1409 15.075C30.8256 15.0466 30.4532 14.9616 30.5535 15.4999C30.5535 15.514 30.4818 15.5565 30.4533 15.5849C30.4101 14.7633 30.1518 13.9985 29.808 13.262C29.5782 12.7662 29.1912 12.3696 28.9476 11.8881C29.0764 11.6898 29.0193 11.5198 28.8759 11.364C28.4026 10.8399 27.8575 10.4434 27.2123 10.1318C26.4953 9.79182 25.7783 9.50854 24.9897 9.43772C23.2258 9.28192 21.6346 9.73516 20.2006 10.7691C19.5977 11.2082 19.2107 11.8031 18.8669 12.4405C18.8237 12.5255 18.6086 12.7096 18.8954 12.8087C18.8523 12.922 18.8091 13.0354 18.752 13.1486C18.3789 13.956 18.0497 14.7633 18.0636 15.6698C18.0497 16.3072 18.0636 16.9729 18.0636 17.6245ZM19.0959 11.4065C19.1105 11.4065 19.1105 11.4065 19.1252 11.3923V11.3782C19.1252 11.3782 19.1105 11.3923 19.0959 11.4065C19.0959 11.4207 19.082 11.4348 19.082 11.4348C19.082 11.4207 19.0959 11.4065 19.0959 11.4065Z" fill="#888888"/>
<path d="M29.8501 10.5283C30.2379 10.5991 30.5817 10.5566 30.897 10.3016C30.9256 10.3016 30.9402 10.3016 30.9687 10.3016C30.9687 10.3583 30.9972 10.4149 31.0551 10.4433C31.0836 10.5708 31.1121 10.6841 31.2555 10.7407C31.7003 11.4489 32.0727 12.1996 32.3024 13.0211C32.2161 13.2052 32.2454 13.3611 32.4312 13.4602C32.4605 13.6018 32.489 13.7435 32.5175 13.8992C32.3888 14.0126 32.4173 14.0834 32.5746 14.1259C32.7041 14.7774 32.8043 15.4289 32.7611 16.0947C32.5892 16.1088 32.5175 16.0238 32.489 15.8681C32.3888 15.4714 32.2593 15.089 32.1876 14.6924C32.102 14.2392 31.8723 13.8143 31.6857 13.3893C31.2416 12.4262 30.7683 11.4914 29.9511 10.769C29.8933 10.6841 29.8501 10.6132 29.8501 10.5283Z" fill="#F1F1F1"/>
<path d="M18.4367 9.28186C18.4652 9.46599 18.3503 9.5793 18.2216 9.67845C17.9633 9.86257 18.0635 9.97589 18.2786 10.0892C18.5222 10.2025 18.752 10.2733 18.9956 10.0892C19.0819 10.0184 19.1675 9.99005 19.2538 10.1034C18.8668 10.5566 18.422 10.9532 18.0635 11.4489C17.5331 12.1855 17.0459 12.9503 16.7298 13.8143C16.6581 14.0126 16.5726 14.225 16.4723 14.4234C16.4292 14.5083 16.3575 14.6075 16.2426 14.5508C16.1424 14.5083 16.1855 14.4234 16.1994 14.3242C16.386 13.3186 16.6157 12.3271 17.0744 11.4064C17.1461 11.2506 17.2032 11.0948 17.1747 10.9107C17.3327 10.9107 17.3327 10.7974 17.318 10.6982C17.4761 10.6982 17.4761 10.5849 17.4614 10.4716C17.6333 10.4858 17.6334 10.2875 17.7629 10.2592C17.8484 10.3017 17.8631 10.4433 17.9918 10.3725C18.0497 10.3442 18.0635 10.2733 18.035 10.2167C17.9918 10.075 17.8631 10.1317 17.7629 10.1175C17.7629 10.0892 17.7629 10.0609 17.7629 10.0325C17.9487 9.7351 18.1499 9.46599 18.4367 9.28186Z" fill="#F1F1F1"/>
<path d="M19.6124 10.9249C19.5977 10.9391 19.5838 10.9532 19.5553 10.9674C19.3541 10.8116 19.3402 11.0099 19.297 11.109C19.2824 11.1232 19.2685 11.1515 19.2392 11.1657C19.2107 11.1657 19.1822 11.1799 19.1675 11.1799C19.139 11.109 19.0673 11.109 19.0103 11.0949C19.3109 10.5991 19.7558 10.2592 20.2145 9.93344C21.5767 8.94197 23.1108 8.48873 24.803 8.63037C26.3518 8.75785 27.6994 9.36689 28.8466 10.4009C28.9044 10.4433 28.9329 10.5142 28.9614 10.585C28.9183 10.6275 28.8759 10.67 28.8466 10.7125C28.7749 10.6558 28.7032 10.6133 28.6461 10.5567C27.4419 9.40938 25.9787 8.88532 24.3443 8.85699C22.8534 8.82866 21.505 9.28191 20.3293 10.1742C20.3008 10.2451 20.3293 10.33 20.2576 10.4009C20.2006 10.4009 20.1289 10.4009 20.0711 10.4009C19.9277 10.5 19.7843 10.5991 19.6987 10.7691C19.6124 10.7833 19.6124 10.8541 19.6124 10.9249Z" fill="#9C9C9C"/>
<path d="M30.467 15.5848C30.5102 15.5565 30.5819 15.5281 30.5672 15.4999C30.467 14.9616 30.8401 15.0466 31.1555 15.0749C31.2271 16.0947 31.1701 17.1287 31.1986 18.1485C31.1408 18.1343 31.0984 18.1343 31.0406 18.1201C30.8833 17.9077 30.5672 17.936 30.4385 17.6952C30.4385 16.9871 30.4531 16.293 30.467 15.5848Z" fill="#696969"/>
<path d="M16.9449 17.1144C16.7591 17.0011 16.6011 17.1428 16.4292 17.1853C16.4292 16.6612 16.6875 16.1796 16.7591 15.6697C16.7591 15.6272 16.8015 15.5422 16.8732 15.5564C16.9742 15.5706 17.0166 15.6414 17.0166 15.7406C17.0313 15.9672 16.9742 16.1938 16.9449 16.4204C16.9311 16.647 16.9449 16.8878 16.9449 17.1144Z" fill="#D9D9D9"/>
<path d="M32.1448 17.412C32.1163 17.412 32.0878 17.3979 32.0731 17.3979C31.9729 17.0296 31.7578 17.1854 31.5427 17.2704C31.5427 16.8738 31.5427 16.4631 31.5427 16.0664C31.5427 15.9814 31.4996 15.854 31.6429 15.8257C31.7578 15.8115 31.7724 15.9389 31.7863 16.0098C31.9297 16.4631 32.1024 16.9305 32.1448 17.412Z" fill="#D9D9D9"/>
<path d="M29.478 10.2309C29.6353 10.2167 29.7216 10.2875 29.707 10.4434C29.5929 10.4009 29.5212 10.33 29.478 10.2309Z" fill="#F1F1F1"/>
<path d="M28.8467 10.7124C28.8899 10.6699 28.933 10.6275 28.9616 10.585C29.0194 10.6558 29.0764 10.7124 29.1335 10.7833C29.1196 10.7974 29.1049 10.8116 29.0764 10.8399C29.0047 10.8116 28.933 10.7833 28.876 10.7549C28.876 10.7408 28.8613 10.7266 28.8467 10.7124Z" fill="#888888"/>
<path d="M30.4672 15.5848C30.4533 16.293 30.4387 16.987 30.4387 17.6953C30.1951 17.6811 30.0085 17.5111 29.7788 17.4686C29.5066 17.2986 29.2198 17.157 28.8899 17.1004C28.8328 17.0862 28.7897 17.0579 28.7326 17.0437C28.7033 16.987 28.6463 16.9729 28.5892 16.9729C28.1012 16.8029 27.6279 16.633 27.1121 16.5905C27.0119 16.548 26.9109 16.5196 26.8107 16.5338C26.7675 16.4771 26.7251 16.463 26.6534 16.4913C26.5385 16.4488 26.409 16.4347 26.2949 16.463C26.2656 16.463 26.2518 16.4488 26.2232 16.4488C25.635 16.3922 25.0468 16.2363 24.4447 16.3072C24.0006 16.3213 23.5558 16.3355 23.111 16.3355C23.0539 16.3072 22.9969 16.3072 22.9537 16.3638C22.8242 16.378 22.7101 16.378 22.5806 16.3922C22.2221 16.3922 21.8783 16.4488 21.5337 16.5763C21.2045 16.548 20.9315 16.6896 20.6448 16.7887C20.4728 16.8171 20.3009 16.8454 20.129 16.8737C19.5262 17.0012 18.9819 17.2986 18.4083 17.5253C18.2934 17.5678 18.1786 17.6103 18.0637 17.6103C18.0637 16.9587 18.0498 16.293 18.0498 15.6415C18.0498 14.735 18.3651 13.9277 18.7375 13.1203C18.7953 13.007 18.8385 12.8937 18.8809 12.7804C18.9672 12.6813 19.0536 12.5679 19.1253 12.4688C20.0573 11.109 21.3047 10.2025 22.9676 9.9051C24.5742 9.62183 26.0937 9.86261 27.4991 10.6983C28.0442 11.024 28.4882 11.4631 28.9477 11.8739C29.1913 12.3555 29.5783 12.752 29.8081 13.2478C30.1666 13.9985 30.424 14.7633 30.4672 15.5848Z" fill="#FDFDFD"/>
<path d="M26.6533 16.5055C26.7104 16.4772 26.7674 16.4913 26.8106 16.548C26.725 16.6329 26.6818 16.5763 26.6533 16.5055Z" fill="#9C9C9C"/>
<path d="M26.2231 16.463C26.2517 16.463 26.2663 16.4774 26.2949 16.4774C26.2517 16.5205 26.237 16.5061 26.2231 16.463Z" fill="#9C9C9C"/>
<path d="M28.5889 16.987C28.6606 16.9728 28.703 16.987 28.7323 17.0578C28.6313 17.1569 28.6027 17.072 28.5889 16.987Z" fill="#B1B1B1"/>
<path d="M22.9536 16.378C22.9968 16.3213 23.0538 16.3072 23.1109 16.3497C23.0685 16.4346 23.0253 16.4913 22.9536 16.378Z" fill="#B1B1B1"/>
<path d="M35.3423 32.5673C35.2136 32.624 35.3285 32.8223 35.1704 32.8648C35.1419 32.6806 35.185 32.5248 35.3285 32.3973C35.3285 32.454 35.3285 32.5107 35.3423 32.5673Z" fill="#C9C9C9"/>
<path d="M29.191 8.54544C28.7323 8.41796 28.3877 8.0922 27.986 7.87974C27.1403 7.41233 26.2229 7.17155 25.2762 7.01574C23.8708 6.77496 22.5232 7.02991 21.2042 7.48315C20.831 7.61062 20.5589 7.92223 20.1426 7.96473C20.3145 7.63895 20.673 7.53981 20.9744 7.39817C21.9635 6.93076 23.039 6.67581 24.1291 6.66165C25.1475 6.64748 26.1512 6.80328 27.1118 7.21404C27.771 7.49732 28.4162 7.83725 28.9898 8.26217C29.0761 8.33298 29.1764 8.4038 29.191 8.54544Z" fill="#F1F1F1"/>
<path d="M30.969 10.3017C30.9404 10.3017 30.9258 10.3017 30.8973 10.3017C30.8541 10.2309 30.797 10.16 30.7539 10.0751C30.7254 9.93343 30.639 9.84844 30.5249 9.77762C30.5249 9.73513 30.5103 9.69264 30.5103 9.65015L30.5249 9.63599C30.8402 9.70681 30.9404 10.0042 31.1124 10.2167C31.0553 10.2592 31.0121 10.2734 30.969 10.3017Z" fill="#B1B1B1"/>
<path d="M20.0574 7.96472C19.9425 8.26216 19.6557 8.33298 19.3975 8.4038C19.5694 8.17718 19.7845 8.03554 20.0574 7.96472Z" fill="#F1F1F1"/>
<path d="M30.2233 9.49435C30.0082 9.46602 29.9219 9.33855 29.9219 9.14026C29.9936 9.18275 30.0799 9.2394 30.1516 9.2819C30.1802 9.35272 30.1948 9.42353 30.2233 9.49435Z" fill="#F1F1F1"/>
<path d="M19.254 8.54541C19.2255 8.75787 19.0959 8.84285 18.8809 8.84285C18.9672 8.70121 19.0674 8.57373 19.254 8.54541Z" fill="#F1F1F1"/>
<path d="M30.2236 9.49439C30.195 9.42356 30.1804 9.35274 30.1519 9.28193C30.3099 9.26777 30.424 9.31026 30.4386 9.49439C30.424 9.50855 30.424 9.50855 30.4101 9.52271C30.3523 9.52271 30.2806 9.50855 30.2236 9.49439Z" fill="#B1B1B1"/>
<path d="M30.4387 9.49438C30.4957 9.52272 30.5104 9.57937 30.5104 9.63602L30.4957 9.65019C30.4672 9.6077 30.4387 9.56521 30.4102 9.52271C30.424 9.52271 30.4387 9.50855 30.4387 9.49438Z" fill="#B1B1B1"/>
<path d="M32.4317 13.4603C32.2313 13.3611 32.2167 13.2053 32.303 13.0212C32.3893 13.1487 32.4464 13.2903 32.4317 13.4603Z" fill="#E3E3E3"/>
<path d="M31.2561 10.7408C31.1127 10.6983 31.0842 10.5708 31.0557 10.4434C31.2276 10.4717 31.2708 10.585 31.2561 10.7408Z" fill="#B1B1B1"/>
<path d="M32.5895 14.1117C32.4314 14.0692 32.389 13.9985 32.5324 13.8851C32.6041 13.956 32.5895 14.0267 32.5895 14.1117Z" fill="#E3E3E3"/>
<path d="M17.7629 10.0043C17.7629 10.0326 17.7629 10.0609 17.7629 10.0893C17.7629 10.1317 17.7629 10.1884 17.7629 10.2309C17.6334 10.2592 17.6333 10.4717 17.4614 10.4434C17.5046 10.2592 17.5902 10.1034 17.7629 10.0043Z" fill="#E3E3E3"/>
<path d="M17.3182 10.6699C17.3182 10.7832 17.3328 10.8824 17.1748 10.8824C17.1748 10.7832 17.218 10.7124 17.3182 10.6699Z" fill="#E3E3E3"/>
<path d="M17.4613 10.4434C17.4759 10.5567 17.4759 10.6558 17.3179 10.67C17.3179 10.5708 17.361 10.4859 17.4613 10.4434Z" fill="#E3E3E3"/>
<path d="M60.4943 31.066C60.4943 31.0235 60.4943 30.9952 60.4943 30.9527C60.5228 30.6978 60.3648 30.3153 60.5799 30.202C60.8667 30.0462 61.2537 30.117 61.5983 30.1879C61.9136 30.2586 62.1002 30.5844 62.1141 31.0377C62.1287 31.5192 61.9706 31.8025 61.6268 31.9158C61.5698 31.93 61.5119 31.9583 61.4549 31.9583C60.5228 32.0858 60.4943 32.0433 60.4943 31.066Z" fill="#F1F1F1"/>
<path d="M32.1444 25.542C32.3888 25.4429 32.3595 25.2729 32.2739 25.0746C32.102 24.6213 31.944 24.1681 31.7142 23.7432C31.6857 23.7007 31.7004 23.6299 31.6857 23.5591C31.8152 23.5591 31.8869 23.6299 31.9586 23.7291C32.3456 24.3239 32.6895 24.9187 33.0048 25.5561C33.4781 26.5476 33.7364 27.5816 33.8366 28.6439C33.9661 30.1169 33.7217 31.5758 33.1343 32.9497C32.7897 33.7712 32.3741 34.5502 31.8006 35.2301C31.2702 35.8675 30.6966 36.4623 30.0228 36.9439C29.4061 37.3972 28.7893 37.8504 28.0438 38.1054C27.599 38.2611 27.1549 38.4311 26.6955 38.5444C26.1797 38.6719 25.6493 38.8277 25.1181 38.8419C23.8276 38.8844 22.5517 38.8844 21.3044 38.4311C20.501 38.1479 19.7124 37.8362 19.0101 37.3688C17.8344 36.604 16.816 35.655 16.0705 34.4369C15.712 33.8562 15.3674 33.2471 15.1384 32.6097C14.9233 32.0149 14.8231 31.3633 14.6936 30.726C14.4646 29.5078 14.6219 28.3323 14.837 27.1567C15.0089 26.2077 15.4391 25.3579 15.9124 24.5363C16.1854 24.0548 16.4721 23.5732 16.9594 23.2474C16.6579 23.9132 16.3712 24.593 16.0705 25.2587C15.9125 25.5986 15.9842 26.0377 16.2139 26.1652C15.9842 26.9017 15.7552 27.6241 15.712 28.4031C15.6118 30.032 15.8269 31.5899 16.5863 33.063C17.2893 34.3944 18.2646 35.4709 19.5258 36.2924C20.989 37.2413 22.5949 37.7512 24.3588 37.7371C24.688 37.7371 25.0179 37.6805 25.3479 37.6521C26.0795 37.5813 26.7965 37.4113 27.4703 37.1281C28.4594 36.7173 29.3775 36.1933 30.1515 35.4425C30.7251 34.8901 31.2841 34.3094 31.6718 33.6295C32.2022 32.6806 32.6324 31.6891 32.8043 30.5844C33.0048 29.3804 32.8907 28.2048 32.6324 27.0292C32.5029 26.5476 32.2161 26.0802 32.1444 25.542Z" fill="#65DF00"/>
<path d="M32.1448 25.5421C32.2165 26.0804 32.5033 26.5478 32.6328 27.0718C32.9049 28.2474 33.0052 29.4231 32.8047 30.627C32.6328 31.7318 32.2026 32.7232 31.6722 33.6722C31.2844 34.3521 30.7255 34.9328 30.1519 35.4852C29.3633 36.2359 28.4597 36.7599 27.4706 37.1707C26.7822 37.454 26.0799 37.624 25.3483 37.6947C25.0183 37.7231 24.6884 37.7797 24.3592 37.7797C22.5953 37.7939 20.9894 37.284 19.5262 36.335C18.2649 35.5135 17.2897 34.4371 16.5866 33.1056C15.8126 31.6326 15.6122 30.0604 15.7124 28.4458C15.7556 27.6809 15.9845 26.9443 16.2143 26.2078C16.4725 25.358 16.9598 24.6215 17.5187 23.9416C18.6373 22.5677 20.0281 21.5904 21.7488 21.0805C23.0393 20.6981 24.3445 20.6273 25.6782 20.8255C26.7676 20.9814 27.7713 21.3779 28.7033 21.902C29.7649 22.5111 30.6538 23.3325 31.3708 24.3241C31.6429 24.7206 31.858 25.1597 32.1448 25.5421ZM24.4732 37.0574C24.7176 37.0998 25.1185 37.0149 25.5063 36.9441C27.5562 36.6042 29.2345 35.6126 30.5251 33.9838C30.8835 33.5305 31.2274 33.0631 31.4571 32.5532C32.0446 31.236 32.3314 29.8621 32.1448 28.4033C31.9875 27.1002 31.5288 25.9104 30.7972 24.834C30.2668 24.0691 29.6215 23.4175 28.8467 22.8794C26.739 21.4346 24.4447 21.0664 22.007 21.7604C20.5299 22.1853 19.2826 23.0068 18.265 24.1682C17.5765 24.9472 17.0885 25.8396 16.7593 26.7744C16.3862 27.8509 16.2281 28.9839 16.4147 30.1454C16.5149 30.7686 16.6444 31.3777 16.8734 31.9726C17.1463 32.6807 17.605 33.3181 17.7199 34.0972C17.7338 34.2388 17.8486 34.3804 18.0067 34.3946C18.379 34.4371 18.6234 34.692 18.867 34.9186C20.4012 36.3492 22.2507 36.9582 24.4732 37.0574Z" fill="#5CD200"/>
<path d="M16.9452 23.2759C16.458 23.6017 16.1712 24.0832 15.899 24.5648C15.4396 25.3863 14.9955 26.2362 14.8236 27.1851C14.6085 28.3608 14.4504 29.5505 14.6802 30.7544C14.8089 31.3918 14.9092 32.0433 15.1242 32.6382C15.354 33.2756 15.6978 33.8705 16.0563 34.4653C16.8018 35.6835 17.8202 36.6183 18.9959 37.3973C19.699 37.8505 20.4876 38.1621 21.2901 38.4595C22.5375 38.9128 23.8142 38.9128 25.1047 38.8703C25.6351 38.8562 26.1517 38.7004 26.6821 38.5729C27.1554 38.4595 27.5856 38.2754 28.0296 38.1338C28.7751 37.8789 29.3919 37.4256 30.0086 36.9723C30.6824 36.4767 31.256 35.8818 31.7864 35.2585C32.3599 34.5787 32.7763 33.7855 33.1201 32.9781C33.6937 31.6043 33.9519 30.1595 33.8232 28.6723C33.7222 27.61 33.4786 26.5761 32.9914 25.5846C32.6899 24.9472 32.3314 24.3523 31.9444 23.7574C31.8874 23.6583 31.801 23.5875 31.6723 23.5875C31.6723 23.4884 31.6291 23.4459 31.5289 23.4459C31.1989 22.8368 30.6971 22.3694 30.2669 21.8312C30.6107 21.8737 30.869 22.0861 31.0555 22.3269C31.4857 22.8651 32.0015 23.3184 32.3746 23.8991C32.7046 24.4232 33.0345 24.9614 33.2635 25.5563C33.4354 26.0095 33.622 26.4628 33.7654 26.916C34.1385 28.0491 34.1524 29.2106 34.0953 30.3861C34.0668 30.9103 33.8371 31.3777 33.8232 31.9017C33.8086 32.1283 33.7083 32.3832 33.5788 32.5816C33.4354 32.8082 33.3637 33.049 33.2781 33.2898C32.8618 34.522 32.1025 35.5276 31.1704 36.4199C30.9122 36.4199 30.7826 36.5616 30.7256 36.7882C30.6971 36.7882 30.6824 36.7882 30.6539 36.7882C30.5537 36.7882 30.5105 36.8449 30.5105 36.9298C29.7072 37.5247 28.9046 38.1196 27.9441 38.502C27.1554 38.8137 26.3521 38.9694 25.5488 39.1394C24.8611 39.2952 24.1441 39.1961 23.4411 39.1678C22.7387 39.1394 22.0649 38.9694 21.3904 38.8278C21.1182 38.7712 20.86 38.6579 20.6017 38.5304C19.8562 38.1905 19.1107 37.8647 18.4654 37.369C17.8634 36.9157 17.3183 36.4058 16.7879 35.8676C16.0278 35.1027 15.6122 34.1679 15.1242 33.2473C14.6224 32.3266 14.4504 31.3634 14.3356 30.3579C14.2924 29.9754 14.1783 29.593 14.2207 29.2247C14.3356 28.1766 14.5507 27.1426 14.8953 26.137C15.2245 25.1597 15.7263 24.2816 16.3577 23.4742C16.7732 22.936 17.2034 22.3977 17.777 22.0011C17.8772 21.9303 17.9636 21.8878 18.0785 21.902C17.6914 22.3411 17.3183 22.8085 16.9452 23.2759Z" fill="#5CD200"/>
<path d="M18.0637 21.8735C18.0498 21.7035 18.1215 21.6327 18.2934 21.6469C18.2356 21.7602 18.1639 21.831 18.0637 21.8735Z" fill="#5CD200"/>
<path d="M29.9219 21.4345C30.0946 21.4203 30.1663 21.4912 30.1516 21.647C30.0367 21.6045 29.965 21.5336 29.9219 21.4345Z" fill="#5CD200"/>
<path d="M31.5576 23.4174C31.6578 23.4174 31.701 23.4741 31.701 23.5591C31.6008 23.5591 31.5576 23.5166 31.5576 23.4174Z" fill="#65DF00"/>
<path d="M30.7397 36.7456C30.7968 36.519 30.9256 36.3773 31.1838 36.3773C31.1699 36.6606 30.9548 36.7031 30.7397 36.7456Z" fill="#5FC503"/>
<path d="M30.5103 36.8873C30.5103 36.7882 30.5673 36.7457 30.6537 36.7457C30.6683 36.8448 30.6105 36.8873 30.5103 36.8873Z" fill="#5FC503"/>
<path d="M30.4102 9.52272C30.4387 9.56521 30.4673 9.6077 30.4958 9.65019C30.4958 9.69268 30.5104 9.73517 30.5104 9.77767C30.3239 9.7635 30.2236 9.66435 30.209 9.48022C30.2807 9.50855 30.3524 9.52272 30.4102 9.52272Z" fill="#F1F1F1"/>
<path d="M30.5253 9.79175C30.6394 9.86257 30.7258 9.94755 30.7543 10.0892C30.496 10.1175 30.5107 9.94755 30.5253 9.79175Z" fill="#F1F1F1"/>
<path d="M28.9477 11.888C28.4882 11.4631 28.0442 11.024 27.4991 10.7124C26.0937 9.87675 24.5742 9.63597 22.9676 9.91924C21.3047 10.2167 20.0573 11.1232 19.1253 12.4829C19.0536 12.5963 18.9672 12.6954 18.8809 12.7945C18.5941 12.6954 18.8092 12.5113 18.8524 12.4263C19.197 11.7889 19.5978 11.194 20.1861 10.7549C21.6054 9.72095 23.212 9.2677 24.9751 9.42351C25.7638 9.49432 26.4807 9.7776 27.1977 10.1175C27.843 10.4291 28.388 10.8257 28.8614 11.3498C29.0194 11.5198 29.0765 11.6897 28.9477 11.888Z" fill="#696969"/>
<path d="M28.8468 10.7126C28.8615 10.7267 28.8761 10.7409 28.8761 10.755C28.8468 10.7834 28.8183 10.8117 28.7898 10.84C28.1299 10.4151 27.4993 9.96187 26.7538 9.6786C24.9328 9.01289 23.1404 9.04122 21.3619 9.82023C21.1468 9.91938 20.9032 9.9902 20.7166 10.146C20.6164 10.231 20.4583 10.316 20.3296 10.1602C21.5199 9.26784 22.8675 8.8146 24.3446 8.84293C25.9936 8.87125 27.4561 9.39532 28.6464 10.5426C28.7181 10.6134 28.7898 10.6559 28.8468 10.7126Z" fill="#E3E3E3"/>
<path d="M28.7896 10.84C28.8181 10.8117 28.8466 10.7833 28.8759 10.755C28.9476 10.7833 29.0193 10.8117 29.0763 10.84C29.1049 10.925 29.1481 11.0241 29.1766 11.1091L29.148 11.1233C28.99 11.0949 28.9044 10.9533 28.7896 10.84Z" fill="#C9C9C9"/>
<path d="M19.6987 10.7408C19.7843 10.5708 19.9277 10.4717 20.0711 10.3726C20.0996 10.4009 20.1428 10.4292 20.1713 10.4717C20.014 10.585 19.9277 10.7833 19.6987 10.7408Z" fill="#D9D9D9"/>
<path d="M19.2974 11.1091C19.3544 11.01 19.3544 10.8117 19.5556 10.9675C19.4978 11.0525 19.4261 11.1375 19.2974 11.1091Z" fill="#B1B1B1"/>
<path d="M29.1911 11.109C29.2481 11.1515 29.3198 11.1798 29.306 11.279C29.306 11.2931 29.2628 11.3215 29.2482 11.3073C29.1479 11.279 29.1765 11.194 29.1626 11.1373C29.1626 11.1232 29.1911 11.109 29.1911 11.109Z" fill="#C9C9C9"/>
<path d="M19.6123 10.9249C19.5976 10.854 19.5976 10.7832 19.684 10.7407C19.7271 10.8257 19.6693 10.8824 19.6123 10.9249Z" fill="#D9D9D9"/>
<path d="M20.1574 10.4717C20.1288 10.4434 20.0857 10.4151 20.0571 10.3726C20.1142 10.3726 20.1859 10.3726 20.2429 10.3726C20.2144 10.4151 20.1859 10.4434 20.1574 10.4717Z" fill="#E3E3E3"/>
<path d="M19.0957 11.4069C19.1104 11.3926 19.1104 11.3782 19.1251 11.3782V11.3926C19.1104 11.3926 19.1104 11.3926 19.0957 11.4069Z" fill="#B1B1B1"/>
<path d="M19.168 11.1798C19.1965 11.1798 19.225 11.1656 19.2389 11.1656C19.2389 11.2365 19.2111 11.2648 19.168 11.1798Z" fill="#B1B1B1"/>
<path d="M19.0959 11.4065C19.0959 11.4209 19.082 11.4209 19.082 11.4352C19.082 11.4209 19.0959 11.4209 19.0959 11.4065Z" fill="#B1B1B1"/>
<path d="M17.7627 10.2309C17.7627 10.1884 17.7627 10.1317 17.7627 10.0892C17.8629 10.1034 17.9917 10.0467 18.0348 10.1884C18.0495 10.245 18.0495 10.3159 17.9917 10.3442C17.8768 10.415 17.8483 10.2734 17.7627 10.2309Z" fill="#FBFBFB"/>
<path d="M24.4736 37.0572C22.2371 36.9722 20.4015 36.3491 18.8813 34.9326C18.6376 34.706 18.394 34.4511 18.0209 34.4086C17.849 34.3945 17.7488 34.2528 17.7341 34.1111C17.62 33.3322 17.1605 32.6948 16.8884 31.9866C16.6587 31.4058 16.5446 30.7827 16.4297 30.1594C16.2285 28.998 16.4012 27.8649 16.7735 26.7884C17.1035 25.8394 17.5907 24.9613 18.2792 24.1822C19.2976 23.0208 20.5449 22.1993 22.022 21.7744C24.4597 21.0803 26.754 21.4345 28.8618 22.8934C29.6504 23.4316 30.2957 24.0831 30.8122 24.848C31.5431 25.9244 32.0018 27.1142 32.1598 28.4173C32.3464 29.8761 32.0449 31.2501 31.4713 32.5673C31.2424 33.0772 30.8978 33.5446 30.5393 33.9978C29.2488 35.6267 27.5712 36.6182 25.5205 36.9581C25.1189 37.0147 24.718 37.0856 24.4736 37.0572ZM17.9924 33.927C18.1504 34.2811 18.394 34.4511 18.7957 34.4086C19.0393 34.3802 19.2829 34.4086 19.5265 34.4086C19.5412 34.5077 19.5982 34.5786 19.6846 34.6494C20.6166 35.4 21.6489 35.9099 22.8246 36.1366C24.2015 36.4198 25.5205 36.2782 26.8257 35.825C27.5427 35.57 28.1448 35.1168 28.79 34.7627C29.1917 34.6919 29.5641 34.5219 29.8223 34.1961C29.9519 34.0262 30.1955 33.8278 29.9519 33.5729C29.9804 33.4313 30.0089 33.2897 30.0374 33.148C30.1376 33.148 30.224 33.1338 30.281 33.0347C30.4676 32.6806 30.7259 32.3549 30.8546 31.9724C31.2424 30.8959 31.4999 29.8054 31.3858 28.6439C31.2709 27.44 30.9124 26.3068 30.2093 25.3154C29.2919 24.0123 28.0731 23.0633 26.5389 22.5251C26.2375 22.1851 25.8937 22.0719 25.4635 22.2418C25.1767 22.2135 24.9038 22.171 24.617 22.1569C23.5415 22.1285 22.5239 22.3268 21.5055 22.7092C19.9999 23.2899 18.9106 24.3522 18.0502 25.6412C17.6771 26.2077 17.4473 26.8734 17.2754 27.5533C16.9316 27.6099 16.8599 27.8224 16.903 28.134C17.1605 29.8761 17.4188 31.6325 17.6624 33.3747C17.7341 33.6154 17.8058 33.7996 17.9924 33.927Z" fill="#53BB01"/>
<path d="M25.4913 22.2559C25.9215 22.086 26.2799 22.1993 26.5667 22.5392C26.825 23.1908 26.825 23.8706 26.6816 24.5505C26.5667 25.117 26.3516 25.6411 26.1936 26.1935C26.0648 26.6467 26.1936 26.8309 26.6531 26.9159C26.8682 26.9584 27.0971 26.9442 27.3122 26.93C28.1155 26.9017 28.9181 26.8592 29.7214 26.8592C30.2233 26.8592 30.6681 27.0716 30.9256 27.5249C31.1699 27.964 31.1407 28.3889 30.7822 28.7713C30.682 28.8705 30.682 28.9696 30.7536 29.0971C31.1553 29.8761 31.1121 30.131 30.453 30.7543C30.352 30.8534 30.3096 30.9242 30.3813 31.0658C30.6966 31.7032 30.6249 32.0007 30.0367 32.4256C29.8362 32.5673 29.7784 32.6805 29.9218 32.893C29.9796 32.9638 29.9935 33.063 30.0367 33.1622C30.0082 33.3038 29.9796 33.4454 29.9511 33.5871C29.8077 33.757 29.6497 33.927 29.4492 34.0545C29.42 34.0686 29.3914 34.097 29.3629 34.1111C28.8896 34.3236 28.3877 34.3377 27.8719 34.3236C26.4804 34.2669 25.1182 34.1395 23.7706 33.7853C23.0821 33.6012 22.3798 33.4596 21.6629 33.4312C21.3761 33.4171 21.3183 33.3038 21.3183 33.0488C21.2897 31.5333 21.2758 30.0319 21.218 28.5164C21.2042 28.1481 21.3044 27.9923 21.6767 27.879C22.4654 27.6524 23.1823 27.27 23.4984 26.4626C23.971 25.2162 24.688 24.0831 25.1182 22.8225C25.2045 22.5959 25.3479 22.4118 25.4913 22.2559Z" fill="#FBFCF9"/>
<path d="M25.4918 22.256C25.3484 22.4118 25.205 22.5959 25.1333 22.8084C24.7031 24.069 23.9861 25.2021 23.5128 26.4485C23.1975 27.2559 22.4805 27.6383 21.6918 27.8649C21.3187 27.964 21.2185 28.134 21.2331 28.5023C21.2902 30.0178 21.3187 31.5192 21.3334 33.0347C21.3334 33.2897 21.4051 33.403 21.6772 33.4172C22.3942 33.4454 23.0973 33.5871 23.7857 33.7712C25.1333 34.1253 26.4955 34.2528 27.8863 34.3095C28.3882 34.3236 28.9047 34.3095 29.378 34.097C29.3919 34.2245 29.2917 34.267 29.2053 34.352C29.0619 34.4795 28.8615 34.5644 28.7898 34.7769C28.1299 35.131 27.5424 35.5842 26.8255 35.8392C25.5203 36.3066 24.2012 36.4341 22.8243 36.1508C21.6348 35.91 20.6017 35.4001 19.6843 34.6636C19.6126 34.6069 19.541 34.5361 19.5263 34.4228C19.6412 34.4228 19.7414 34.4228 19.8563 34.4086C20.2579 34.3945 20.4159 34.1395 20.2726 33.7571C20.2864 31.9016 20.2864 30.032 20.2864 28.1765C20.2864 27.6808 20.2009 27.6099 19.699 27.6099C18.8957 27.5958 18.107 27.5958 17.3037 27.5958C17.4764 26.9301 17.7054 26.2502 18.0785 25.6837C18.9389 24.3947 20.0282 23.3324 21.5338 22.7518C22.5376 22.3551 23.5706 22.171 24.6461 22.1994C24.9328 22.1852 25.2196 22.2276 25.4918 22.256Z" fill="#4AA502"/>
<path d="M17.3182 27.5675C18.1215 27.5675 18.9102 27.5816 19.7127 27.5816C20.2146 27.5816 20.3009 27.6525 20.3009 28.1482C20.3009 30.0037 20.2863 31.8733 20.2863 33.7288C20.2292 33.7713 20.1861 33.8279 20.129 33.8704C20.0858 33.8846 20.0573 33.9129 20.0141 33.9271C19.3403 33.9271 18.6658 33.9271 17.992 33.9129C17.8054 33.7854 17.7337 33.6013 17.7052 33.3889C17.4469 31.6467 17.2033 29.8904 16.945 28.1482C16.9026 27.8366 16.9743 27.6241 17.3182 27.5675Z" fill="#FBFCF9"/>
<path d="M30.0651 33.1623C30.0227 33.0774 30.0081 32.9782 29.951 32.8932C29.8076 32.6949 29.8647 32.5675 30.0651 32.4258C30.6533 32.0009 30.7251 31.7034 30.4097 31.066C30.338 30.9244 30.3666 30.8536 30.4814 30.7545C31.1406 30.1312 31.1838 29.8621 30.7821 29.0973C30.7104 28.9698 30.7104 28.8707 30.8114 28.7715C31.1552 28.3891 31.1984 27.9641 30.9548 27.5251C30.6965 27.0718 30.2663 26.8594 29.7498 26.8594C28.9473 26.8594 28.144 26.9161 27.3407 26.9302C27.1256 26.9302 26.8966 26.9443 26.6815 26.9161C26.2228 26.8452 26.0933 26.6469 26.2228 26.1937C26.3801 25.6413 26.5952 25.1172 26.71 24.5507C26.8388 23.8708 26.8388 23.1909 26.5952 22.5394C28.1293 23.0776 29.3482 24.0124 30.2663 25.3297C30.9548 26.3212 31.3133 27.4401 31.442 28.6582C31.5569 29.8196 31.2986 30.9103 30.9116 31.9867C30.7821 32.355 30.5246 32.6949 30.338 33.049C30.2517 33.1481 30.1661 33.1623 30.0651 33.1623Z" fill="#4AA502"/>
<path d="M20.1292 33.8846C20.1863 33.8421 20.2294 33.7854 20.2865 33.7429C20.4299 34.1253 20.2726 34.3803 19.8709 34.3945C19.7561 34.3945 19.6559 34.3945 19.541 34.4087C19.2974 34.4087 19.0538 34.3803 18.8094 34.4087C18.4085 34.4511 18.1502 34.2812 18.0068 33.9271C18.6806 33.9271 19.3544 33.9271 20.0282 33.9412C20.0575 33.9271 20.086 33.8987 20.1292 33.8846Z" fill="#44A903"/>
<path d="M28.8042 34.7627C28.8759 34.5503 29.0763 34.4795 29.2197 34.3378C29.3061 34.2671 29.4063 34.2246 29.3916 34.0829C29.4202 34.0687 29.4495 34.0404 29.478 34.0262C29.6784 33.8988 29.8218 33.7429 29.9799 33.5588C30.2235 33.8279 29.9799 34.0262 29.8503 34.1821C29.5929 34.522 29.2197 34.692 28.8042 34.7627Z" fill="#44A903"/>
<path d="M29.4784 34.0403C29.4499 34.0545 29.4206 34.0829 29.3921 34.097C29.4206 34.0829 29.4499 34.0686 29.4784 34.0403Z" fill="#4AA502"/>
<path d="M20.129 33.8845C20.0859 33.8987 20.0573 33.927 20.0142 33.9412C20.0573 33.927 20.0859 33.8987 20.129 33.8845Z" fill="#53BB01"/>
</svg>
