<svg width="38" height="23" viewBox="0 0 38 23" fill="none" xmlns="http://www.w3.org/2000/svg">
<path d="M33.8994 1H4.03524C2.38589 1 1.04883 2.19973 1.04883 3.67968V19.7577C1.04883 21.2377 2.38589 22.4374 4.03524 22.4374H33.8994C35.5487 22.4374 36.8858 21.2377 36.8858 19.7577V3.67968C36.8858 2.19973 35.5487 1 33.8994 1Z" fill="white" stroke="#E0E0E0" stroke-width="0.759158"/>
<path d="M22.1969 14.9029H15.7373V4.43323H22.1969V14.9029Z" fill="#6C6BBD"/>
<path d="M16.1477 9.6683C16.1477 7.54446 17.2505 5.6526 18.9677 4.43342C17.7119 3.54189 16.1268 3.00977 14.4044 3.00977C10.3272 3.00977 7.02197 5.99083 7.02197 9.6683C7.02197 13.3457 10.3272 16.3268 14.4044 16.3268C16.1268 16.3268 17.7119 15.7947 18.9677 14.9031C17.2505 13.6839 16.1477 11.7921 16.1477 9.6683Z" fill="#D32011"/>
<path d="M30.913 9.6683C30.913 13.3457 27.6077 16.3268 23.5305 16.3268C21.8081 16.3268 20.2231 15.7947 18.9673 14.9031C20.6845 13.6839 21.7872 11.7921 21.7872 9.6683C21.7872 7.54446 20.6845 5.6526 18.9673 4.43342C20.2231 3.54189 21.8081 3.00977 23.5305 3.00977C27.6077 3.00977 30.913 5.99083 30.913 9.6683Z" fill="#0099DF"/>
<path d="M24.3832 17.8612C24.4691 17.8612 24.593 17.8761 24.6871 17.9095L24.5557 18.2718C24.4653 18.2384 24.375 18.2274 24.2891 18.2274C24.0099 18.2274 23.8703 18.3899 23.8703 18.682V19.6735H23.444V17.9057H23.8666V18.1203C23.9771 17.9649 24.1376 17.8612 24.3832 17.8612ZM22.8071 18.257H22.1098V19.0558C22.1098 19.2332 22.1792 19.3517 22.3928 19.3517C22.504 19.3517 22.6429 19.3183 22.7698 19.2519L22.893 19.5808C22.7579 19.6659 22.5443 19.7179 22.3599 19.7179C21.8552 19.7179 21.679 19.4737 21.679 19.0631V18.257H21.2811V17.9057H21.679V17.3693H22.1098V17.9057H22.8071V18.257ZM17.348 18.6342C17.3935 18.379 17.5652 18.205 17.8691 18.205C18.1438 18.205 18.32 18.3603 18.3656 18.6342H17.348ZM18.8083 18.7896C18.8038 18.2384 18.4268 17.8612 17.8773 17.8612C17.3032 17.8612 16.9007 18.2384 16.9007 18.7896C16.9007 19.3513 17.3196 19.7175 17.9064 19.7175C18.2013 19.7175 18.4716 19.6511 18.7098 19.4699L18.5007 19.1849C18.3365 19.3035 18.1274 19.37 17.9303 19.37C17.6563 19.37 17.4054 19.2552 17.3442 18.9373H18.8001C18.8038 18.889 18.8083 18.8412 18.8083 18.7896ZM20.6823 18.3569C20.5636 18.2901 20.3217 18.205 20.0716 18.205C19.8379 18.205 19.6983 18.2829 19.6983 18.4124C19.6983 18.5305 19.8461 18.5639 20.0305 18.586L20.2313 18.6118C20.6577 18.6677 20.916 18.8302 20.916 19.1409C20.916 19.4775 20.5882 19.7179 20.0223 19.7179C19.702 19.7179 19.4071 19.6438 19.1734 19.4885L19.3743 19.1888C19.5176 19.2887 19.7311 19.3738 20.0268 19.3738C20.318 19.3738 20.4732 19.2963 20.4732 19.1591C20.4732 19.0597 20.3627 19.0038 20.1291 18.9746L19.9282 18.9487C19.4892 18.8929 19.2511 18.7155 19.2511 18.4272C19.2511 18.0759 19.5713 17.8612 20.0671 17.8612C20.3792 17.8612 20.6621 17.9243 20.8667 18.0462L20.6823 18.3569ZM25.9421 18.2266C25.8548 18.2266 25.7734 18.2406 25.698 18.268C25.6226 18.296 25.5576 18.3349 25.5024 18.3849C25.4471 18.4348 25.4046 18.4949 25.3725 18.5648C25.3411 18.6347 25.3262 18.7117 25.3262 18.7955C25.3262 18.8797 25.3411 18.9564 25.3725 19.0262C25.4046 19.096 25.4471 19.1562 25.5024 19.2061C25.5576 19.2561 25.6226 19.295 25.698 19.323C25.7734 19.3509 25.8548 19.3645 25.9421 19.3645C26.0302 19.3645 26.1116 19.3509 26.187 19.323C26.2624 19.295 26.3281 19.2561 26.3834 19.2061C26.4386 19.1562 26.4819 19.096 26.514 19.0262C26.5454 18.9564 26.5611 18.8797 26.5611 18.7955C26.5611 18.7117 26.5454 18.6347 26.514 18.5648C26.4819 18.4949 26.4386 18.4348 26.3834 18.3849C26.3281 18.3349 26.2624 18.296 26.187 18.268C26.1116 18.2406 26.0302 18.2266 25.9421 18.2266ZM25.9421 17.8612C26.0944 17.8612 26.2348 17.885 26.3647 17.9328C26.4946 17.9802 26.6066 18.0458 26.7007 18.1292C26.7955 18.2126 26.8694 18.3112 26.9232 18.4246C26.9762 18.5385 27.0031 18.6621 27.0031 18.7955C27.0031 18.9288 26.9762 19.0525 26.9232 19.1663C26.8694 19.2798 26.7955 19.3789 26.7007 19.4622C26.6066 19.5456 26.4946 19.6108 26.3647 19.6587C26.2348 19.7061 26.0944 19.7298 25.9421 19.7298C25.7898 19.7298 25.6495 19.7061 25.5195 19.6587C25.3904 19.6108 25.2791 19.5456 25.1851 19.4622C25.091 19.3789 25.0178 19.2798 24.9641 19.1663C24.9103 19.0525 24.8834 18.9288 24.8834 18.7955C24.8834 18.6621 24.9103 18.5385 24.9641 18.4246C25.0178 18.3112 25.091 18.2126 25.1851 18.1292C25.2791 18.0458 25.3904 17.9802 25.5195 17.9328C25.6495 17.885 25.7898 17.8612 25.9421 17.8612ZM14.8565 18.7896C14.8565 18.4788 15.082 18.2236 15.4508 18.2236C15.8032 18.2236 16.0414 18.4679 16.0414 18.7896C16.0414 19.1113 15.8032 19.3552 15.4508 19.3552C15.082 19.3552 14.8565 19.1003 14.8565 18.7896ZM16.4431 18.7896V17.9057H16.0175V18.1203C15.8816 17.9611 15.6771 17.8612 15.3978 17.8612C14.8483 17.8612 14.4175 18.2494 14.4175 18.7896C14.4175 19.3293 14.8483 19.7179 15.3978 19.7179C15.6771 19.7179 15.8816 19.618 16.0175 19.4589V19.6735H16.4431V18.7896ZM14.0405 19.6735V18.5639C14.0405 18.1461 13.7449 17.8651 13.2693 17.8612C13.0192 17.8574 12.7608 17.9277 12.5801 18.1758C12.445 17.9798 12.2315 17.8612 11.9321 17.8612C11.723 17.8612 11.5185 17.9167 11.358 18.1237V17.9057H10.9316V19.6735H11.3624V18.6935C11.3624 18.3866 11.5513 18.2236 11.8417 18.2236C12.1255 18.2236 12.2688 18.3899 12.2688 18.6897V19.6735H12.6996V18.6935C12.6996 18.3866 12.8967 18.2236 13.1789 18.2236C13.4709 18.2236 13.6097 18.3899 13.6097 18.6897V19.6735H14.0405Z" fill="#110F0D"/>
</svg>
