<svg width="38" height="23" viewBox="0 0 38 23" fill="none" xmlns="http://www.w3.org/2000/svg">
<path d="M33.6606 1H3.79647C2.14712 1 0.810059 2.19973 0.810059 3.67968V19.7577C0.810059 21.2377 2.14712 22.4374 3.79647 22.4374H33.6606C35.31 22.4374 36.647 21.2377 36.647 19.7577V3.67968C36.647 2.19973 35.31 1 33.6606 1Z" fill="white" stroke="#E0E0E0" stroke-width="0.759158"/>
<path d="M10.5152 19.6779V18.6137C10.5152 18.2058 10.2194 17.9398 9.71238 17.9398C9.45884 17.9398 9.18416 18.0107 8.994 18.2413C8.8461 18.0462 8.63489 17.9398 8.31795 17.9398C8.10666 17.9398 7.89538 17.993 7.72635 18.188V17.9752H7.28271V19.6779H7.72635V18.7379C7.72635 18.4364 7.91651 18.2945 8.21231 18.2945C8.50812 18.2945 8.65602 18.4541 8.65602 18.7379V19.6779H9.09965V18.7379C9.09965 18.4364 9.31094 18.2945 9.58561 18.2945C9.88142 18.2945 10.0292 18.4541 10.0292 18.7379V19.6779H10.5152ZM17.0858 17.9752H16.3675V17.4608H15.9238V17.9752H15.5224V18.3122H15.9238V19.0926C15.9238 19.4828 16.114 19.7134 16.6211 19.7134C16.8112 19.7134 17.0225 19.6602 17.1704 19.5892L17.0436 19.27C16.9168 19.3409 16.7689 19.3587 16.6633 19.3587C16.4521 19.3587 16.3675 19.2523 16.3675 19.0749V18.3122H17.0858V17.9752ZM20.8466 17.9398C20.593 17.9398 20.424 18.0462 20.3183 18.188V17.9752H19.8747V19.6779H20.3183V18.7202C20.3183 18.4364 20.4662 18.2767 20.7409 18.2767C20.8254 18.2767 20.9311 18.2945 21.0156 18.3122L21.1423 17.9575C21.0579 17.9398 20.9311 17.9398 20.8466 17.9398ZM15.1633 18.1171C14.952 17.993 14.6562 17.9398 14.3393 17.9398C13.8322 17.9398 13.4942 18.1526 13.4942 18.4896C13.4942 18.7734 13.7477 18.933 14.1914 18.9862L14.4026 19.0039C14.635 19.0394 14.7618 19.0926 14.7618 19.1813C14.7618 19.3055 14.5928 19.3942 14.2971 19.3942C14.0013 19.3942 13.7688 19.3055 13.6209 19.2168L13.4096 19.5005C13.6421 19.6424 13.959 19.7134 14.2759 19.7134C14.8675 19.7134 15.2055 19.4828 15.2055 19.1636C15.2055 18.862 14.9309 18.7024 14.5083 18.6492L14.2971 18.6315C14.1069 18.6137 13.959 18.5783 13.959 18.4718C13.959 18.3477 14.1069 18.2767 14.3393 18.2767C14.5928 18.2767 14.8463 18.3654 14.9731 18.4186L15.1633 18.1171ZM26.9524 17.9398C26.6988 17.9398 26.5299 18.0462 26.4242 18.188V17.9752H25.9805V19.6779H26.4242V18.7202C26.4242 18.4364 26.5721 18.2767 26.8467 18.2767C26.9312 18.2767 27.0369 18.2945 27.1214 18.3122L27.2482 17.9575C27.1637 17.9398 27.0369 17.9398 26.9524 17.9398ZM21.2902 18.8265C21.2902 19.3409 21.7128 19.7134 22.3677 19.7134C22.6635 19.7134 22.8748 19.6602 23.0861 19.5183L22.8748 19.2168C22.7058 19.3232 22.5367 19.3764 22.3466 19.3764C21.9874 19.3764 21.7339 19.1636 21.7339 18.8265C21.7339 18.5073 21.9874 18.2945 22.3466 18.2767C22.5367 18.2767 22.7058 18.3299 22.8748 18.4364L23.0861 18.1349C22.8748 17.993 22.6635 17.9398 22.3677 17.9398C21.7128 17.9398 21.2902 18.3122 21.2902 18.8265ZM25.389 18.8265V17.9752H24.9453V18.188C24.7974 18.0285 24.5861 17.9398 24.3115 17.9398C23.741 17.9398 23.2974 18.3122 23.2974 18.8265C23.2974 19.3409 23.741 19.7134 24.3115 19.7134C24.6072 19.7134 24.8185 19.6247 24.9453 19.4651V19.6779H25.389V18.8265ZM23.7621 18.8265C23.7621 18.5251 23.9945 18.2767 24.3749 18.2767C24.734 18.2767 24.9875 18.5073 24.9875 18.8265C24.9875 19.1281 24.734 19.3764 24.3749 19.3764C23.9945 19.3587 23.7621 19.1281 23.7621 18.8265ZM18.4591 17.9398C17.8675 17.9398 17.445 18.2945 17.445 18.8265C17.445 19.3587 17.8675 19.7134 18.4803 19.7134C18.7761 19.7134 19.0718 19.6424 19.3042 19.4828L19.0929 19.2168C18.9239 19.3232 18.7127 19.3942 18.5014 19.3942C18.2267 19.3942 17.9521 19.2877 17.8887 18.9862H19.3887V18.8443C19.4099 18.2945 19.0296 17.9398 18.4591 17.9398ZM18.4591 18.259C18.7338 18.259 18.9239 18.4009 18.9662 18.667H17.9098C17.9521 18.4364 18.1422 18.259 18.4591 18.259ZM29.4666 18.8265V17.3013H29.0228V18.188C28.875 18.0285 28.6637 17.9398 28.3891 17.9398C27.8186 17.9398 27.3749 18.3122 27.3749 18.8265C27.3749 19.3409 27.8186 19.7134 28.3891 19.7134C28.6849 19.7134 28.8961 19.6247 29.0228 19.4651V19.6779H29.4666V18.8265ZM27.8397 18.8265C27.8397 18.5251 28.0721 18.2767 28.4524 18.2767C28.8116 18.2767 29.0651 18.5073 29.0651 18.8265C29.0651 19.1281 28.8116 19.3764 28.4524 19.3764C28.0721 19.3587 27.8397 19.1281 27.8397 18.8265ZM13.0083 18.8265V17.9752H12.5646V18.188C12.4167 18.0285 12.2054 17.9398 11.9308 17.9398C11.3603 17.9398 10.9167 18.3122 10.9167 18.8265C10.9167 19.3409 11.3603 19.7134 11.9308 19.7134C12.2265 19.7134 12.4378 19.6247 12.5646 19.4651V19.6779H13.0083V18.8265ZM11.3603 18.8265C11.3603 18.5251 11.5927 18.2767 11.973 18.2767C12.3321 18.2767 12.5857 18.5073 12.5857 18.8265C12.5857 19.1281 12.3321 19.3764 11.973 19.3764C11.5927 19.3587 11.3603 19.1281 11.3603 18.8265Z" fill="black"/>
<path d="M21.6703 5.04529H15.0151V15.084H21.6703V5.04529Z" fill="#FF5F00"/>
<path d="M15.4379 10.0648C15.4379 8.02507 16.5788 6.21598 18.3323 5.04539C17.0435 4.19404 15.4168 3.67969 13.642 3.67969C9.43766 3.67969 6.03613 6.53524 6.03613 10.0648C6.03613 13.5943 9.43766 16.4498 13.642 16.4498C15.4168 16.4498 17.0435 15.9355 18.3323 15.0841C16.5788 13.9313 15.4379 12.1045 15.4379 10.0648Z" fill="#EB001B"/>
<path d="M30.6497 10.0648C30.6497 13.5943 27.2482 16.4499 23.0438 16.4499C21.2691 16.4499 19.6423 15.9355 18.3535 15.0842C20.1282 13.9136 21.248 12.1045 21.248 10.0648C21.248 8.02512 20.1071 6.21599 18.3535 5.04539C19.6423 4.19405 21.2691 3.67969 23.0438 3.67969C27.2482 3.67969 30.6497 6.55298 30.6497 10.0648Z" fill="#F79E1B"/>
</svg>
