<svg width="88" height="49" viewBox="0 0 88 49" fill="none" xmlns="http://www.w3.org/2000/svg">
<path d="M18.725 11.9875C11.725 11.9875 6.125 17.5875 6.125 24.5C6.125 31.4125 11.725 37.1 18.725 37.1H71.05C77.9625 37.1 83.65 31.5 83.65 24.5C83.65 17.5875 78.05 11.9 71.05 11.9H18.725V11.9875Z" fill="white"/>
<path d="M71.0497 38.15H18.7247C11.1997 38.15 5.07471 32.025 5.07471 24.5C5.07471 16.975 11.1997 10.85 18.7247 10.85H71.0497C78.5747 10.85 84.6997 16.975 84.6997 24.5C84.6997 32.025 78.5747 38.15 71.0497 38.15ZM18.7247 11.9875C11.7247 11.9875 6.12471 17.5875 6.12471 24.5C6.12471 31.4125 11.7247 37.1 18.7247 37.1H71.0497C77.9622 37.1 83.6497 31.5 83.6497 24.5C83.6497 17.5875 78.0497 11.9 71.0497 11.9H18.7247V11.9875Z" fill="#CFCFCF"/>
<path d="M64.7497 16.8875C62.7372 16.8875 61.0747 18.55 61.0747 20.5625C61.0747 22.575 62.7372 24.2375 64.7497 24.2375C66.7622 24.2375 68.4247 22.575 68.4247 20.5625C68.4247 18.55 66.7622 16.8875 64.7497 16.8875ZM64.7497 22.4875C63.6997 22.4875 62.8247 21.6125 62.8247 20.5625C62.8247 19.5125 63.6997 18.6375 64.7497 18.6375C65.7997 18.6375 66.6747 19.5125 66.6747 20.5625C66.6747 21.6125 65.7997 22.4875 64.7497 22.4875Z" fill="#1D1D1B"/>
<path d="M47.8625 16.8875C45.85 16.8875 44.1875 18.55 44.1875 20.5625C44.1875 22.575 45.85 24.2375 47.8625 24.2375C49.875 24.2375 51.5375 22.575 51.5375 20.5625C51.5375 18.55 49.875 16.8875 47.8625 16.8875ZM47.8625 22.4875C46.8125 22.4875 45.9375 21.6125 45.9375 20.5625C45.9375 19.5125 46.8125 18.6375 47.8625 18.6375C48.9125 18.6375 49.7875 19.5125 49.7875 20.5625C49.7875 21.6125 48.9125 22.4875 47.8625 22.4875Z" fill="#1D1D1B"/>
<path d="M60.8126 22.575C60.5501 22.6625 60.2001 22.75 60.1126 22.75C59.5001 22.75 59.3251 22.575 59.3251 21.9625V18.55H60.8126V17.15H59.3251V15.1375H57.6626L57.3126 17.15H56.1751H56.0001C55.0376 17.15 54.3376 17.7625 53.8126 18.6375L53.2001 17.15H51.9751V24.2375H54.0751V21.175C54.0751 19.6 54.9501 18.6375 56.0876 18.6375H57.2251V22.1375C57.2251 23.8 58.1001 24.4125 59.4126 24.4125C60.1126 24.4125 60.6376 24.2375 60.9876 24.15L60.8126 22.575Z" fill="#1D1D1B"/>
<path d="M70.9622 19.25V24.0625H68.9497V17.0625H70.1747L70.5247 18.1125" fill="#1D1D1B"/>
<path d="M70.5249 18.1125C71.1374 17.4125 72.0124 16.8875 72.9749 16.8875C74.6374 16.8875 75.3374 18.2 75.3374 19.5125V24.15H73.2374V19.6C73.2374 18.9875 72.7124 18.6375 72.1874 18.6375C71.5749 18.6375 71.2249 18.9875 70.8749 19.3375" fill="#1D1D1B"/>
<path d="M36.1372 14.525H38.4122L41.5622 20.5625V14.525H43.4872V24.15H41.3872L37.9747 17.5V24.15H36.1372V14.525Z" fill="#1D1D1B"/>
<path d="M81.4625 10.85V11.2H81.025V12.95H80.5875V11.2H80.0625V10.85H81.4625Z" fill="#B1B1B1"/>
<path d="M81.7251 12.95V10.85H82.3376L82.6876 12.25L83.0376 10.85H83.5626V12.95H83.2126V11.2875L82.7751 12.95H82.5126L82.0751 11.2875V12.95H81.7251Z" fill="#B1B1B1"/>
<path d="M35.5249 32.6375L35.9624 31.8501C36.3124 32.1126 36.9249 32.375 37.6249 32.375C38.3249 32.375 38.7624 32.025 38.7624 31.5C38.7624 30.8875 38.2374 30.7125 37.3624 30.3625C36.5749 30.1 35.7874 29.6625 35.7874 28.525C35.7874 27.475 36.6624 26.8625 37.7124 26.8625C38.4999 26.8625 39.0249 27.0375 39.4624 27.3L39.1124 28.0875C38.7624 27.9125 38.3249 27.7375 37.7999 27.7375C37.1874 27.7375 36.8374 28 36.8374 28.4375C36.8374 29.05 37.2749 29.1375 38.0624 29.4C38.9374 29.6625 39.8124 30.1 39.8124 31.325C39.8124 32.375 39.0249 33.075 37.7124 33.075C36.6624 33.3375 35.9624 32.9875 35.5249 32.6375Z" fill="#B1B1B1"/>
<path d="M41.6499 27.125H45.2374V28H42.6999V29.6625H44.7124V30.45H42.6999V32.375H45.4124V33.25H41.6499V27.125Z" fill="#B1B1B1"/>
<path d="M46.8999 30.1875C46.8999 28.4375 47.7749 27.0375 49.4374 27.0375C50.2249 27.0375 50.8374 27.3 51.1874 27.7375L50.5749 28.4375C50.2249 28.0875 49.8749 27.9125 49.4374 27.9125C48.4749 27.9125 47.9499 28.7 47.9499 30.275C47.9499 31.675 48.4749 32.375 49.4374 32.375C49.9624 32.375 50.3999 32.1125 50.6624 31.7625L51.2749 32.4625C50.8374 32.9875 50.3124 33.3375 49.3499 33.3375C47.7749 33.3375 46.8999 31.9375 46.8999 30.1875Z" fill="#B1B1B1"/>
<path d="M53.0249 30.8875V27.125H54.0749V31.0625C54.0749 31.9375 54.2499 32.4625 55.2124 32.4625C56.0874 32.4625 56.3499 31.9375 56.3499 31.0625V27.125H57.3999V30.8875C57.3999 32.375 56.7874 33.3375 55.2124 33.3375C53.6374 33.3375 53.0249 32.375 53.0249 30.8875Z" fill="#B1B1B1"/>
<path d="M63.7001 33.25H62.5626L61.4251 30.625H60.4626V33.25H59.4126V27.125H61.4251C62.6501 27.125 63.6126 27.5625 63.6126 28.875C63.6126 29.75 63.0876 30.275 62.4751 30.45L63.7001 33.25ZM61.3376 29.8375C62.1251 29.8375 62.4751 29.575 62.4751 28.875C62.4751 28.175 62.0376 27.9125 61.3376 27.9125H60.3751V29.75H61.3376V29.8375Z" fill="#B1B1B1"/>
<path d="M65.4497 27.125H69.1247V28H66.4997V29.6625H68.5997V30.45H66.4997V32.375H69.2997V33.25H65.4497V27.125Z" fill="#B1B1B1"/>
<path d="M71.0503 27.125H72.5378C74.5503 27.125 75.5128 28.175 75.5128 30.1875C75.5128 32.2 74.5503 33.25 72.6253 33.25H71.0503V27.125ZM72.5378 32.375C73.9378 32.375 74.4628 31.675 74.4628 30.1C74.4628 28.7 74.1128 27.9125 72.7128 27.9125H72.1878V32.375H72.5378Z" fill="#B1B1B1"/>
<path d="M18.6375 39.2001C10.5 39.2001 3.9375 32.6376 3.9375 24.5001C3.9375 16.3625 10.5 9.80005 18.6375 9.80005C26.775 9.80005 33.3375 16.3625 33.3375 24.5001C33.3375 32.6376 26.775 39.2001 18.6375 39.2001ZM18.6375 14.4376C15.925 14.4376 13.3875 15.4876 11.55 17.4126C9.625 19.3376 8.575 21.8751 8.575 24.5001C8.575 27.2126 9.625 29.7501 11.55 31.5876C13.475 33.5126 16.0125 34.5626 18.6375 34.5626C21.35 34.5626 23.8875 33.5126 25.725 31.5876C27.65 29.6626 28.7 27.1251 28.7 24.5001C28.7 21.7876 27.65 19.2501 25.725 17.4126C23.8 15.4876 21.35 14.4376 18.6375 14.4376Z" fill="#FCC200"/>
<path d="M35.7874 7.52502H34.6499V8.66252H35.7874V7.52502Z" fill="#FCC200"/>
<path d="M35.7874 5.25H34.6499V6.3875H35.7874V5.25Z" fill="#FCC200"/>
<path d="M32.4626 8.66248H31.4126V9.79998H32.4626V8.66248Z" fill="#FCC200"/>
<path d="M30.3625 10.85H29.3125V11.9H30.3625V10.85Z" fill="#1D1D1B"/>
<path d="M33.6874 9.80005H32.4624V10.85H33.6874V9.80005Z" fill="#1D1D1B"/>
<path d="M29.3122 9.88745H28.2622V10.9375H29.3122V9.88745Z" fill="#1D1D1B"/>
<path d="M32.4626 10.85H31.4126V11.9H32.4626V10.85Z" fill="#1D1D1B"/>
<path d="M34.6497 6.38745H33.5122V7.52495H34.6497V6.38745Z" fill="#1D1D1B"/>
<path d="M33.5126 7.52502H31.4126V8.66252H33.5126V7.52502Z" fill="#1D1D1B"/>
<path d="M31.4128 8.66248H30.3628V10.85H31.4128V8.66248Z" fill="#1D1D1B"/>
<path d="M30.3622 11.9875V13.0375H29.3122V11.9875H27.5622V12.775H26.5997V13.7375H27.6497V14.7875H26.5997V13.7375H25.3747V15.4H24.3247V16.45H23.6247V17.5H22.8372C21.9622 18.8125 19.7747 22.925 19.0747 24.5876C16.6247 21.2625 14.7872 19.8625 13.2997 19.425C12.5122 19.1625 11.5497 20.0375 12.8622 21.4375C15.9247 24.7625 16.8872 27.5626 17.7622 29.7501C18.2872 30.8876 20.4747 31.0626 20.9122 29.9251C21.8747 27.3876 23.1872 24.5876 24.7622 22.3125V21.0876H25.6372V20.0376H26.5122V18.8125H27.5622V17.5875H26.5122V16.45H27.5622V17.5875H28.6122V16.5375H29.4872V15.225H30.4497V14.35H31.4122V11.9875H30.3622Z" fill="#1D1D1B"/>
<path d="M9.625 44.275H10.4125V44.8875C10.675 44.5375 11.025 44.1875 11.6375 44.1875C12.5125 44.1875 13.3 44.8875 13.3 46.025C13.3 47.1625 12.5125 47.8625 11.6375 47.8625C11.025 47.8625 10.675 47.6 10.4125 47.25V48.825H9.625V44.275ZM12.425 46.025C12.425 45.325 11.9875 44.8875 11.4625 44.8875C10.9375 44.8875 10.4125 45.325 10.4125 46.025C10.4125 46.725 10.85 47.1625 11.4625 47.1625C11.9875 47.1625 12.425 46.725 12.425 46.025Z" fill="#B1B1B1"/>
<path d="M13.9126 46.025C13.9126 44.975 14.7001 44.1875 15.7501 44.1875C16.8001 44.1875 17.5876 44.975 17.5876 46.025C17.5876 46.9875 16.8001 47.8625 15.6626 47.8625C14.7001 47.8625 13.9126 46.9875 13.9126 46.025ZM16.8876 46.025C16.8876 45.4125 16.4501 44.8875 15.8376 44.8875C15.2251 44.8875 14.7876 45.4125 14.7876 46.025C14.7876 46.6375 15.2251 47.1625 15.8376 47.1625C16.4501 47.1625 16.8876 46.6375 16.8876 46.025Z" fill="#B1B1B1"/>
<path d="M18.0249 44.275H18.8999L19.5999 46.6375L20.3874 44.275H21.0874L21.8749 46.6375L22.5749 44.275H23.3624L22.2249 47.775H21.5249L20.7374 45.4125L19.9499 47.775H19.1624L18.0249 44.275Z" fill="#B1B1B1"/>
<path d="M23.8003 46.025C23.8003 44.975 24.5003 44.1875 25.5503 44.1875C26.6878 44.1875 27.2128 45.0625 27.2128 46.1125C27.2128 46.2 27.2128 46.2875 27.2128 46.375H24.5878C24.6753 46.9875 25.1128 47.25 25.6378 47.25C25.9878 47.25 26.3378 47.075 26.6003 46.8125L27.0378 47.25C26.6878 47.6 26.2503 47.8625 25.5503 47.8625C24.5878 47.8625 23.8003 47.075 23.8003 46.025ZM26.3378 45.7625C26.2503 45.2375 25.9878 44.8 25.4628 44.8C24.9378 44.8 24.5878 45.15 24.5878 45.7625H26.3378Z" fill="#B1B1B1"/>
<path d="M28 44.275H28.7875V45.0625C29.05 44.5375 29.4 44.1875 30.0125 44.1875V45.0625H29.925C29.225 45.0625 28.7 45.5 28.7 46.4625V47.775H28V44.275Z" fill="#B1B1B1"/>
<path d="M30.5376 46.025C30.5376 44.975 31.2376 44.1875 32.2876 44.1875C33.4251 44.1875 33.9501 45.0625 33.9501 46.1125C33.9501 46.2 33.9501 46.2875 33.9501 46.375H31.3251C31.4126 46.9875 31.8501 47.25 32.3751 47.25C32.7251 47.25 33.0751 47.075 33.3376 46.8125L33.7751 47.25C33.4251 47.6875 32.9876 47.95 32.3751 47.95C31.3251 47.8625 30.5376 47.075 30.5376 46.025ZM33.1626 45.7625C33.0751 45.2375 32.8126 44.8 32.2876 44.8C31.7626 44.8 31.4126 45.15 31.4126 45.7625H33.1626Z" fill="#B1B1B1"/>
<path d="M34.5625 46.025C34.5625 44.8875 35.35 44.1875 36.225 44.1875C36.8375 44.1875 37.1875 44.45 37.45 44.8V42.875H38.2375V47.775H37.45V47.1625C37.1875 47.5125 36.75 47.8625 36.225 47.8625C35.35 47.8625 34.5625 47.1625 34.5625 46.025ZM37.45 46.025C37.45 45.325 37.0125 44.8875 36.4 44.8875C35.875 44.8875 35.35 45.325 35.35 46.025C35.35 46.725 35.7875 47.1625 36.4 47.1625C36.925 47.1625 37.45 46.725 37.45 46.025Z" fill="#B1B1B1"/>
<path d="M41.9999 47.25V47.775H41.2124V42.875H41.9999V44.8C42.2624 44.45 42.6124 44.1 43.2249 44.1C44.0999 44.1 44.8874 44.8 44.8874 45.9375C44.8874 47.075 44.0999 47.775 43.2249 47.775C42.6124 47.8625 42.2624 47.5125 41.9999 47.25ZM44.0124 46.025C44.0124 45.325 43.5749 44.8875 43.0499 44.8875C42.5249 44.8875 41.9999 45.325 41.9999 46.025C41.9999 46.725 42.4374 47.1625 43.0499 47.1625C43.5749 47.1625 44.0124 46.725 44.0124 46.025Z" fill="#B1B1B1"/>
<path d="M45.4124 48.65L45.6749 48.0375C45.8499 48.125 45.9374 48.2125 46.1124 48.2125C46.3749 48.2125 46.4624 48.125 46.6374 47.775L45.1499 44.275H46.0249L46.9874 46.9L47.8624 44.275H48.7374L47.3374 47.8625C47.0749 48.5625 46.7249 48.825 46.1999 48.825C45.8499 48.825 45.6749 48.7375 45.4124 48.65Z" fill="#B1B1B1"/>
<path d="M51.1875 43.1375H52.0625L53.4625 46.725L54.8625 43.1375H55.7375L53.8125 47.775H53.1125L51.1875 43.1375Z" fill="#A40344"/>
<path d="M55.9126 46.025C55.9126 44.975 56.6126 44.1875 57.6626 44.1875C58.8001 44.1875 59.3251 45.0625 59.3251 46.1125C59.3251 46.2 59.3251 46.2875 59.3251 46.375H56.7876C56.8751 46.9875 57.3126 47.25 57.8376 47.25C58.1876 47.25 58.5376 47.075 58.8001 46.8125L59.2376 47.25C58.8001 47.6 58.3626 47.8625 57.7501 47.8625C56.7001 47.8625 55.9126 47.075 55.9126 46.025ZM58.5376 45.7625C58.4501 45.2375 58.1876 44.8 57.6626 44.8C57.1376 44.8 56.7876 45.15 56.7876 45.7625H58.5376Z" fill="#A40344"/>
<path d="M60.1128 44.275H60.9003V45.0625C61.1628 44.5375 61.5128 44.1875 62.1253 44.1875V45.0625C61.4253 45.0625 60.9003 45.5 60.9003 46.4625V47.775H60.1128V44.275Z" fill="#A40344"/>
<path d="M62.8247 42.9625H63.6997V43.75H62.8247V42.9625ZM62.9122 44.275H63.6997V47.775H62.9122V44.275Z" fill="#A40344"/>
<path d="M64.4878 47.075L65.0128 46.4626C65.4503 46.8126 65.8878 47.075 66.5003 47.075C67.0253 47.075 67.2878 46.8126 67.2878 46.4626C67.2878 46.1126 67.1128 45.9375 66.2378 45.7625C65.2753 45.5875 64.7503 45.2375 64.7503 44.3625C64.7503 43.575 65.4503 43.05 66.3253 43.05C67.0253 43.05 67.5503 43.225 67.9878 43.6625L67.5503 44.2751C67.1128 43.9251 66.6753 43.8376 66.3253 43.8376C65.8878 43.8376 65.5378 44.1 65.5378 44.3625C65.5378 44.7125 65.7128 44.8875 66.6753 45.0625C67.6378 45.325 68.1628 45.6751 68.1628 46.4626C68.1628 47.3376 67.4628 47.8625 66.5003 47.8625C65.8003 47.8625 65.1003 47.6 64.4878 47.075Z" fill="#A40344"/>
<path d="M69.0376 42.9625H69.9126V43.75H69.0376V42.9625ZM69.0376 44.275H69.8251V47.775H69.0376V44.275Z" fill="#A40344"/>
<path d="M70.8747 48.3875L71.1372 47.775C71.4872 48.0375 71.9247 48.125 72.3622 48.125C73.0622 48.125 73.4997 47.775 73.4997 47.075V46.8125C73.2372 47.1625 72.7997 47.425 72.2747 47.425C71.4872 47.425 70.6997 46.8125 70.6997 45.7625C70.6997 44.7125 71.4872 44.1 72.2747 44.1C72.8872 44.1 73.2372 44.3625 73.4997 44.7125V44.1875H74.2872V46.9875C74.2872 47.6 74.1122 48.0375 73.8497 48.3C73.4997 48.65 73.0622 48.7375 72.3622 48.7375C71.8372 48.825 71.3122 48.65 70.8747 48.3875ZM73.4997 45.85C73.4997 45.2375 73.0622 44.8875 72.4497 44.8875C71.9247 44.8875 71.4872 45.2375 71.4872 45.85C71.4872 46.4625 71.9247 46.8125 72.4497 46.8125C73.0622 46.8125 73.4997 46.375 73.4997 45.85Z" fill="#A40344"/>
<path d="M75.3374 44.275H76.1249V44.8C76.3874 44.45 76.6499 44.1875 77.2624 44.1875C78.0499 44.1875 78.4874 44.7125 78.4874 45.5V47.775H77.6999V45.7625C77.6999 45.2375 77.4374 44.8875 76.9124 44.8875C76.4749 44.8875 76.1249 45.2375 76.1249 45.7625V47.775H75.3374V44.275Z" fill="#A40344"/>
</svg>
