<svg width="91" height="49" viewBox="0 0 91 49" fill="none" xmlns="http://www.w3.org/2000/svg">
<g clip-path="url(#clip0_1738_704)">
<path d="M33.609 14.7822H69.9012C73.5421 14.7822 76.5632 15.9446 79.1583 18.3083C81.6759 20.6332 82.9153 23.4231 82.9541 26.833H83.4576H82.9541C82.9153 30.1654 81.6759 32.9166 79.1583 35.2803C76.602 37.6439 73.5421 38.8451 69.9012 38.8451H33.609C33.3379 38.8451 33.1055 39.0776 33.1055 39.3489C33.1055 39.6201 33.3379 39.8526 33.609 39.8526H69.9012C73.7745 39.8526 77.1055 38.5739 79.8555 36.0165C82.5667 33.4978 83.9611 30.3979 83.9611 26.7943C83.9224 23.1519 82.5667 20.0133 79.8167 17.5333C77.0667 15.0147 73.7358 13.736 69.8625 13.736H33.609C33.3379 13.736 33.1055 13.9685 33.1055 14.2397C33.1055 14.5497 33.3379 14.7822 33.609 14.7822ZM33.609 14.7822H69.9012C73.5421 14.7822 76.5632 15.9446 79.1583 18.3083C81.6759 20.6332 82.9153 23.4231 82.9541 26.833H83.4576H82.9541C82.9153 30.1654 81.6759 32.9166 79.1583 35.2803C76.602 37.6439 73.5421 38.8451 69.9012 38.8451H33.609C33.3379 38.8451 33.1055 39.0776 33.1055 39.3489C33.1055 39.6201 33.3379 39.8526 33.609 39.8526H69.9012C73.7745 39.8526 77.1055 38.5739 79.8555 36.0165C82.5667 33.4978 83.9611 30.3979 83.9611 26.7943C83.9224 23.1519 82.5667 20.0133 79.8167 17.5333C77.0667 15.0147 73.7358 13.736 69.8625 13.736H33.609C33.3379 13.736 33.1055 13.9685 33.1055 14.2397C33.1055 14.5497 33.3379 14.7822 33.609 14.7822Z" fill="#9B0033"/>
<path fill-rule="evenodd" clip-rule="evenodd" d="M30.3944 14.5109C32.4859 15.7121 34.1127 17.3783 35.3134 19.3933C36.5141 21.4857 37.1338 23.7719 37.1725 26.2905C37.1338 28.8867 36.5141 31.2116 35.3134 33.2266C34.1127 35.2802 32.4859 36.9464 30.3944 38.1864C28.3416 39.3876 26.0563 40.0076 23.5 40.0463C20.9437 40.0076 18.6585 39.3876 16.6056 38.1864C14.5141 36.9464 12.8873 35.2802 11.7254 33.2653C10.4472 31.2116 9.8662 28.9255 9.82747 26.3293C9.8662 23.8106 10.4472 21.4857 11.7254 19.432C12.8873 17.3783 14.5528 15.7509 16.6056 14.5497C18.6585 13.3485 20.9824 12.6897 23.5 12.651C26.0176 12.651 28.3416 13.3097 30.3944 14.5109ZM23.4613 9.86108C20.4014 9.89983 17.6127 10.6361 15.1338 12.1085C12.6937 13.581 10.757 15.5571 9.24648 17.9983C7.77465 20.4782 7.03873 23.2681 7 26.3293C7.03873 29.3904 7.77465 32.1803 9.24648 34.6603C10.757 37.1402 12.6937 39.1164 15.1338 40.6276C17.6127 42.0613 20.4014 42.7975 23.4613 42.875C26.5599 42.8362 29.3486 42.1 31.8275 40.6276C34.3063 39.1164 36.2817 37.1402 37.7535 34.6603C39.1866 32.1803 39.9613 29.3904 40 26.3293C39.9613 23.2681 39.2254 20.4782 37.7535 17.9983C36.2817 15.5571 34.3063 13.581 31.8275 12.1085C29.3486 10.6361 26.5599 9.89983 23.4613 9.86108Z" fill="#9B0033"/>
<path d="M44.1831 21.5632H45.3063L46.5458 24.8956L47.7852 21.5632H48.8697L47.0106 26.2906H46.081L44.1831 21.5632Z" fill="#9B0033"/>
<path d="M57.3135 22.687H58.3593V26.2906H57.3135V22.687ZM57.2748 21.3695H58.3593V22.2607H57.2748V21.3695ZM54.06 22.687H55.067V23.3844C55.1832 23.1519 55.3382 22.9582 55.4931 22.8032C55.648 22.6482 55.8804 22.5707 56.1903 22.6095V23.6944H56.1515C55.7642 23.6944 55.5318 23.8107 55.3382 24.0044C55.1445 24.1982 55.0283 24.5469 55.0283 24.9731V26.2906H54.0213V22.687H54.06ZM51.8522 24.1982C51.8135 23.9657 51.736 23.8107 51.6198 23.6169C51.5036 23.5007 51.31 23.4232 51.1163 23.4232C50.8839 23.4232 50.729 23.5007 50.5741 23.6169C50.4579 23.7719 50.3417 23.9657 50.3029 24.1982H51.8522ZM51.1938 26.3681C50.9614 26.3681 50.6903 26.2906 50.4579 26.2131C50.2255 26.1356 50.0318 26.0194 49.8382 25.8256C49.6832 25.6706 49.567 25.4769 49.4508 25.2444C49.3346 25.0119 49.2959 24.7406 49.2959 24.4694C49.2959 24.1982 49.3346 23.9657 49.4121 23.7332C49.5283 23.5007 49.6058 23.3069 49.7994 23.1132C49.9544 22.9582 50.148 22.8032 50.3804 22.7257C50.6128 22.6095 50.8452 22.6095 51.1163 22.6095C51.4262 22.6095 51.6586 22.687 51.891 22.7645C52.1234 22.8807 52.2783 22.997 52.4332 23.1907C52.5494 23.3457 52.6656 23.5782 52.7818 23.8107C52.8593 24.0432 52.898 24.3144 52.898 24.5469L52.8593 24.6631V24.7794H50.3804C50.4191 25.0119 50.4966 25.1669 50.6903 25.3219C50.8452 25.4381 51.0389 25.4769 51.2713 25.4769C51.4262 25.4769 51.5811 25.4381 51.736 25.3606C51.8522 25.3219 51.9684 25.2444 52.1234 25.0894L52.7044 25.5931C52.5494 25.8256 52.317 25.9806 52.0846 26.0969C51.8135 26.2906 51.5424 26.3681 51.1938 26.3681Z" fill="#9B0033"/>
<path d="M61.4965 26.3293C61.1092 26.3293 60.7993 26.2518 60.412 26.1355C60.0634 26.0193 59.7923 25.8255 59.4824 25.5543L60.1021 24.8568C60.2958 25.0118 60.4895 25.1668 60.7219 25.2443C60.9543 25.3605 61.1866 25.3993 61.4578 25.3993C61.6902 25.3993 61.8451 25.3605 61.9613 25.283C62.0775 25.2055 62.1162 25.128 62.1162 24.9731V24.7793L61.9613 24.6631L61.6902 24.5468L61.1866 24.3918L60.5669 24.2368L60.0634 23.9656L59.7535 23.5781C59.6761 23.4231 59.6373 23.2294 59.6373 22.9969V22.9581L59.7535 22.3769C59.8697 22.2219 59.9472 22.0281 60.1409 21.9506C60.2571 21.8344 60.4507 21.7182 60.6444 21.6407C60.8381 21.5632 61.0704 21.5244 61.3028 21.5244C61.6514 21.5244 61.9226 21.6019 62.2324 21.6794C62.5423 21.7957 62.8134 21.9119 63.0458 22.1056L62.5035 22.8806L61.8838 22.5319C61.6902 22.4156 61.4965 22.4156 61.2641 22.4156C61.0705 22.4156 60.9155 22.4544 60.8381 22.5319C60.7219 22.6094 60.6831 22.6869 60.6831 22.8031V22.8419L60.7606 23.0356L60.8768 23.1519L61.2254 23.2681L61.7289 23.3844L62.3486 23.6168C62.5035 23.6943 62.6972 23.7718 62.8134 23.8881L63.0845 24.2756C63.162 24.4306 63.2007 24.6243 63.2007 24.8181V24.8568C63.2007 25.0893 63.162 25.283 63.0845 25.4768C63.0071 25.6318 62.9296 25.8255 62.7359 25.9418C62.581 26.058 62.3873 26.1355 62.155 26.213C61.9613 26.2905 61.7289 26.3293 61.4965 26.3293Z" fill="#9B0033"/>
<path d="M64.5177 22.687H65.5635V26.2906H64.5177V22.687ZM64.479 21.3695H65.5635V22.2607H64.479V21.3695Z" fill="#9B0033"/>
<path d="M72.0316 22.687H73.0387V23.1907L73.2323 22.997L73.4647 22.8032L73.7358 22.687L74.0844 22.6482C74.4718 22.6482 74.7816 22.7645 74.9753 23.0357C75.2077 23.2682 75.3239 23.5782 75.3239 24.0044V26.3294H74.2781V24.2369C74.2781 24.0044 74.2394 23.8494 74.1619 23.6944C74.0457 23.5782 73.8908 23.5395 73.6971 23.5395C73.5035 23.5395 73.3098 23.6169 73.2323 23.6944C73.1161 23.8107 73.0774 24.0044 73.0774 24.2369V26.2519H72.0704V22.687H72.0316ZM68.8168 25.1281L69.2042 25.0507C69.3204 25.0119 69.3591 24.9732 69.4753 24.8957C69.5528 24.8182 69.5915 24.7407 69.6302 24.6244C69.6689 24.5082 69.7077 24.4307 69.7077 24.2757L69.6302 23.9269C69.5915 23.8107 69.514 23.7332 69.4753 23.6557L69.2042 23.5007L68.8168 23.4232L68.4682 23.5007L68.1971 23.6557C68.0809 23.7332 68.0422 23.8107 68.0035 23.9269L67.926 24.2757C67.926 24.5469 68.0422 24.7407 68.1971 24.8957C68.352 25.0507 68.5844 25.1281 68.8168 25.1281ZM68.7006 27.3368L67.8485 27.2206C67.5387 27.1818 67.3063 27.1043 67.0739 26.9493L67.4612 26.1744L68.0422 26.4456L68.6619 26.5231C69.0105 26.5231 69.2816 26.4456 69.4366 26.2906C69.5915 26.1356 69.6689 25.9031 69.6689 25.5544V25.3994C69.5528 25.5544 69.3591 25.7481 69.2042 25.8256C69.0492 25.9419 68.8168 25.9419 68.507 25.9419C68.3133 25.9419 68.1196 25.9031 67.8873 25.8256C67.7323 25.7481 67.5387 25.6706 67.3837 25.4769C67.2675 25.3606 67.1513 25.1669 67.0351 24.9732C66.9189 24.7407 66.9189 24.5082 66.9189 24.2369C66.9189 23.9657 66.9577 23.7332 67.0351 23.5395C67.1513 23.307 67.2288 23.152 67.3837 22.997C67.5387 22.842 67.7323 22.7257 67.926 22.6482L68.507 22.532C68.8168 22.532 69.0492 22.6095 69.2042 22.687C69.3591 22.8032 69.5528 22.8807 69.6689 23.0745V22.687H70.676V25.4769C70.676 26.0969 70.5598 26.6006 70.2499 26.8718C70.095 27.0268 69.8626 27.1818 69.6302 27.2593L68.7006 27.3368Z" fill="#9B0033"/>
<path d="M46.7782 32.2191C46.3909 32.2191 46.0811 32.1416 45.6937 32.0254C45.3451 31.9092 45.074 31.7154 44.7642 31.4442L45.3839 30.7467C45.5775 30.9017 45.7712 31.0567 46.0036 31.1342C46.236 31.2504 46.4684 31.2892 46.7395 31.2892C46.9719 31.2892 47.1268 31.2504 47.243 31.1729C47.3592 31.0954 47.398 31.0179 47.398 30.8629V30.6692L47.243 30.553L46.9719 30.4367L46.4684 30.2817L45.8487 30.1267L45.3451 29.8555L45.0353 29.468C44.9578 29.313 44.9191 29.1192 44.9191 28.8868V28.848L45.0353 28.2668C45.1515 28.1118 45.2289 27.918 45.4226 27.8405C45.5388 27.7243 45.7325 27.608 45.9261 27.5306C46.1198 27.4531 46.3522 27.4143 46.5846 27.4143C46.9332 27.4143 47.2043 27.4918 47.5142 27.5693C47.824 27.6855 48.0952 27.8018 48.3275 27.9955L47.7853 28.7705L47.1656 28.4218C46.9719 28.3055 46.7782 28.3055 46.5459 28.3055C46.3135 28.3055 46.1973 28.3443 46.1198 28.4218C46.0036 28.4993 45.9649 28.5768 45.9649 28.693V28.7318L46.0423 28.9255L46.1585 29.0418L46.5071 29.158L47.0106 29.2742L47.6304 29.5067C47.7853 29.5842 47.979 29.6617 48.0952 29.778L48.3663 30.1655C48.4437 30.3205 48.4825 30.5142 48.4825 30.7079V30.7467C48.4825 30.9792 48.4437 31.1729 48.3663 31.3667C48.2888 31.5217 48.2114 31.7154 48.0177 31.8317C47.8628 31.9479 47.6691 32.0254 47.4367 32.1029C47.2818 32.1804 47.0494 32.2191 46.7782 32.2191Z" fill="#9B0033"/>
<path d="M56.3063 32.2579C56.0352 32.2579 55.8028 32.1804 55.5704 32.1029C55.338 31.9867 55.1444 31.8704 54.9507 31.7154C54.7958 31.5604 54.6796 31.3667 54.5634 31.1342C54.4472 30.9017 54.4085 30.6304 54.4085 30.398C54.4085 30.1267 54.4859 29.8942 54.5634 29.6617C54.6796 29.4292 54.7571 29.2355 54.9507 29.0418C55.1056 28.8868 55.338 28.7318 55.5704 28.6543C55.8028 28.538 56.0352 28.538 56.3451 28.538C56.6937 28.538 56.9648 28.6155 57.1972 28.693C57.4296 28.8093 57.5845 28.9255 57.7782 29.1192L57.1585 29.778C57.0423 29.6617 56.9261 29.5455 56.7711 29.468C56.6549 29.3905 56.5 29.3517 56.3063 29.3517L55.9578 29.4292L55.6866 29.6617L55.493 29.9717L55.4155 30.3592V30.398C55.4155 30.5142 55.4542 30.6692 55.493 30.7854C55.5317 30.9017 55.6092 31.0179 55.6866 31.1342C55.7641 31.2504 55.8416 31.2892 55.9578 31.3279C56.074 31.3667 56.1902 31.4054 56.3451 31.4054C56.5 31.4054 56.6549 31.3667 56.7711 31.2892L57.1585 31.0179L57.7782 31.6379C57.6233 31.7929 57.3909 31.9867 57.1585 32.1029C56.9261 32.1804 56.6549 32.2579 56.3063 32.2579ZM52.2782 30.0492C52.2394 29.8167 52.162 29.6617 52.0458 29.468C51.9296 29.3517 51.7359 29.2742 51.5423 29.2742C51.3099 29.2742 51.1549 29.3517 51 29.468C50.8838 29.623 50.7676 29.8167 50.7289 30.0492H52.2782ZM51.581 32.2579C51.3486 32.2579 51.0775 32.1804 50.8451 32.1029C50.6127 32.0254 50.419 31.9092 50.2254 31.7154C50.0704 31.5604 49.9542 31.3667 49.838 31.1342C49.7218 30.9017 49.6831 30.6304 49.6831 30.3592C49.6831 30.088 49.7218 29.8555 49.7993 29.623C49.9155 29.3905 49.993 29.1967 50.1866 29.003C50.3416 28.848 50.5352 28.693 50.7676 28.6155C51 28.4993 51.2324 28.4993 51.5035 28.4993C51.8134 28.4993 52.0458 28.5768 52.2782 28.6543C52.5106 28.7705 52.6655 28.8868 52.8204 29.0805C52.9366 29.2355 53.0528 29.468 53.169 29.7005C53.2465 29.933 53.2852 30.2042 53.2852 30.4367L53.2465 30.553V30.6692H50.7676C50.8063 30.9017 50.8838 31.0567 51.0775 31.2117C51.2324 31.3279 51.4261 31.3667 51.6585 31.3667C51.8134 31.3667 51.9683 31.3279 52.1232 31.2504C52.2394 31.2117 52.3556 31.1342 52.5106 30.9792L53.0916 31.4829C52.9366 31.7154 52.7042 31.8704 52.4718 31.9867C52.2394 32.1804 51.9296 32.2579 51.581 32.2579Z" fill="#9B0033"/>
<path d="M60.2183 32.2191C59.831 32.2191 59.5598 32.1028 59.3274 31.8316C59.1338 31.5991 59.0176 31.2891 59.0176 30.8629V28.538H60.0246V30.5529C60.0246 30.7854 60.1021 30.9404 60.1796 31.0954C60.2957 31.2116 60.4507 31.2504 60.6443 31.2504C60.7993 31.2504 60.9929 31.1729 61.1091 31.0954C61.2253 30.9791 61.2641 30.7854 61.2641 30.5529V28.538H62.2711V32.1416H61.2641V31.6379L61.0704 31.8316L60.838 32.0253L60.5669 32.1416L60.2183 32.2191Z" fill="#9B0033"/>
<path d="M73.6974 31.3279C73.8136 31.3279 73.9685 31.2892 74.0847 31.2504L74.3559 31.0567C74.4333 30.9405 74.4721 30.863 74.5108 30.7467L74.5883 30.3592V30.3205L74.5108 29.933L74.3559 29.623L74.0847 29.4293C73.9685 29.3905 73.8523 29.3518 73.6974 29.3518L73.3488 29.4293L73.0777 29.623L72.884 29.933C72.8453 30.0492 72.8066 30.1655 72.8066 30.3205V30.3592L72.884 30.7467C72.9228 30.863 73.0002 30.9405 73.0777 31.0567L73.3488 31.2504L73.6974 31.3279ZM73.465 32.2192C73.2326 32.2192 73.039 32.1804 72.8453 32.1029C72.6904 32.0254 72.4967 31.9479 72.3418 31.7542C72.1868 31.5992 72.0706 31.3667 71.9544 31.1342C71.8382 30.9017 71.8382 30.6692 71.8382 30.3592V30.3205C71.8382 30.0105 71.877 29.7392 71.9544 29.5068C72.0706 29.2743 72.1481 29.1193 72.3418 28.9255C72.458 28.7705 72.6516 28.6543 72.8453 28.5768C73.039 28.4605 73.2326 28.4605 73.465 28.4605C73.7361 28.4605 73.9685 28.538 74.1235 28.6155C74.2784 28.7318 74.4721 28.8093 74.5495 29.003V27.2206H75.5566V32.1029H74.5495V31.5992C74.4333 31.7542 74.2784 31.9092 74.1235 31.9867C73.9685 32.1417 73.7361 32.2192 73.465 32.2192ZM69.6305 30.0492C69.5918 29.8167 69.5143 29.6617 69.3981 29.468C69.2819 29.3518 69.0883 29.2743 68.8946 29.2743C68.6622 29.2743 68.5073 29.3518 68.3523 29.468C68.2361 29.623 68.1199 29.8167 68.0812 30.0492H69.6305ZM68.9721 32.2579C68.7397 32.2579 68.4685 32.1804 68.2361 32.1029C68.0037 32.0254 67.8101 31.9092 67.6164 31.7154C67.4615 31.5604 67.3453 31.3667 67.2291 31.1342C67.1129 30.9017 67.0742 30.6305 67.0742 30.3592C67.0742 30.088 67.1129 29.8555 67.1904 29.623C67.3066 29.3905 67.384 29.1968 67.5777 29.003C67.7326 28.848 67.9263 28.693 68.1587 28.6155C68.3911 28.4993 68.6235 28.4993 68.8946 28.4993C69.2044 28.4993 69.4368 28.5768 69.6692 28.6543C69.9016 28.7705 70.0566 28.8868 70.2115 29.0805C70.3277 29.2355 70.4439 29.468 70.5601 29.7005C70.6375 29.933 70.6763 30.2042 70.6763 30.4367L70.6375 30.553V30.6692H68.1587C68.1974 30.9017 68.2749 31.0567 68.4685 31.2117C68.6235 31.3279 68.8171 31.3667 69.0495 31.3667C69.2044 31.3667 69.3594 31.3279 69.5143 31.2504C69.6305 31.2117 69.7467 31.1342 69.9016 30.9792L70.4826 31.4829C70.3277 31.7154 70.0953 31.8704 69.8629 31.9867C69.6305 32.1804 69.3206 32.2579 68.9721 32.2579ZM63.8981 28.538H64.9051V29.2355C65.0213 29.003 65.1763 28.8093 65.3312 28.6543C65.4861 28.4993 65.7185 28.4218 66.0284 28.4605V29.5455H65.9897C65.6023 29.5455 65.3699 29.6617 65.1763 29.8555C64.9826 30.0492 64.8664 30.398 64.8664 30.8242V32.1417H63.8594V28.538H63.8981Z" fill="#9B0033"/>
<path fill-rule="evenodd" clip-rule="evenodd" d="M77.3379 13.3097H78.771V13.6584H78.2675V15.0534H77.8801V13.6584H77.3379V13.3097ZM80.9013 13.3097V15.0146H80.5139V13.8909L80.0879 14.6271H80.0104L79.5844 13.8909V15.0146H79.197V13.3097H79.6231L80.0879 14.0459L80.5139 13.3097H80.9013Z" fill="#9B0033"/>
<path fill-rule="evenodd" clip-rule="evenodd" d="M33.2604 18.3859H32.0209V19.6646H33.2604V18.3859ZM32.0209 15.1697H33.2604V16.4097H32.0209V15.1697ZM35.2357 11.8761H33.9576V10.6361H35.2357V11.8761ZM37.7533 9.27991H40.1935V7.92371H37.7533V11.8373H35.2745V13.116H33.1442V14.0073H32.0209V15.131H30.6653V17.1072H29.3871V18.3471H28.535V19.6258H27.6054C25.7076 22.4157 24.2357 25.1669 23.1899 27.9568C20.7885 24.5469 18.5421 22.5707 16.4505 21.8732C15.8695 21.7183 15.4822 21.8345 15.2498 22.3382C15.0174 22.842 15.2111 23.4619 15.9083 24.2369C18.0385 26.5618 19.9752 29.8555 21.7568 34.0403C22.028 34.6991 22.6477 35.0866 23.616 35.1641C24.5069 35.2416 25.1266 34.8928 25.3977 34.1566C26.7146 30.708 28.2252 27.7631 29.9681 25.2444V23.8107H30.9752V22.5707H32.0597V21.0595H33.2991V19.6646H34.5773V18.3859H35.5843V16.8359H36.7076V15.7897H37.7921V13.1548H39.0315V11.8761H40.4646V10.5974H39.0315V11.8761H37.7921V13.1548H36.5526V14.3947H35.3132V13.1548H36.5526V9.27991H37.7533Z" fill="black"/>
<path d="M38.9929 9.27991H37.7534V10.5974H38.9929V9.27991Z" fill="#A10045"/>
<path d="M33.2604 15.1697H32.021V16.4096H33.2604V15.1697Z" fill="white"/>
<path d="M42.944 7.92371H41.5884V9.27991H42.944V7.92371Z" fill="#9B0033"/>
<path d="M41.6266 7.92366V6.6062H40.271V7.92366" fill="black"/>
<path d="M42.944 5.25H41.5884V6.60621H42.944V5.25Z" fill="#9B0033"/>
</g>
<defs>
<clipPath id="clip0_1738_704">
<rect width="77" height="37.625" fill="white" transform="translate(7 5.25)"/>
</clipPath>
</defs>
</svg>
