<svg width="38" height="23" viewBox="0 0 38 23" fill="none" xmlns="http://www.w3.org/2000/svg">
<path d="M33.8506 1H3.98641C2.33706 1 1 2.19973 1 3.67968V19.7577C1 21.2377 2.33706 22.4374 3.98641 22.4374H33.8506C35.4999 22.4374 36.837 21.2377 36.837 19.7577V3.67968C36.837 2.19973 35.4999 1 33.8506 1Z" fill="white" stroke="#E0E0E0" stroke-width="0.759158"/>
<path fill-rule="evenodd" clip-rule="evenodd" d="M23.6594 12.8374C23.664 11.8159 22.7251 11.3747 21.9965 11.0323C21.5352 10.8156 21.1583 10.6385 21.1583 10.3787C21.1583 10.1577 21.3972 9.9232 21.9049 9.86291C22.5091 9.80925 23.1182 9.90424 23.6669 10.1376L23.9804 8.79774C23.4456 8.6178 22.8793 8.52475 22.3081 8.52307C20.5461 8.52307 19.3216 9.36717 19.3216 10.573C19.3216 11.464 20.2101 11.9598 20.882 12.2545C21.554 12.5493 21.8153 12.757 21.8078 13.0249C21.8078 13.4403 21.2553 13.6279 20.7402 13.6346C20.1048 13.6419 19.4777 13.5035 18.9185 13.2326L18.5974 14.5724C19.2302 14.7941 19.9042 14.9055 20.5834 14.9007C22.4574 14.9007 23.6893 14.07 23.6967 12.7838L23.6594 12.8374ZM18.8139 8.63026L17.3207 14.827H15.5289L17.0221 8.63026H18.8139ZM26.3248 12.6498L27.2655 10.3252L27.8105 12.6498H26.3248ZM29.9757 14.8471H28.3182L28.1017 13.9226H25.8544L25.4886 14.8471H23.6071L26.2875 9.1059C26.411 8.83278 26.7055 8.65304 27.0341 8.65036H28.5273L29.9757 14.8471ZM13.4011 14.8069L16.2979 8.61016H14.3567L12.4977 12.824L11.7511 9.23989C11.685 8.87572 11.3336 8.60869 10.9223 8.61016H7.88366L7.83887 8.79104C8.44832 8.89803 9.04038 9.07361 9.60085 9.31358C9.83962 9.41427 10.0013 9.6206 10.0264 9.85621L11.4524 14.8069H13.4011Z" fill="#142688"/>
</svg>
