<svg width="48" height="48" viewBox="0 0 48 48" fill="none" xmlns="http://www.w3.org/2000/svg">
<path d="M4.31959 24C4.31959 35.0457 13.237 44 24.2371 44C34.1062 44 42.2989 36.7924 43.8792 27.3333M4.31959 24L1 27.8095M4.31959 24L8.1134 27.3333M44.1325 23.0476C43.6374 12.4442 34.9193 4 24.2371 4C14.5343 4 6.45191 10.9668 4.68047 20.1905M44.1325 23.0476L47 18.7619M44.1325 23.0476L40.3608 20.1905" stroke="#E38171" stroke-width="2" stroke-linecap="round"/>
<path d="M20.75 14H15C14.4477 14 14 14.4477 14 15V33C14 33.5523 14.4477 34 15 34H34C34.5523 34 35 33.5523 35 33V15C35 14.4477 34.5523 14 34 14H28.25M20.75 14V22.75L28.25 21.0833V14M20.75 14H28.25" stroke="#E38171" stroke-width="2"/>
</svg>
