<svg width="91" height="49" viewBox="0 0 91 49" fill="none" xmlns="http://www.w3.org/2000/svg">
<path d="M18.7995 39.4799C18.7995 39.4799 2.65923 33.9754 4.52516 11.6775C4.52516 11.6775 11.6157 9.625 18.7995 9.625C25.9834 9.625 32.8873 11.5842 33.0739 11.6775C34.9399 33.9754 18.7995 39.4799 18.7995 39.4799Z" fill="url(#paint0_linear_1738_725)"/>
<path d="M18.7995 39.4799C18.7995 39.4799 2.65923 33.9754 4.52516 11.6775C4.52516 11.6775 11.6157 9.625 18.7995 9.625C25.9834 9.625 32.8873 11.5842 33.0739 11.6775L31.5812 12.9837L18.7995 38.0805V39.4799Z" fill="url(#paint1_linear_1738_725)"/>
<path d="M18.7994 38.0804C18.7994 38.0804 4.24511 33.1357 5.92445 12.8903C5.92445 12.8903 12.3619 11.0244 18.7994 11.0244C25.3302 11.0244 31.581 12.797 31.7676 12.8903C33.447 33.1357 18.7994 38.0804 18.7994 38.0804Z" fill="white" stroke="#1A171B" stroke-width="0.450188" stroke-linecap="round"/>
<path d="M18.7994 38.0804C18.7994 38.0804 4.24511 33.1357 5.92445 12.8903C5.92445 12.8903 12.3619 11.0244 18.7994 11.0244C25.3302 11.0244 31.581 12.797 31.7676 12.8903C33.447 33.1357 18.7994 38.0804 18.7994 38.0804Z" fill="white"/>
<path d="M5.83122 12.7038H5.73792V12.8904C4.89825 23.4329 8.44353 29.7771 11.6156 33.2291C15.0676 36.9609 18.7062 38.2671 18.7995 38.2671H18.8927H18.986C18.986 38.2671 22.7179 36.9609 26.1699 33.2291C29.342 29.7771 32.9805 23.4329 32.0476 12.8904V12.7971H31.9543C31.861 12.7971 25.5168 10.9312 18.8927 10.9312C12.362 10.8379 5.83122 12.6105 5.83122 12.7038ZM18.986 11.1178C25.0503 11.1178 30.7414 12.7038 31.5811 12.9837C31.6744 14.01 31.6744 15.2228 31.6744 16.1558C31.6744 24.6458 28.5023 30.057 25.7034 33.1358C22.5313 36.5877 19.2659 37.8939 18.7062 38.0805C18.2397 37.8939 14.7877 36.5877 11.7089 33.1358C8.91001 30.057 5.83122 24.7391 5.83122 16.2491C5.83122 15.3161 5.92452 14.1033 6.01781 13.077C7.04408 12.7971 13.1084 11.1178 18.986 11.1178Z" fill="url(#paint2_linear_1738_725)"/>
<path d="M18.7998 35.5615C18.7998 35.5615 6.5779 31.0833 7.97734 14.1033C7.97734 14.1033 13.3885 14.5698 18.7998 14.5698C24.211 14.5698 29.5289 14.1966 29.6222 14.1033C31.1149 31.0833 18.7998 35.5615 18.7998 35.5615Z" fill="url(#paint3_linear_1738_725)"/>
<path d="M18.7994 34.0687C18.7994 34.0687 8.25687 30.2436 9.46972 15.5027C9.46972 15.5027 14.1346 15.8759 18.7994 15.8759C23.4642 15.8759 28.0358 15.5027 28.2223 15.5027C29.4352 30.2436 18.7994 34.0687 18.7994 34.0687Z" fill="url(#paint4_radial_1738_725)"/>
<path d="M29.6219 14.1033C29.4353 14.1033 24.2107 14.5698 18.7995 14.5698C13.3883 14.5698 7.97705 14.1033 7.97705 14.1033L9.4698 15.596C9.4698 15.596 14.1346 15.9692 18.7995 15.9692C23.4643 15.9692 28.0358 15.596 28.2224 15.596L29.6219 14.1033Z" fill="#8B1820"/>
<path d="M18.7998 35.5615C18.7998 35.5615 6.5779 31.0833 7.97734 14.1033L9.47009 15.596C8.25723 30.2436 18.7998 34.162 18.7998 34.162V35.5615Z" fill="url(#paint5_linear_1738_725)"/>
<path d="M12.269 28.191L13.9484 16.9021H16.9339L20.4791 28.191H17.4004L15.8143 22.3133L14.9746 28.191H12.269Z" fill="white"/>
<path d="M20.9455 16.9021H23.7444L25.4237 28.191H22.7181L21.6919 22.3133L20.7589 26.9781L19.1729 22.3133L20.9455 16.9021Z" fill="white"/>
<path d="M43.7099 22.3134H41.4708L39.325 16.8089L38.5786 22.3134H36.0596L37.6456 12.144H40.0713L43.7099 22.3134ZM42.1239 17.0888L43.9898 12.144H46.4155L47.8149 22.3134H45.3892L44.7362 16.8089L43.3367 20.0743L42.1239 17.0888Z" fill="#1A171B"/>
<path d="M57.1442 20.5407L56.4911 22.3134H54.0654L57.5174 12.144H60.0364L63.3951 22.3134H60.8761L60.3163 20.5407H57.1442ZM58.7303 15.3161L57.704 18.5815H59.6632L58.7303 15.3161Z" fill="#1A171B"/>
<path d="M75.7107 19.3279H70.9525C70.9525 20.3541 71.419 20.9139 72.352 20.9139C72.8185 20.9139 73.1916 20.7273 73.4715 20.2608H75.6174C75.4308 21.1005 74.9643 21.6603 74.4045 22.0335C73.8447 22.4067 73.0984 22.5932 72.352 22.5932C70.2062 22.5932 68.6201 21.2871 68.6201 18.8614C68.6201 16.529 70.1129 15.1295 72.1654 15.1295C74.4045 15.1295 75.7107 16.6223 75.7107 18.9547V19.3279ZM73.6581 17.8351C73.5648 17.182 73.0051 16.7156 72.352 16.7156C71.6989 16.7156 71.1391 17.0887 71.0458 17.8351H73.6581Z" fill="#1A171B"/>
<path d="M83.5476 19.3279H78.7894C78.7894 20.3541 79.2559 20.9139 80.1889 20.9139C80.6554 20.9139 81.0286 20.7273 81.3085 20.2608H83.4543C83.2677 21.1005 82.8012 21.6603 82.2414 22.0335C81.6816 22.4067 80.9353 22.5932 80.1889 22.5932C78.0431 22.5932 76.457 21.2871 76.457 18.8614C76.457 16.529 77.9498 15.1295 80.0023 15.1295C82.2414 15.1295 83.5476 16.6223 83.5476 18.9547V19.3279ZM81.495 17.8351C81.4017 17.182 80.842 16.7156 80.1889 16.7156C79.5358 16.7156 78.976 17.0887 78.8827 17.8351H81.495Z" fill="#1A171B"/>
<path d="M83.9204 14.0099C83.9204 13.077 84.6668 12.2373 85.693 12.2373C86.626 12.2373 87.4657 12.9837 87.4657 14.0099C87.4657 15.0362 86.7193 15.7826 85.693 15.7826C84.6668 15.7826 83.9204 15.0362 83.9204 14.0099ZM84.2003 14.0099C84.2003 14.8496 84.8534 15.5027 85.693 15.5027C86.5327 15.5027 87.1858 14.8496 87.1858 14.0099C87.1858 13.1703 86.5327 12.5172 85.693 12.5172C84.8534 12.6105 84.2003 13.2636 84.2003 14.0099ZM86.4394 15.0362H86.1595L85.693 14.1032H85.3199V15.0362H85.04V13.077H85.8796C86.2528 13.077 86.5327 13.1703 86.5327 13.6368C86.5327 14.0099 86.2528 14.1965 85.9729 14.1965L86.4394 15.0362ZM85.2266 13.3569V13.8233H85.5065C85.7863 13.8233 86.1595 13.8233 86.1595 13.6368C86.1595 13.3569 85.9729 13.3569 85.693 13.3569H85.2266Z" fill="#1A171B"/>
<path d="M64.2349 17.0888H62.9287V15.4094H64.3282V14.5698C64.3282 12.5172 65.2611 11.7709 67.0338 11.7709C67.5002 11.7709 67.8734 11.8642 68.1533 11.8642L68.06 13.5435C67.8734 13.4502 67.6868 13.4502 67.3136 13.4502C66.7539 13.4502 66.474 13.9167 66.474 14.5698V15.4094H68.06V17.0888H66.474V22.3134H64.2349V17.0888Z" fill="#1A171B"/>
<path d="M41.0976 27.1648C40.3513 26.8849 39.9781 26.7916 39.2317 26.7916C38.392 26.7916 37.4591 27.0715 37.4591 28.0977C37.4591 29.9637 41.7507 29.4972 41.7507 32.6693C41.7507 34.7218 40.1647 35.5615 38.1121 35.5615C37.4591 35.5615 36.7127 35.3749 36.0596 35.1883L36.2462 33.8821C36.7127 34.0687 37.5524 34.3486 38.2987 34.3486C39.1384 34.3486 40.258 33.8821 40.258 32.7626C40.258 30.6168 35.9663 31.1765 35.9663 28.191C35.9663 26.5117 37.3658 25.5787 39.1384 25.5787C39.7915 25.5787 40.5378 25.672 41.2842 25.9519L41.0976 27.1648Z" fill="#1A171B"/>
<path d="M43.8032 25.7653H49.3077V26.9781H45.2027V29.777H48.9345V30.9899H45.2027V34.162H49.3077V35.3748H43.8032V25.7653Z" fill="#1A171B"/>
<path d="M57.8909 27.3514C57.2379 26.9782 56.5848 26.7916 55.8384 26.7916C53.5993 26.7916 52.0133 28.3777 52.0133 30.5235C52.0133 32.7626 53.6926 34.2554 55.7451 34.2554C56.4915 34.2554 57.4245 34.0688 57.8909 33.7889L57.9842 35.095C57.2379 35.3749 56.3049 35.4682 55.7451 35.4682C52.573 35.4682 50.5205 33.509 50.5205 30.4302C50.5205 27.4447 52.7596 25.4855 55.7451 25.4855C56.4915 25.4855 57.2379 25.5788 57.9842 25.8587L57.8909 27.3514Z" fill="#1A171B"/>
<path d="M66.8471 31.3631C66.8471 34.0687 65.4477 35.4681 63.0219 35.4681C60.5962 35.4681 59.1968 34.0687 59.1968 31.3631V25.7653H60.5962V31.1765C60.5962 33.0424 61.156 34.2553 63.0219 34.2553C64.8879 34.2553 65.4477 32.9491 65.4477 31.1765V25.7653H66.8471V31.3631Z" fill="#1A171B"/>
<path d="M69.0864 25.7653H71.5121C73.4714 25.7653 75.3373 26.0451 75.3373 28.3776C75.3373 29.5904 74.4043 30.3368 73.2848 30.5234C73.7513 30.71 73.9379 30.8966 74.2177 31.4564L76.0837 35.2815H74.4976L73.0049 31.9228C72.5384 30.9899 72.0719 30.9899 71.3255 30.9899H70.4859V35.2815H69.0864V25.7653ZM70.4859 29.8703H71.6987C73.0049 29.8703 73.8446 29.3105 73.8446 28.3776C73.8446 27.5379 73.1915 26.9781 71.8853 26.9781H70.4859V29.8703Z" fill="#1A171B"/>
<path d="M77.7632 25.7653H83.2677V26.9781H79.1626V29.777H82.8945V30.9899H79.1626V34.162H83.2677V35.3748H77.7632V25.7653Z" fill="#1A171B"/>
<path d="M53.4126 17.5552C53.0394 17.2753 52.573 17.182 52.0132 17.182C51.0802 17.182 50.3338 17.9284 50.3338 19.0479C50.3338 20.1675 51.1735 20.8206 52.1998 20.8206C52.6663 20.8206 53.226 20.7273 53.5992 20.4474L53.6925 22.22C53.1327 22.4066 52.4797 22.4999 51.8266 22.4999C49.6808 22.4999 48.0947 21.1938 48.0947 18.8613C48.0947 16.5289 49.7741 15.2228 51.8266 15.2228C52.4797 15.2228 53.1327 15.3161 53.5992 15.596L53.4126 17.5552Z" fill="#1A171B"/>
<defs>
<linearGradient id="paint0_linear_1738_725" x1="10.3494" y1="33.2907" x2="25.7495" y2="4.62468" gradientUnits="userSpaceOnUse">
<stop stop-color="#636466"/>
<stop offset="0.0367559" stop-color="#68696B"/>
<stop offset="0.2712" stop-color="#838486"/>
<stop offset="0.509" stop-color="#97989A"/>
<stop offset="0.7502" stop-color="#A2A3A5"/>
<stop offset="1" stop-color="#A6A7A9"/>
</linearGradient>
<linearGradient id="paint1_linear_1738_725" x1="24.8199" y1="25.0722" x2="4.9296" y2="11.9124" gradientUnits="userSpaceOnUse">
<stop stop-color="#C5C6C8"/>
<stop offset="0.0948435" stop-color="#DCDDDE"/>
<stop offset="0.2048" stop-color="#F0F0F0"/>
<stop offset="0.3167" stop-color="#FBFBFB"/>
<stop offset="0.4326" stop-color="white"/>
<stop offset="0.5362" stop-color="#F6F7F7"/>
<stop offset="0.7022" stop-color="#DFDFE0"/>
<stop offset="0.9089" stop-color="#B9BABB"/>
<stop offset="1" stop-color="#A6A7A9"/>
</linearGradient>
<linearGradient id="paint2_linear_1738_725" x1="29.846" y1="28.797" x2="8.8684" y2="14.6062" gradientUnits="userSpaceOnUse">
<stop stop-color="#4B4B4D"/>
<stop offset="0.2321" stop-color="#646466"/>
<stop offset="0.482" stop-color="#77787A"/>
<stop offset="0.7365" stop-color="#828385"/>
<stop offset="1" stop-color="#868789"/>
</linearGradient>
<linearGradient id="paint3_linear_1738_725" x1="9.49957" y1="27.8229" x2="27.4376" y2="15.0182" gradientUnits="userSpaceOnUse">
<stop stop-color="#8B1820"/>
<stop offset="0.6067" stop-color="#CC1332"/>
<stop offset="0.7079" stop-color="#CA0233"/>
<stop offset="1" stop-color="#8B1E40"/>
</linearGradient>
<radialGradient id="paint4_radial_1738_725" cx="0" cy="0" r="1" gradientUnits="userSpaceOnUse" gradientTransform="translate(15.8801 18.547) scale(19.0666)">
<stop stop-color="#CC1332"/>
<stop offset="0.4607" stop-color="#CA0233"/>
<stop offset="1" stop-color="#8B1E40"/>
</radialGradient>
<linearGradient id="paint5_linear_1738_725" x1="4.31508" y1="15.5094" x2="20.1764" y2="33.8042" gradientUnits="userSpaceOnUse">
<stop stop-color="#8B1820"/>
<stop offset="0.6067" stop-color="#CC1332"/>
<stop offset="0.7079" stop-color="#CA0233"/>
<stop offset="1" stop-color="#8B1E40"/>
</linearGradient>
</defs>
</svg>
