<svg width="37" height="22" viewBox="0 0 37 22" fill="none" xmlns="http://www.w3.org/2000/svg">
<path d="M33.0898 0H3.22567C1.57632 0 0.239258 1.19973 0.239258 2.67968V18.7577C0.239258 20.2377 1.57632 21.4374 3.22567 21.4374H33.0898C34.7392 21.4374 36.0762 20.2377 36.0762 18.7577V2.67968C36.0762 1.19973 34.7392 0 33.0898 0Z" fill="#006FCF"/>
<path d="M2.96429 7.0609L3.36746 7.9452H2.01611L2.42674 7.0609L2.69551 6.47137L2.96429 7.0609Z" fill="white"/>
<path fill-rule="evenodd" clip-rule="evenodd" d="M31.3652 5.96217V4.8501H34.0455V10.3166H31.5219L30.7753 9.25817V10.3166H27.117L26.7512 9.49934H25.915L25.5715 10.3166H23.4288C22.783 10.3312 22.1483 10.1573 21.622 9.8209V10.3166H18.0308L17.1648 9.33856V10.3166H3.47205L3.12861 9.49934H2.29242L1.94151 10.3166H0.239258V9.49934H1.3741L1.73247 8.70884H3.69604L4.0544 9.47255H5.20417L3.39739 5.6942H2.06843L0.239258 9.49934V7.369L1.43383 4.8233H3.86775L4.56956 6.23013V4.8233H7.55598L8.00393 6.02916L8.4519 4.8501H21.622V5.39943C22.1536 5.02685 22.8143 4.83256 23.4885 4.8501H27.4754L28.222 6.25693V4.8501H30.5663L31.3652 5.96217ZM9.639 9.47255H10.6245V5.6942H8.97452L8.13833 7.87814L8.00393 8.29349L7.86955 7.87814L7.04828 5.6942H5.39829V9.47255H6.37634V6.99384V6.41771L6.58539 6.99384L7.54104 9.47255H8.4519L9.44488 6.99384L9.639 6.41771V6.99384V9.47255ZM14.798 6.4981H12.4313V7.16802H14.7383V7.97193H12.4313V8.64184H14.798V9.44575H11.4383V5.6942H14.798V6.4981ZM16.9706 8.13271L18.2249 9.47255H19.524L18.1204 8.07911C18.7886 8.00683 19.2866 7.49059 19.2702 6.88666C19.2754 6.54238 19.1141 6.21305 18.8275 5.98413C18.5408 5.75524 18.1577 5.64942 17.777 5.6942H15.47V9.47255H16.5077V8.13271H16.9706ZM20.7559 9.47255H19.7331V5.6942H20.7559V9.47255ZM23.3093 9.47255H23.369L23.7797 8.66864H23.4586C23.1488 8.68291 22.8479 8.57298 22.6374 8.36852C22.4268 8.16406 22.3283 7.88618 22.3686 7.61017V7.55658C22.3328 7.28271 22.4335 7.00865 22.6433 6.80734C22.8539 6.60603 23.1518 6.49783 23.4586 6.5115H24.5711V5.6942H23.384C22.8263 5.65859 22.279 5.84482 21.8878 6.20347C21.4973 6.56215 21.3017 7.05695 21.3532 7.55658V7.61017C21.2905 8.10021 21.4727 8.58999 21.8497 8.94887C22.226 9.30781 22.7606 9.49941 23.3093 9.47255ZM27.6844 9.47255L27.326 8.70884H25.3326L24.9742 9.49934H23.8842L25.691 5.6942H27.0349L28.8342 9.47255H27.6844ZM31.8579 9.47255H33.0525L33.0898 5.6674H32.0446V7.67716V8.13271L31.7609 7.70396L30.2677 5.6942H29.0283V9.49934H30.0287V7.39579V6.95365L30.2975 7.369L31.8579 9.47255ZM27.0423 7.94513L26.6392 7.06083L26.3704 6.47131L26.1016 7.06083L25.7134 7.94513H27.0423ZM16.5077 6.4981H17.6874C17.8195 6.48484 17.9517 6.52242 18.0517 6.6016C18.151 6.68072 18.2085 6.79407 18.21 6.91345C18.2137 7.03431 18.1577 7.1504 18.057 7.23053C17.9562 7.31071 17.8203 7.34669 17.6874 7.3288H16.5077V6.4981Z" fill="white"/>
<path fill-rule="evenodd" clip-rule="evenodd" d="M36.0763 12.8356H33.8887C33.514 12.7966 33.1384 12.9057 32.8607 13.1346C32.5822 13.3635 32.4291 13.6896 32.4403 14.0281C32.4179 14.3409 32.5516 14.6464 32.8054 14.8615C33.06 15.0766 33.4079 15.1787 33.7544 15.1401H34.7175C34.8683 15.1129 35.0236 15.1701 35.1087 15.2851C35.1946 15.4001 35.1946 15.5501 35.1087 15.6651C35.0236 15.7801 34.8683 15.8373 34.7175 15.8101H32.5598V16.614H34.7025C35.2953 16.6632 35.8516 16.3505 36.0614 15.8503V17.1231C35.6537 17.3493 35.1819 17.4656 34.7025 17.4581H23.0406L22.1745 16.48V17.4581H19.6137V16.078C19.2508 16.1786 18.873 16.2284 18.4938 16.2254H18.0757V17.4581H14.3053L13.6782 16.6408L13.0361 17.4581H6.86914V11.9915H13.051L13.6782 12.7954L14.3202 11.9915H36.0763V12.8356ZM35.6731 13.6395H33.8365C33.6857 13.6123 33.5304 13.6695 33.4453 13.7845C33.3594 13.8994 33.3594 14.0495 33.4453 14.1645C33.5304 14.2795 33.6857 14.3367 33.8365 14.3094H34.8145C35.3312 14.2618 35.824 14.5152 36.039 14.9392V12.8624L35.6731 13.6395ZM11.2218 13.6395H8.8551V14.3094H11.177V15.0999H8.8551V15.7699H11.2218V16.5738H7.83972V12.8356H11.2218V13.6395ZM13.6782 15.4081L14.6935 16.614L15.9777 16.6408L14.2755 14.7382L15.9478 12.8356H14.7085L13.6782 14.0281L12.6553 12.849H11.3861L13.0809 14.7382L11.4384 16.614H12.6255L13.6782 15.4081ZM18.4266 15.3679H17.1573V16.614H16.1569V12.8356H18.4788C18.87 12.7982 19.2605 12.9159 19.5472 13.1578C19.8347 13.3998 19.9892 13.7421 19.972 14.0951C19.9847 14.4528 19.825 14.7981 19.533 15.0421C19.2411 15.286 18.8454 15.4049 18.449 15.3679H18.4266ZM21.9431 15.2741L23.1974 16.614H24.4965L23.0854 15.2205C23.5602 15.1703 23.9694 14.8966 24.1582 14.5024C24.3471 14.1084 24.2867 13.6538 24.0015 13.31C23.7155 12.9662 23.2466 12.7854 22.7718 12.8356H20.4872V16.614H21.4802V15.2741H21.9431ZM28.11 13.6395H25.7657V14.3094H28.0727V15.0999H25.7657V15.7699H28.1324V16.5738H24.7354V12.8356H28.1324L28.11 13.6395ZM28.67 16.614H30.8501C31.2211 16.6408 31.587 16.5246 31.8565 16.2943C32.126 16.0642 32.2731 15.7418 32.2612 15.4081C32.2798 15.0985 32.1439 14.7975 31.8893 14.5874C31.6347 14.3774 31.2898 14.2804 30.9471 14.3228H29.9691C29.8183 14.3501 29.663 14.2929 29.5778 14.1779C29.492 14.0629 29.492 13.9128 29.5778 13.7979C29.663 13.6829 29.8183 13.6257 29.9691 13.6529H31.7833L32.1865 12.849H29.9989C29.6264 12.8103 29.2538 12.9177 28.9768 13.1436C28.6991 13.3695 28.5438 13.6919 28.5505 14.0281C28.5281 14.3409 28.6618 14.6464 28.9156 14.8615C29.1702 15.0766 29.5181 15.1787 29.8645 15.1401H30.8501C31.0009 15.1129 31.1562 15.1701 31.2413 15.2851C31.3271 15.4001 31.3271 15.5501 31.2413 15.6651C31.1562 15.7801 31.0009 15.8373 30.8501 15.8101H28.67V16.614ZM22.6822 13.6395H21.5026V14.4702H22.6822C22.8151 14.4881 22.951 14.4521 23.0518 14.3719C23.1526 14.2918 23.2086 14.1757 23.2048 14.0549C23.2063 13.9348 23.1488 13.8201 23.0488 13.7405C22.9487 13.6608 22.8151 13.624 22.6822 13.6395ZM17.1797 13.6395H18.3892C18.6737 13.6395 18.9044 13.8465 18.9044 14.1018C18.9044 14.3571 18.6737 14.564 18.3892 14.564H17.1797V13.6395Z" fill="white"/>
</svg>
