<svg width="37" height="23" viewBox="0 0 37 23" fill="none" xmlns="http://www.w3.org/2000/svg">
<path d="M36.2667 3.67968V19.7577C36.2667 21.2377 34.9295 22.4374 33.2802 22.4374H3.4161C3.06968 22.4398 2.72549 22.3853 2.40072 22.2766C1.2181 21.893 0.430434 20.886 0.429688 19.7577V3.67968C0.429688 2.19973 1.76685 1 3.4161 1H33.2802C34.9295 1 36.2667 2.19973 36.2667 3.67968Z" fill="white" stroke="#E0E0E0" stroke-width="0.759158"/>
<path d="M36.2666 11.7188V19.7341C36.2666 21.2271 34.9108 22.4374 33.2384 22.4374H2.95242C2.60077 22.4397 2.2521 22.3848 1.92285 22.2752C4.46653 21.9508 6.91987 21.5453 9.32767 21.0857C9.96378 20.9776 10.5842 20.8425 11.2054 20.7208C21.2151 18.6798 29.8764 15.6791 34.7525 12.7325C35.2975 12.3946 35.8127 12.0567 36.2666 11.7188Z" fill="#EE7623"/>
<path fill-rule="evenodd" clip-rule="evenodd" d="M3.41602 8.12785H4.77484V8.10106C5.81486 8.03353 6.78544 8.57556 7.17666 9.44291C7.56788 10.3103 7.29163 11.3053 6.49202 11.9062C6.00449 12.2491 5.39377 12.4206 4.77484 12.3885H3.41602V8.12785ZM4.59565 11.7186C5.06302 11.7554 5.52667 11.6199 5.87981 11.3435C6.21578 11.0691 6.40616 10.6793 6.40243 10.2716C6.40915 9.86335 6.21802 9.47252 5.87981 9.19973C5.52069 8.93491 5.05854 8.8095 4.59565 8.85137H4.35673V11.7186H4.59565Z" fill="#231F20"/>
<path d="M8.71695 8.12115H7.78369V12.422H8.71695V8.12115Z" fill="#231F20"/>
<path d="M11.0088 9.76921C10.4488 9.58833 10.2622 9.46104 10.2622 9.22657C10.2622 8.9921 10.5533 8.75093 10.9565 8.75093C11.2507 8.76198 11.5239 8.8896 11.7031 9.09929L12.1884 8.52986C11.8054 8.21566 11.3037 8.04329 10.7848 8.04751C10.4025 8.02547 10.0262 8.14472 9.74477 8.37752C9.46256 8.61031 9.29904 8.93643 9.29158 9.28016C9.29158 9.87639 9.59022 10.1779 10.4637 10.4592C10.6885 10.5237 10.9057 10.6067 11.1133 10.7071C11.2895 10.7983 11.3977 10.9669 11.397 11.1492C11.3955 11.3213 11.3141 11.4849 11.1723 11.6007C11.0304 11.7165 10.8415 11.7738 10.6504 11.7589C10.2151 11.7631 9.81719 11.5375 9.63502 11.1827L9.03027 11.7053C9.38342 12.2414 10.0397 12.5566 10.7325 12.5226C11.1633 12.549 11.5866 12.4116 11.8995 12.144C12.2115 11.8764 12.3847 11.5032 12.375 11.1157C12.375 10.4324 12.0689 10.1176 11.0088 9.76921Z" fill="#231F20"/>
<path d="M12.6813 10.2717C12.6753 10.8732 12.9403 11.4514 13.4174 11.8742C13.8945 12.2971 14.5418 12.5286 15.2122 12.5159C15.6191 12.518 16.0216 12.4331 16.3844 12.268V11.2832C16.1022 11.5791 15.6908 11.7502 15.257 11.7522C14.818 11.762 14.3947 11.6071 14.0886 11.3248C13.7825 11.0425 13.6212 10.6583 13.6444 10.265C13.6302 9.8819 13.7885 9.50989 14.0834 9.23268C14.3783 8.95547 14.7852 8.7963 15.2122 8.79114C15.6624 8.79274 16.0895 8.9686 16.3844 9.27348V8.2887C16.0327 8.11365 15.6371 8.02147 15.2346 8.02073C14.5627 8.01356 13.9154 8.24716 13.4361 8.66968C12.9567 9.0922 12.685 9.6688 12.6813 10.2717Z" fill="#231F20"/>
<path d="M23.7981 11.0085L22.5139 8.12115H21.4985L23.5293 12.5292H24.0295L26.1051 8.12115H25.0897L23.7981 11.0085Z" fill="#231F20"/>
<path d="M26.5234 12.422H29.1813V11.6918H27.4567V10.5329H29.1141V9.80265H27.4567V8.85137H29.1813V8.12115H26.5234V12.422Z" fill="#231F20"/>
<path fill-rule="evenodd" clip-rule="evenodd" d="M32.8768 9.38738C32.9276 9.99051 32.4527 10.5273 31.7868 10.62L33.28 12.3886H32.1451L30.846 10.687H30.7415V12.3886H29.8008V8.12793H31.1745C32.2646 8.12793 32.8768 8.58347 32.8768 9.38738ZM30.7415 10.0975H31.0402C31.5926 10.0975 31.9211 9.92331 31.9211 9.46777C31.9211 9.01222 31.6076 8.79785 31.0402 8.79785H30.7415V10.0975Z" fill="#231F20"/>
<path d="M21.7749 10.2717C21.7749 11.5333 20.6349 12.5561 19.229 12.5561C17.8232 12.5561 16.6831 11.5333 16.6831 10.2717C16.6831 9.01001 17.8232 7.98724 19.229 7.98724C20.6334 7.99093 21.7712 9.01155 21.7749 10.2717Z" fill="#EE7623"/>
<path fill-rule="evenodd" clip-rule="evenodd" d="M33.3697 8.20829C33.3675 8.25425 33.3302 8.2929 33.2801 8.30208L33.4145 8.47626H33.2951L33.1607 8.31548V8.47626H33.0562V8.08771H33.2055C33.31 8.08771 33.3697 8.1279 33.3697 8.20829ZM33.2652 8.20829C33.2652 8.1681 33.2353 8.1681 33.1905 8.1681V8.24849H33.2055C33.245 8.24849 33.2592 8.24849 33.2645 8.24239C33.2682 8.2371 33.2652 8.22712 33.2652 8.20829Z" fill="#231F20"/>
<path fill-rule="evenodd" clip-rule="evenodd" d="M32.877 8.2753C32.877 8.09542 33.0352 7.9475 33.2353 7.94034C33.3369 7.93665 33.4354 7.97035 33.5093 8.03359C33.5825 8.09676 33.6236 8.18405 33.6236 8.2753C33.6236 8.46026 33.4563 8.61026 33.2503 8.61026C33.0442 8.61026 32.877 8.46026 32.877 8.2753ZM33.2353 8.55666C33.3107 8.55881 33.3824 8.529 33.4294 8.47627C33.4854 8.42121 33.5175 8.34979 33.519 8.2753C33.519 8.13468 33.3921 8.02073 33.2353 8.02073C33.0785 8.02073 32.9516 8.13468 32.9516 8.2753C32.9456 8.34684 32.9725 8.41752 33.0263 8.47071C33.08 8.52397 33.1554 8.55506 33.2353 8.55666Z" fill="#231F20"/>
</svg>
